<?xml version="1.0" encoding="UTF-8" standalone="no"?>
<!-- Created with Inkscape (http://www.inkscape.org/) -->

<svg
   xmlns:dc="http://purl.org/dc/elements/1.1/"
   xmlns:cc="http://creativecommons.org/ns#"
   xmlns:rdf="http://www.w3.org/1999/02/22-rdf-syntax-ns#"
   xmlns:svg="http://www.w3.org/2000/svg"
   xmlns="http://www.w3.org/2000/svg"
   xmlns:sodipodi="http://sodipodi.sourceforge.net/DTD/sodipodi-0.dtd"
   xmlns:inkscape="http://www.inkscape.org/namespaces/inkscape"
   width="231.72101"
   height="99.077652"
   id="svg2"
   version="1.1"
   inkscape:version="0.48.4 r9939"
   sodipodi:docname="dieei_logo_raccolto.svg"
   inkscape:export-filename="/home/origama/temp/zenconf_2014/artworks/locandina/logos/dieei_logo_new.png"
   inkscape:export-xdpi="300"
   inkscape:export-ydpi="300">
  <defs
     id="defs4">
    <filter
       id="filter4506"
       inkscape:label="Desaturate"
       x="0"
       y="0"
       width="1"
       height="1"
       inkscape:menu="Color"
       inkscape:menu-tooltip="Render in shades of gray by reducing saturation to zero"
       color-interpolation-filters="sRGB">
      <feColorMatrix
         id="feColorMatrix4508"
         type="saturate"
         values="0" />
    </filter>
  </defs>
  <sodipodi:namedview
     id="base"
     pagecolor="#ffffff"
     bordercolor="#666666"
     borderopacity="1.0"
     inkscape:pageopacity="0.0"
     inkscape:pageshadow="2"
     inkscape:zoom="1.979899"
     inkscape:cx="237.19691"
     inkscape:cy="58.182426"
     inkscape:document-units="px"
     inkscape:current-layer="layer1"
     showgrid="false"
     inkscape:window-width="1680"
     inkscape:window-height="992"
     inkscape:window-x="0"
     inkscape:window-y="26"
     inkscape:window-maximized="1"
     fit-margin-top="0"
     fit-margin-left="0"
     fit-margin-right="0"
     fit-margin-bottom="0" />
  <metadata
     id="metadata7">
    <rdf:RDF>
      <cc:Work
         rdf:about="">
        <dc:format>image/svg+xml</dc:format>
        <dc:type
           rdf:resource="http://purl.org/dc/dcmitype/StillImage" />
        <dc:title></dc:title>
      </cc:Work>
    </rdf:RDF>
  </metadata>
  <g
     inkscape:label="Livello 1"
     inkscape:groupmode="layer"
     id="layer1"
     transform="translate(-63.835129,-172.6337)">
    <g
       id="g3510"
       transform="translate(18.182746,83.842661)" />
    <path
       style="opacity:0.803;fill:none;stroke:#205b9f;stroke-width:2;stroke-miterlimit:4;stroke-opacity:0.72156863"
       d="m 64.835129,173.6337 14.769449,0 0,15.27452 -14.769449,0 z"
       id="rect5520-38"
       inkscape:connector-curvature="0" />
    <path
       style="opacity:0.803;fill:none;stroke:#e48700;stroke-width:2;stroke-miterlimit:4;stroke-opacity:0.76862745"
       d="m 84.722511,173.6337 14.76945,0 0,15.27452 -14.76945,0 z"
       id="rect5520-8-9"
       inkscape:connector-curvature="0" />
    <path
       style="opacity:0.803;fill:none;stroke:#e40005;stroke-width:2;stroke-miterlimit:4;stroke-opacity:0.79215686"
       d="m 104.894,173.6337 14.76945,0 0,15.27452 -14.76945,0 z"
       id="rect5520-1-9"
       inkscape:connector-curvature="0" />
    <path
       style="opacity:0.803;fill:none;stroke:#a75025;stroke-width:2;stroke-miterlimit:4;stroke-opacity:0.74901961"
       d="m 64.835129,193.77361 14.769449,0 0,15.27452 -14.769449,0 z"
       id="rect5520-5-1"
       inkscape:connector-curvature="0" />
    <path
       style="opacity:0.803;fill:none;stroke:#09b617;stroke-width:2;stroke-miterlimit:4;stroke-opacity:0.78431373"
       d="m 64.835129,213.34531 14.769449,0 0,15.27452 -14.769449,0 z"
       id="rect5520-0-1"
       inkscape:connector-curvature="0" />
    <path
       style="opacity:0.803;fill:none;stroke:#22edc4;stroke-width:2;stroke-miterlimit:4;stroke-opacity:0.79607843"
       d="m 84.722511,193.77361 14.76945,0 0,15.27452 -14.76945,0 z"
       id="rect5520-3-3"
       inkscape:connector-curvature="0" />
    <path
       style="opacity:0.803;fill:none;stroke:#1d0005;stroke-width:2;stroke-miterlimit:4;stroke-opacity:0.8745098"
       d="m 104.894,193.77361 14.76945,0 0,15.27452 -14.76945,0 z"
       id="rect5520-9-5"
       inkscape:connector-curvature="0" />
    <path
       style="opacity:0.803;fill:none;stroke:#e5e102;stroke-width:2;stroke-miterlimit:4;stroke-opacity:0.83137255"
       d="m 104.894,213.34531 14.76945,0 0,15.27452 -14.76945,0 z"
       id="rect5520-4-7"
       inkscape:connector-curvature="0" />
    <path
       style="opacity:0.803;fill:none;stroke:#e486f5;stroke-width:2;stroke-miterlimit:4;stroke-opacity:0.8745098"
       d="m 84.722511,213.34531 14.76945,0 0,15.27452 -14.76945,0 z"
       id="rect5520-43-6"
       inkscape:connector-curvature="0" />
    <path
       d="m 124.91806,227.6534 0,-53.05327 20.15662,0 c 6.62551,5e-5 11.82797,2.3469 15.60738,7.04058 3.77931,4.69376 5.66899,11.1654 5.66904,19.41494 -5e-5,8.24959 -1.91306,14.74493 -5.73903,19.48606 -3.77941,4.74114 -8.95853,7.11169 -15.53739,7.11169 l -20.15662,0 m 6.64888,-5.97382 12.31793,0 c 5.17911,1e-5 9.09844,-1.7305 11.75803,-5.19154 2.70617,-3.50842 4.05928,-8.62885 4.05932,-15.36127 -4e-5,-6.73238 -1.35315,-11.8528 -4.05932,-15.36127 -2.65959,-3.5084 -6.57892,-5.26261 -11.75803,-5.26266 l -12.31793,0 0,41.17674"
       style="font-size:72.24357605px;font-style:normal;font-variant:normal;font-weight:normal;font-stretch:normal;line-height:125%;letter-spacing:0px;word-spacing:0px;fill:#000000;fill-opacity:0.9372549;stroke:#205c9e;stroke-width:3.93271661;stroke-linecap:round;stroke-linejoin:round;stroke-miterlimit:0;stroke-opacity:0.9372549;font-family:Denemo;-inkscape-font-specification:Denemo"
       id="path3444"
       inkscape:connector-curvature="0" />
    <path
       d="m 182.02847,174.60013 0,53.05327 -6.78885,0 0,-53.05327 6.78885,0"
       style="font-size:72.24357605px;font-style:normal;font-variant:normal;font-weight:normal;font-stretch:normal;line-height:125%;letter-spacing:0px;word-spacing:0px;fill:#000000;fill-opacity:0.9372549;stroke:#205c9e;stroke-width:3.93271661;stroke-linecap:round;stroke-linejoin:round;stroke-miterlimit:0;stroke-opacity:0.9372549;font-family:Denemo;-inkscape-font-specification:Denemo"
       id="path3446"
       inkscape:connector-curvature="0" />
    <path
       d="m 201.20525,203.47363 0,18.20595 30.86482,0 0,5.97382 -37.5137,0 0,-53.05327 36.18393,0 0,5.90271 -29.53505,0 0,16.99696 28.48522,0 0,5.97383 -28.48522,0"
       style="font-size:72.24357605px;font-style:normal;font-variant:normal;font-weight:normal;font-stretch:normal;line-height:125%;letter-spacing:0px;word-spacing:0px;fill:#000000;fill-opacity:0.9372549;stroke:#205c9e;stroke-width:3.93271661;stroke-linecap:round;stroke-linejoin:round;stroke-miterlimit:0;stroke-opacity:0.9372549;font-family:Denemo;-inkscape-font-specification:Denemo"
       id="path3448"
       inkscape:connector-curvature="0" />
    <path
       d="m 246.97756,203.47363 0,18.20595 30.86482,0 0,5.97382 -37.51369,0 0,-53.05327 36.18392,0 0,5.90271 -29.53505,0 0,16.99696 28.48522,0 0,5.97383 -28.48522,0"
       style="font-size:72.24357605px;font-style:normal;font-variant:normal;font-weight:normal;font-stretch:normal;line-height:125%;letter-spacing:0px;word-spacing:0px;fill:#000000;fill-opacity:0.9372549;stroke:#205c9e;stroke-width:3.93271661;stroke-linecap:round;stroke-linejoin:round;stroke-miterlimit:0;stroke-opacity:0.9372549;font-family:Denemo;-inkscape-font-specification:Denemo"
       id="path3450"
       inkscape:connector-curvature="0" />
    <path
       d="m 293.58973,174.60013 0,53.05327 -6.78886,0 0,-53.05327 6.78886,0"
       style="font-size:72.24357605px;font-style:normal;font-variant:normal;font-weight:normal;font-stretch:normal;line-height:125%;letter-spacing:0px;word-spacing:0px;fill:#000000;fill-opacity:0.9372549;stroke:#205c9e;stroke-width:3.93271661;stroke-linecap:round;stroke-linejoin:round;stroke-miterlimit:0;stroke-opacity:0.9372549;font-family:Denemo;-inkscape-font-specification:Denemo"
       id="path3452"
       inkscape:connector-curvature="0" />
    <path
       d="m 79.0998,241.97031 0,9.77271 -1.698263,0 0,-9.77271 1.698263,0 m 0,-3.93826 0,1.9509 -1.718242,0 0,-1.9509 1.718242,0"
       style="font-size:19.48786354px;font-style:normal;font-variant:normal;font-weight:normal;font-stretch:normal;line-height:125%;letter-spacing:0px;word-spacing:0px;fill:#000000;fill-opacity:1;stroke:none;font-family:Denemo;-inkscape-font-specification:Denemo"
       id="path3382"
       inkscape:connector-curvature="0" />
    <path
       d="m 81.157695,255.69951 0,-13.85683 1.578385,0 0,1.47685 c 0.799179,-1.16689 1.938013,-1.75033 3.416506,-1.75034 1.411882,1e-5 2.530736,0.48014 3.356567,1.44038 0.839131,0.96026 1.258701,2.26086 1.258712,3.9018 -1.1e-5,1.55585 -0.419581,2.80783 -1.258712,3.75593 -0.83915,0.93594 -1.951345,1.40391 -3.336588,1.40391 -1.318656,0 -2.41753,-0.4862 -3.296627,-1.45862 l 0,5.08692 -1.718243,0 m 4.715176,-12.6717 c -0.905744,1e-5 -1.631667,0.34643 -2.177771,1.03925 -0.546112,0.69285 -0.819166,1.61057 -0.819162,2.75314 -4e-6,1.14258 0.27305,2.0603 0.819162,2.75313 0.546104,0.69284 1.272027,1.03926 2.177771,1.03926 0.932374,0 1.678277,-0.34642 2.237712,-1.03926 0.572739,-0.69283 0.859112,-1.59231 0.859122,-2.69844 -1e-5,-1.16688 -0.279723,-2.09674 -0.839142,-2.78959 -0.559436,-0.70499 -1.311999,-1.05748 -2.257692,-1.05749"
       style="font-size:19.48786354px;font-style:normal;font-variant:normal;font-weight:normal;font-stretch:normal;line-height:125%;letter-spacing:0px;word-spacing:0px;fill:#000000;fill-opacity:1;stroke:none;font-family:Denemo;-inkscape-font-specification:Denemo"
       id="path3384"
       inkscape:connector-curvature="0" />
    <path
       d="m 92.466127,244.74167 c 0.07991,-2.11498 1.511784,-3.17247 4.295607,-3.17248 1.318644,1e-5 2.317621,0.23096 2.996934,0.69284 0.679292,0.44975 1.018952,1.10612 1.018962,1.96913 l 0,5.76152 c -1e-5,0.51052 0.30634,0.76578 0.91905,0.76578 0.11987,0 0.24641,-0.0122 0.37962,-0.0365 l 0,1.16689 c -0.47952,0.1094 -0.87245,0.17017 -1.1788,0.18233 -0.54611,0 -0.959025,-0.11547 -1.238731,-0.34642 -0.266402,-0.23095 -0.439558,-0.5956 -0.519468,-1.09396 -1.145501,0.96026 -2.357594,1.44038 -3.636281,1.44038 -1.078899,0 -1.938019,-0.26134 -2.577363,-0.78401 -0.626027,-0.52266 -0.93904,-1.22766 -0.939039,-2.11499 -1e-6,-0.29171 0.02663,-0.55305 0.07991,-0.78399 0.0666,-0.24311 0.133195,-0.44974 0.199795,-0.61992 0.07991,-0.18232 0.213115,-0.35249 0.399592,-0.51051 0.199793,-0.15801 0.36629,-0.28564 0.499489,-0.38289 0.133195,-0.0972 0.35297,-0.19448 0.659325,-0.29172 0.306351,-0.0972 0.539445,-0.16409 0.699284,-0.20057 0.159834,-0.0486 0.446207,-0.1033 0.859122,-0.16409 0.412907,-0.0607 0.712599,-0.10331 0.899081,-0.12762 0.18647,-0.0243 0.526122,-0.0669 1.018957,-0.12763 0.665979,-0.0729 1.125508,-0.1884 1.37859,-0.34642 0.266387,-0.17017 0.399584,-0.41935 0.399591,-0.74754 l 0,-0.40112 c -7e-6,-0.47404 -0.206463,-0.83262 -0.619367,-1.07573 -0.412917,-0.25525 -0.998983,-0.38287 -1.758201,-0.38288 -0.785868,1e-5 -1.385254,0.13978 -1.79816,0.41934 -0.412914,0.27958 -0.652669,0.71717 -0.719265,1.31275 l -1.718243,0 m 3.416506,5.96209 c 0.945694,0 1.711577,-0.22487 2.29765,-0.6746 0.599379,-0.4619 0.899073,-0.95418 0.89908,-1.47685 l 0,-1.75034 c -0.34632,0.14586 -0.865788,0.26742 -1.558406,0.36465 -0.67931,0.0973 -1.272037,0.18841 -1.77818,0.27349 -0.492835,0.0729 -0.945704,0.24918 -1.358611,0.52875 -0.412914,0.27957 -0.619369,0.66853 -0.619367,1.16689 -2e-6,0.49837 0.186473,0.88732 0.559428,1.16689 0.372948,0.26742 0.892417,0.40112 1.558406,0.40112"
       style="font-size:19.48786354px;font-style:normal;font-variant:normal;font-weight:normal;font-stretch:normal;line-height:125%;letter-spacing:0px;word-spacing:0px;fill:#000000;fill-opacity:1;stroke:none;font-family:Denemo;-inkscape-font-specification:Denemo"
       id="path3386"
       inkscape:connector-curvature="0" />
    <path
       d="m 108.84937,243.21013 c -1.1455,0.0243 -2.00462,0.26742 -2.57736,0.7293 -0.57275,0.46191 -0.85913,1.331 -0.85913,2.60728 l 0,5.08692 -1.71824,0 0,-9.79095 1.57839,0 0,1.7868 c 0.49282,-0.7293 0.96568,-1.25197 1.41855,-1.56801 0.45286,-0.32817 0.95235,-0.49227 1.49846,-0.49228 0.14651,1e-5 0.36629,0.0182 0.65933,0.0547 l 0,1.58624"
       style="font-size:19.48786354px;font-style:normal;font-variant:normal;font-weight:normal;font-stretch:normal;line-height:125%;letter-spacing:0px;word-spacing:0px;fill:#000000;fill-opacity:1;stroke:none;font-family:Denemo;-inkscape-font-specification:Denemo"
       id="path3388"
       inkscape:connector-curvature="0" />
    <path
       d="m 114.26383,241.84268 0,1.27628 -1.7582,0 0,6.70963 c -1e-5,0.3525 0.06,0.58953 0.17982,0.71108 0.13319,0.1094 0.38627,0.16409 0.75922,0.16409 0.34631,0 0.61936,-0.0243 0.81916,-0.0729 l 0,1.29452 c -0.5328,0.0851 -0.99899,0.13371 -1.39856,0.14587 -0.666,0 -1.1788,-0.13371 -1.53844,-0.40112 -0.3463,-0.26742 -0.51946,-0.6503 -0.51946,-1.14866 l 0,-7.40247 -1.45851,0 0,-1.27628 1.45851,0 0,-2.68021 1.69826,0 0,2.68021 1.7582,0"
       style="font-size:19.48786354px;font-style:normal;font-variant:normal;font-weight:normal;font-stretch:normal;line-height:125%;letter-spacing:0px;word-spacing:0px;fill:#000000;fill-opacity:1;stroke:none;font-family:Denemo;-inkscape-font-specification:Denemo"
       id="path3390"
       inkscape:connector-curvature="0" />
    <path
       d="m 117.6204,241.97031 0,9.77271 -1.69826,0 0,-9.77271 1.69826,0 m 0,-3.93826 0,1.9509 -1.71824,0 0,-1.9509 1.71824,0"
       style="font-size:19.48786354px;font-style:normal;font-variant:normal;font-weight:normal;font-stretch:normal;line-height:125%;letter-spacing:0px;word-spacing:0px;fill:#000000;fill-opacity:1;stroke:none;font-family:Denemo;-inkscape-font-specification:Denemo"
       id="path3392"
       inkscape:connector-curvature="0" />
    <path
       d="m 120.01795,241.84268 1.57838,0 0,1.38568 c 0.46619,-0.58344 0.95236,-1.00278 1.4585,-1.25805 0.50615,-0.2674 1.1122,-0.40111 1.81815,-0.40112 1.31864,1e-5 2.28432,0.49837 2.89704,1.49508 0.50613,-0.54697 0.99896,-0.92986 1.47848,-1.14866 0.49282,-0.23094 1.09886,-0.34641 1.81814,-0.34642 0.99897,1e-5 1.76485,0.23703 2.29765,0.71107 0.53277,0.4619 0.79917,1.13651 0.79919,2.02383 l 0,7.32954 -1.71825,0 0,-6.7461 c -1e-5,-0.6199 -0.17317,-1.10002 -0.51947,-1.44038 -0.34632,-0.34032 -0.83249,-0.5105 -1.4585,-0.51051 -0.69264,10e-6 -1.28537,0.24919 -1.77819,0.74754 -0.49283,0.49837 -0.73925,1.10005 -0.73924,1.80504 l 0,6.14441 -1.71824,0 0,-6.7461 c 0,-0.6199 -0.17316,-1.10002 -0.51947,-1.44038 -0.34632,-0.34032 -0.83249,-0.5105 -1.45851,-0.51051 -0.69263,10e-6 -1.28536,0.24919 -1.77818,0.74754 -0.49283,0.49837 -0.73924,1.10005 -0.73924,1.80504 l 0,6.14441 -1.71824,0 0,-9.79095"
       style="font-size:19.48786354px;font-style:normal;font-variant:normal;font-weight:normal;font-stretch:normal;line-height:125%;letter-spacing:0px;word-spacing:0px;fill:#000000;fill-opacity:1;stroke:none;font-family:Denemo;-inkscape-font-specification:Denemo"
       id="path3394"
       inkscape:connector-curvature="0" />
    <path
       d="m 145.81156,247.25779 -7.89192,0 c 0.0133,0.89948 0.20645,1.59839 0.5794,2.09676 0.58606,0.85086 1.44519,1.27628 2.57736,1.27628 1.38525,0 2.31763,-0.65637 2.79714,-1.96913 l 1.71825,0 c -0.21313,1.06965 -0.72594,1.90836 -1.53843,2.51611 -0.79919,0.5956 -1.81148,0.8934 -3.03689,0.8934 -1.50513,0 -2.69724,-0.46189 -3.57635,-1.38568 -0.86578,-0.93594 -1.29866,-2.20615 -1.29866,-3.81064 0,-1.60446 0.44621,-2.88683 1.33862,-3.84708 0.89242,-0.9724 2.08454,-1.45861 3.57634,-1.45862 1.0123,1e-5 1.89805,0.23096 2.65729,0.69284 0.77253,0.4619 1.33196,1.08789 1.67829,1.87797 0.27969,0.68069 0.41955,1.71995 0.41956,3.11779 m -7.85197,-1.25806 6.01386,0 c 0.0133,-0.0243 0.0199,-0.0607 0.0199,-0.1094 -1e-5,-0.81439 -0.28638,-1.49507 -0.85912,-2.04205 -0.57276,-0.55913 -1.27203,-0.8387 -2.09786,-0.83871 -0.86578,1e-5 -1.57838,0.2735 -2.13781,0.82047 -0.55943,0.53483 -0.87245,1.25806 -0.93904,2.16969"
       style="font-size:19.48786354px;font-style:normal;font-variant:normal;font-weight:normal;font-stretch:normal;line-height:125%;letter-spacing:0px;word-spacing:0px;fill:#000000;fill-opacity:1;stroke:none;font-family:Denemo;-inkscape-font-specification:Denemo"
       id="path3396"
       inkscape:connector-curvature="0" />
    <path
       d="m 147.38995,241.84268 1.57839,0 0,1.65918 c 0.4795,-0.68069 0.9923,-1.17297 1.53842,-1.47685 0.5461,-0.30387 1.21874,-0.45581 2.01793,-0.45582 1.03893,1e-5 1.86475,0.24312 2.47747,0.7293 0.61269,0.48622 0.91905,1.13044 0.91906,1.93267 l 0,7.40247 -1.69826,0 0,-6.78256 c -1e-5,-0.58344 -0.19981,-1.04533 -0.59938,-1.38569 -0.3996,-0.35248 -0.93905,-0.52873 -1.61836,-0.52874 -0.8791,10e-6 -1.58504,0.30389 -2.11782,0.91164 -0.51948,0.5956 -0.77921,1.39176 -0.77921,2.38847 l 0,5.39688 -1.71824,0 0,-9.79095"
       style="font-size:19.48786354px;font-style:normal;font-variant:normal;font-weight:normal;font-stretch:normal;line-height:125%;letter-spacing:0px;word-spacing:0px;fill:#000000;fill-opacity:1;stroke:none;font-family:Denemo;-inkscape-font-specification:Denemo"
       id="path3398"
       inkscape:connector-curvature="0" />
    <path
       d="m 162.53445,241.84268 0,1.27628 -1.7582,0 0,6.70963 c 0,0.3525 0.0599,0.58953 0.17981,0.71108 0.1332,0.1094 0.38627,0.16409 0.75923,0.16409 0.34631,0 0.61936,-0.0243 0.81916,-0.0729 l 0,1.29452 c -0.53279,0.0851 -0.99898,0.13371 -1.39857,0.14587 -0.66598,0 -1.1788,-0.13371 -1.53842,-0.40112 -0.34632,-0.26742 -0.51948,-0.6503 -0.51947,-1.14866 l 0,-7.40247 -1.45852,0 0,-1.27628 1.45852,0 0,-2.68021 1.69826,0 0,2.68021 1.7582,0"
       style="font-size:19.48786354px;font-style:normal;font-variant:normal;font-weight:normal;font-stretch:normal;line-height:125%;letter-spacing:0px;word-spacing:0px;fill:#000000;fill-opacity:1;stroke:none;font-family:Denemo;-inkscape-font-specification:Denemo"
       id="path3400"
       inkscape:connector-curvature="0" />
    <path
       d="m 168.18867,241.56919 c 1.54508,1e-5 2.73719,0.46798 3.57634,1.40391 0.85245,0.92381 1.27868,2.23047 1.2787,3.92003 -2e-5,1.60448 -0.43291,2.86861 -1.29867,3.7924 -0.86579,0.92379 -2.04459,1.38568 -3.53639,1.38568 -1.53177,0 -2.72388,-0.46189 -3.57634,-1.38568 -0.85247,-0.93594 -1.27869,-2.22439 -1.27869,-3.86533 0,-1.64093 0.42622,-2.92329 1.27869,-3.8471 0.86578,-0.93593 2.05123,-1.4039 3.55636,-1.40391 m 0.0199,1.44038 c -0.95903,1e-5 -1.71159,0.34035 -2.2577,1.02103 -0.54611,0.68069 -0.81916,1.61056 -0.81915,2.7896 -10e-6,1.17905 0.27304,2.10892 0.81915,2.7896 0.54611,0.68069 1.29867,1.02103 2.2577,1.02103 0.94569,0 1.69159,-0.34034 2.23771,-1.02103 0.5461,-0.68068 0.81915,-1.59232 0.81916,-2.73491 -1e-5,-1.20334 -0.2664,-2.14537 -0.79919,-2.82606 -0.53279,-0.69283 -1.28535,-1.03925 -2.25768,-1.03926"
       style="font-size:19.48786354px;font-style:normal;font-variant:normal;font-weight:normal;font-stretch:normal;line-height:125%;letter-spacing:0px;word-spacing:0px;fill:#000000;fill-opacity:1;stroke:none;font-family:Denemo;-inkscape-font-specification:Denemo"
       id="path3402"
       inkscape:connector-curvature="0" />
    <path
       d="m 63.835126,251.63363 0,-13.60158 5.754114,0 c 1.891389,2e-5 3.376535,0.60169 4.455443,1.80503 1.078883,1.20338 1.61833,2.86255 1.618344,4.97753 -1.4e-5,2.11499 -0.546121,3.78024 -1.638324,4.99575 -1.078907,1.21552 -2.557393,1.82327 -4.435463,1.82327 l -5.754114,0 m 1.898058,-1.53155 3.516404,0 c 1.478478,0 2.597333,-0.44366 3.356567,-1.33098 0.772531,-0.89947 1.158802,-2.21223 1.158813,-3.93826 -1.1e-5,-1.72601 -0.386282,-3.03877 -1.158813,-3.93826 -0.759234,-0.89947 -1.878089,-1.3492 -3.356567,-1.34922 l -3.516404,0 0,10.55672"
       style="font-size:19.48786354px;font-style:normal;font-variant:normal;font-weight:normal;font-stretch:normal;line-height:125%;letter-spacing:0px;word-spacing:0px;fill:#ff0000;fill-opacity:1;stroke:none;font-family:Denemo;-inkscape-font-specification:Denemo"
       id="path3405"
       inkscape:connector-curvature="0" />
    <path
       d="m 208.85043,241.84268 1.60416,0 0,1.65917 c 0.48733,-0.68067 1.00852,-1.17296 1.56355,-1.47684 0.55502,-0.30387 1.23864,-0.45581 2.05088,-0.45582 1.0559,1e-5 1.8952,0.24311 2.51791,0.7293 0.62271,0.48622 0.93406,1.13044 0.93407,1.93267 l 0,7.40246 -1.72599,0 0,-6.78255 c -1e-5,-0.58344 -0.20307,-1.04533 -0.60917,-1.38568 -0.40612,-0.35249 -0.95438,-0.52874 -1.64477,-0.52875 -0.89347,10e-6 -1.61094,0.30389 -2.15241,0.91163 -0.52796,0.59562 -0.79194,1.39177 -0.79193,2.38849 l 0,5.39686 -1.7463,0 0,-9.79094"
       style="font-size:19.64631653px;font-style:normal;font-variant:normal;font-weight:normal;font-stretch:normal;line-height:125%;letter-spacing:0px;word-spacing:0px;fill:#000000;fill-opacity:1;stroke:none;font-family:Denemo;-inkscape-font-specification:Denemo"
       id="path3408"
       inkscape:connector-curvature="0" />
    <path
       d="m 223.45029,252.07121 c -1.27249,0 -2.34194,-0.46797 -3.20831,-1.40392 -0.85285,-0.94809 -1.27927,-2.20007 -1.27927,-3.75593 0,-1.59231 0.42642,-2.88075 1.27927,-3.86533 0.85284,-0.98455 1.96965,-1.47683 3.35046,-1.47684 1.35371,1e-5 2.46375,0.56522 3.33015,1.69564 l 0,-1.42215 1.60415,0 0,8.18647 c -1e-5,0.93594 -0.0677,1.71387 -0.20306,2.33379 -0.12184,0.63205 -0.35197,1.2155 -0.69039,1.75033 -0.3249,0.53482 -0.81902,0.92986 -1.48233,1.18512 -0.64979,0.26741 -1.48233,0.40111 -2.49761,0.40112 -1.27249,-1e-5 -2.29455,-0.26133 -3.06617,-0.784 -0.75808,-0.52267 -1.18451,-1.2459 -1.27927,-2.16969 l 1.76661,0 c 0.18951,1.09396 1.06943,1.64702 2.63975,1.65917 1.16419,0 1.96289,-0.2978 2.39608,-0.8934 0.43318,-0.5956 0.64978,-1.49508 0.64979,-2.69843 l 0,-0.51052 c -0.48735,0.61991 -0.995,1.06965 -1.52294,1.34922 -0.51442,0.27957 -1.11005,0.41935 -1.78691,0.41935 m 0.3249,-9.06164 c -0.93408,1e-5 -1.67185,0.34643 -2.21333,1.03927 -0.52796,0.68068 -0.79193,1.60448 -0.79193,2.77136 0,1.17905 0.27074,2.10891 0.81224,2.7896 0.54147,0.68068 1.27925,1.02103 2.21332,1.02103 0.92053,0 1.64476,-0.33427 2.17272,-1.0028 0.52794,-0.66853 0.79192,-1.58624 0.79193,-2.75314 -1e-5,-1.2155 -0.26399,-2.16359 -0.79193,-2.84429 -0.51442,-0.68067 -1.24543,-1.02102 -2.19302,-1.02103"
       style="font-size:19.64631653px;font-style:normal;font-variant:normal;font-weight:normal;font-stretch:normal;line-height:125%;letter-spacing:0px;word-spacing:0px;fill:#000000;fill-opacity:1;stroke:none;font-family:Denemo;-inkscape-font-specification:Denemo"
       id="path3410"
       inkscape:connector-curvature="0" />
    <path
       d="m 240.06042,247.25779 -8.02078,0 c 0.0136,0.89947 0.20982,1.5984 0.58887,2.09675 0.59563,0.85086 1.46878,1.27629 2.61945,1.27629 1.40786,0 2.35546,-0.65638 2.8428,-1.96913 l 1.7463,0 c -0.2166,1.06965 -0.73779,1.90836 -1.56354,2.51611 -0.81224,0.5956 -1.84107,0.8934 -3.08648,0.8934 -1.52971,0 -2.74129,-0.4619 -3.63474,-1.38568 -0.87992,-0.93595 -1.31987,-2.20616 -1.31987,-3.81064 0,-1.60447 0.45349,-2.88683 1.36048,-3.84708 0.907,-0.97241 2.11857,-1.45861 3.63474,-1.45862 1.02882,1e-5 1.92904,0.23096 2.70067,0.69284 0.78514,0.4619 1.35371,1.0879 1.70568,1.87796 0.28427,0.6807 0.42641,1.71996 0.42642,3.1178 m -7.98017,-1.25806 6.11204,0 c 0.0135,-0.0243 0.0203,-0.0607 0.0203,-0.10939 -1e-5,-0.81439 -0.29106,-1.49508 -0.87315,-2.04207 -0.5821,-0.55913 -1.29281,-0.83869 -2.13211,-0.8387 -0.87992,1e-5 -1.60415,0.2735 -2.17271,0.82048 -0.56857,0.53483 -0.8867,1.25806 -0.95438,2.16968"
       style="font-size:19.64631653px;font-style:normal;font-variant:normal;font-weight:normal;font-stretch:normal;line-height:125%;letter-spacing:0px;word-spacing:0px;fill:#000000;fill-opacity:1;stroke:none;font-family:Denemo;-inkscape-font-specification:Denemo"
       id="path3412"
       inkscape:connector-curvature="0" />
    <path
       d="m 245.2181,252.07121 c -1.27251,0 -2.34194,-0.46797 -3.20831,-1.40392 -0.85285,-0.94809 -1.27927,-2.20007 -1.27927,-3.75593 0,-1.59231 0.42642,-2.88075 1.27927,-3.86533 0.85283,-0.98455 1.96965,-1.47683 3.35045,-1.47684 1.35371,1e-5 2.46376,0.56522 3.33014,1.69564 l 0,-1.42215 1.60417,0 0,8.18647 c -10e-6,0.93594 -0.0677,1.71387 -0.20306,2.33379 -0.12185,0.63205 -0.35198,1.2155 -0.6904,1.75033 -0.3249,0.53482 -0.81901,0.92986 -1.48232,1.18512 -0.64979,0.26741 -1.48233,0.40111 -2.49761,0.40112 -1.27251,-1e-5 -2.29456,-0.26133 -3.06617,-0.784 -0.7581,-0.52267 -1.18451,-1.2459 -1.27927,-2.16969 l 1.7666,0 c 0.18952,1.09396 1.06944,1.64702 2.63976,1.65917 1.16418,0 1.96287,-0.2978 2.39608,-0.8934 0.43318,-0.5956 0.64977,-1.49508 0.64979,-2.69843 l 0,-0.51052 c -0.48735,0.61991 -0.995,1.06965 -1.52294,1.34922 -0.51442,0.27957 -1.11006,0.41935 -1.78691,0.41935 m 0.32488,-9.06164 c -0.93406,1e-5 -1.67183,0.34643 -2.21332,1.03927 -0.52796,0.68068 -0.79192,1.60448 -0.79192,2.77136 0,1.17905 0.27074,2.10891 0.81222,2.7896 0.54149,0.68068 1.27927,1.02103 2.21334,1.02103 0.92051,0 1.64476,-0.33427 2.17272,-1.0028 0.52794,-0.66853 0.79191,-1.58624 0.79193,-2.75314 -2e-5,-1.2155 -0.26399,-2.16359 -0.79193,-2.84429 -0.51442,-0.68067 -1.24543,-1.02102 -2.19304,-1.02103"
       style="font-size:19.64631653px;font-style:normal;font-variant:normal;font-weight:normal;font-stretch:normal;line-height:125%;letter-spacing:0px;word-spacing:0px;fill:#000000;fill-opacity:1;stroke:none;font-family:Denemo;-inkscape-font-specification:Denemo"
       id="path3414"
       inkscape:connector-curvature="0" />
    <path
       d="m 252.75154,241.84268 1.60417,0 0,1.65917 c 0.48732,-0.68067 1.00851,-1.17296 1.56354,-1.47684 0.55502,-0.30387 1.23865,-0.45581 2.05088,-0.45582 1.0559,1e-5 1.8952,0.24311 2.51793,0.7293 0.62269,0.48622 0.93405,1.13044 0.93405,1.93267 l 0,7.40246 -1.72598,0 0,-6.78255 c -10e-6,-0.58344 -0.20307,-1.04533 -0.60918,-1.38568 -0.40612,-0.35249 -0.95438,-0.52874 -1.64476,-0.52875 -0.89347,10e-6 -1.61094,0.30389 -2.15242,0.91163 -0.52796,0.59562 -0.79194,1.39177 -0.79192,2.38849 l 0,5.39686 -1.74631,0 0,-9.79094"
       style="font-size:19.64631653px;font-style:normal;font-variant:normal;font-weight:normal;font-stretch:normal;line-height:125%;letter-spacing:0px;word-spacing:0px;fill:#000000;fill-opacity:1;stroke:none;font-family:Denemo;-inkscape-font-specification:Denemo"
       id="path3416"
       inkscape:connector-curvature="0" />
    <path
       d="m 273.24008,247.25779 -8.02078,0 c 0.0136,0.89947 0.20982,1.5984 0.58887,2.09675 0.59563,0.85086 1.46878,1.27629 2.61944,1.27629 1.40787,0 2.35547,-0.65638 2.84281,-1.96913 l 1.7463,0 c -0.2166,1.06965 -0.73779,1.90836 -1.56354,2.51611 -0.81224,0.5956 -1.84107,0.8934 -3.08648,0.8934 -1.52971,0 -2.74129,-0.4619 -3.63474,-1.38568 -0.87992,-0.93595 -1.31987,-2.20616 -1.31987,-3.81064 0,-1.60447 0.45349,-2.88683 1.36048,-3.84708 0.90699,-0.97241 2.11857,-1.45861 3.63474,-1.45862 1.02882,1e-5 1.92904,0.23096 2.70067,0.69284 0.78514,0.4619 1.35371,1.0879 1.70568,1.87796 0.28427,0.6807 0.42641,1.71996 0.42642,3.1178 m -7.98017,-1.25806 6.11204,0 c 0.0135,-0.0243 0.0203,-0.0607 0.0203,-0.10939 -10e-6,-0.81439 -0.29106,-1.49508 -0.87315,-2.04207 -0.5821,-0.55913 -1.29281,-0.83869 -2.13211,-0.8387 -0.87992,1e-5 -1.60416,0.2735 -2.17271,0.82048 -0.56857,0.53483 -0.8867,1.25806 -0.95438,2.16968"
       style="font-size:19.64631653px;font-style:normal;font-variant:normal;font-weight:normal;font-stretch:normal;line-height:125%;letter-spacing:0px;word-spacing:0px;fill:#000000;fill-opacity:1;stroke:none;font-family:Denemo;-inkscape-font-specification:Denemo"
       id="path3418"
       inkscape:connector-curvature="0" />
    <path
       d="m 280.18467,243.21013 c -1.16421,0.0243 -2.03736,0.26742 -2.61945,0.72931 -0.58211,0.4619 -0.87315,1.33098 -0.87315,2.60727 l 0,5.08691 -1.7463,0 0,-9.79094 1.60416,0 0,1.7868 c 0.50088,-0.72929 0.98144,-1.25197 1.44171,-1.56801 0.46026,-0.32818 0.9679,-0.49227 1.52293,-0.49228 0.1489,1e-5 0.37227,0.0182 0.6701,0.0547 l 0,1.58624"
       style="font-size:19.64631653px;font-style:normal;font-variant:normal;font-weight:normal;font-stretch:normal;line-height:125%;letter-spacing:0px;word-spacing:0px;fill:#000000;fill-opacity:1;stroke:none;font-family:Denemo;-inkscape-font-specification:Denemo"
       id="path3420"
       inkscape:connector-curvature="0" />
    <path
       d="m 283.53512,241.97031 0,9.77271 -1.72599,0 0,-9.77271 1.72599,0 m 0,-3.93826 0,1.9509 -1.7463,0 0,-1.9509 1.7463,0"
       style="font-size:19.64631653px;font-style:normal;font-variant:normal;font-weight:normal;font-stretch:normal;line-height:125%;letter-spacing:0px;word-spacing:0px;fill:#000000;fill-opacity:1;stroke:none;font-family:Denemo;-inkscape-font-specification:Denemo"
       id="path3422"
       inkscape:connector-curvature="0" />
    <path
       d="m 285.78906,244.74168 c 0.0812,-2.11498 1.53647,-3.17248 4.36575,-3.17249 1.34017,1e-5 2.35546,0.23096 3.04587,0.69284 0.69038,0.44975 1.03558,1.10612 1.03559,1.96913 l 0,5.76152 c -10e-6,0.51052 0.31134,0.76578 0.93407,0.76578 0.12182,0 0.25042,-0.0122 0.38581,-0.0365 l 0,1.16689 c -0.48735,0.1094 -0.8867,0.17017 -1.19805,0.18233 -0.55503,0 -0.97469,-0.11547 -1.25895,-0.34642 -0.27076,-0.23095 -0.44674,-0.5956 -0.52795,-1.09396 -1.16421,0.96025 -2.39609,1.44038 -3.69566,1.44038 -1.09652,0 -1.96966,-0.26134 -2.61944,-0.784 -0.63625,-0.52267 -0.95438,-1.22767 -0.95438,-2.11499 0,-0.29172 0.0271,-0.55306 0.0813,-0.78401 0.0676,-0.2431 0.13536,-0.44974 0.20304,-0.61991 0.0813,-0.18232 0.2166,-0.35249 0.40612,-0.51051 0.20306,-0.15802 0.37227,-0.28565 0.50765,-0.38289 0.13537,-0.0972 0.35874,-0.19448 0.67009,-0.29172 0.31135,-0.0972 0.54826,-0.16409 0.71071,-0.20057 0.16244,-0.0486 0.45349,-0.10331 0.87314,-0.16409 0.41965,-0.0607 0.72424,-0.10331 0.91376,-0.12763 0.18951,-0.0243 0.53471,-0.0668 1.0356,-0.12762 0.67685,-0.0729 1.14389,-0.18841 1.40109,-0.34642 0.27074,-0.17017 0.40611,-0.41935 0.40612,-0.74754 l 0,-0.40112 c -1e-5,-0.47404 -0.20983,-0.83263 -0.62948,-1.07574 -0.41966,-0.25524 -1.01529,-0.38287 -1.78691,-0.38288 -0.79869,1e-5 -1.40787,0.13979 -1.82751,0.41936 -0.41966,0.27957 -0.66333,0.71716 -0.73101,1.31275 l -1.74631,0 m 3.47229,5.96208 c 0.96114,0 1.73953,-0.22487 2.33517,-0.6746 0.60917,-0.4619 0.91375,-0.95418 0.91376,-1.47686 l 0,-1.75033 c -0.35197,0.14586 -0.87992,0.26742 -1.58385,0.36466 -0.6904,0.0972 -1.29281,0.18841 -1.80722,0.27348 -0.50087,0.073 -0.96114,0.24919 -1.38079,0.52875 -0.41966,0.27957 -0.62948,0.66853 -0.62948,1.16689 0,0.49836 0.18952,0.88732 0.56857,1.16689 0.37903,0.26742 0.90698,0.40112 1.58384,0.40112"
       style="font-size:19.64631653px;font-style:normal;font-variant:normal;font-weight:normal;font-stretch:normal;line-height:125%;letter-spacing:0px;word-spacing:0px;fill:#000000;fill-opacity:1;stroke:none;font-family:Denemo;-inkscape-font-specification:Denemo"
       id="path3424"
       inkscape:connector-curvature="0" />
    <path
       d="m 206.0957,238.03205 0,13.60158 -1.93802,0 0,-13.60158 1.93802,0"
       style="font-size:19.48786354px;font-style:normal;font-variant:normal;font-weight:normal;font-stretch:normal;line-height:125%;letter-spacing:0px;word-spacing:0px;fill:#ff0000;fill-opacity:1;stroke:none;font-family:Denemo;-inkscape-font-specification:Denemo"
       id="path3427"
       inkscape:connector-curvature="0" />
    <path
       d="m 190.67976,238.03205 0,13.60158 -1.51845,0 0,-1.29452 c -0.46619,0.60776 -0.97234,1.04533 -1.51844,1.31275 -0.53279,0.27957 -1.16549,0.41935 -1.89806,0.41935 -1.45185,0 -2.59069,-0.47405 -3.41651,-1.42215 -0.82582,-0.96025 -1.23873,-2.26692 -1.23873,-3.92003 0,-1.55584 0.41958,-2.80174 1.25871,-3.73769 0.83915,-0.94809 1.95134,-1.42214 3.33659,-1.42215 1.47849,1e-5 2.57736,0.50445 3.29662,1.51331 l 0,-5.05045 1.69827,0 m -4.71517,4.99576 c -0.93239,1e-5 -1.68496,0.3525 -2.25769,1.05749 -0.55943,0.69285 -0.83915,1.60448 -0.83915,2.7349 0,1.14258 0.28637,2.0603 0.85912,2.75313 0.57275,0.69284 1.32531,1.03926 2.2577,1.03926 0.90572,0 1.63165,-0.34033 2.17777,-1.02102 0.54609,-0.69284 0.81915,-1.60447 0.81915,-2.73491 0,-1.16688 -0.27306,-2.09675 -0.81915,-2.7896 -0.54612,-0.69282 -1.2787,-1.03924 -2.19775,-1.03925"
       style="font-size:19.48786354px;font-style:normal;font-variant:normal;font-weight:normal;font-stretch:normal;line-height:125%;letter-spacing:0px;word-spacing:0px;fill:#000000;fill-opacity:1;stroke:none;font-family:Denemo;-inkscape-font-specification:Denemo"
       id="path3430"
       inkscape:connector-curvature="0" />
    <path
       d="m 194.77557,241.97031 0,9.77271 -1.69826,0 0,-9.77271 1.69826,0 m 0,-3.93826 0,1.9509 -1.71824,0 0,-1.9509 1.71824,0"
       style="font-size:19.48786354px;font-style:normal;font-variant:normal;font-weight:normal;font-stretch:normal;line-height:125%;letter-spacing:0px;word-spacing:0px;fill:#000000;fill-opacity:1;stroke:none;font-family:Denemo;-inkscape-font-specification:Denemo"
       id="path3432"
       inkscape:connector-curvature="0" />
    <path
       d="m 74.125399,258.90817 0,10.64791 -1.388483,0 0,-10.64791 1.388483,0"
       style="font-size:19.79953003px;font-style:normal;font-variant:normal;font-weight:normal;font-stretch:normal;line-height:125%;letter-spacing:0px;word-spacing:0px;fill:#000000;fill-opacity:1;stroke:none;font-family:Denemo;-inkscape-font-specification:Denemo"
       id="path3308"
       inkscape:connector-curvature="0" />
    <path
       d="m 83.441152,266.13047 -6.377335,0 c 0.01076,0.70416 0.16683,1.2513 0.468209,1.64144 0.473588,0.66609 1.167829,0.99913 2.082724,0.99913 1.119393,0 1.872832,-0.51384 2.260322,-1.54152 l 1.388484,0 c -0.172223,0.83737 -0.586615,1.49394 -1.243177,1.96972 -0.645813,0.46626 -1.463833,0.69939 -2.454064,0.69939 -1.216271,0 -2.179598,-0.36159 -2.889983,-1.08477 -0.699624,-0.7327 -1.049435,-1.72707 -1.049434,-2.98312 -10e-7,-1.25605 0.360574,-2.25995 1.081725,-3.01168 0.721148,-0.76124 1.684474,-1.14186 2.889983,-1.14187 0.818016,1e-5 1.533783,0.18081 2.147305,0.54239 0.624272,0.3616 1.076336,0.85165 1.356193,1.47015 0.226023,0.53288 0.33904,1.34646 0.339048,2.44074 m -6.345045,-0.98486 4.859691,0 c 0.01076,-0.019 0.01614,-0.0475 0.01614,-0.0856 -7e-6,-0.63753 -0.231421,-1.1704 -0.694241,-1.59861 -0.462834,-0.43771 -1.027914,-0.65657 -1.695242,-0.65657 -0.699627,0 -1.27547,0.21411 -1.727531,0.6423 -0.452067,0.41869 -0.705007,0.98487 -0.758822,1.69852"
       style="font-size:19.79953003px;font-style:normal;font-variant:normal;font-weight:normal;font-stretch:normal;line-height:125%;letter-spacing:0px;word-spacing:0px;fill:#000000;fill-opacity:1;stroke:none;font-family:Denemo;-inkscape-font-specification:Denemo"
       id="path3310"
       inkscape:connector-curvature="0" />
    <path
       d="m 87.848779,261.89129 0,0.99914 -1.420774,0 0,5.25258 c -2e-6,0.27595 0.04843,0.46151 0.145307,0.55666 0.107631,0.0856 0.312136,0.12847 0.613516,0.12847 0.279845,0 0.500496,-0.019 0.661951,-0.0571 l 0,1.01341 c -0.430541,0.0666 -0.807261,0.10468 -1.130161,0.11419 -0.538174,0 -0.952566,-0.10467 -1.243176,-0.31401 -0.279851,-0.20935 -0.419776,-0.50908 -0.419774,-0.89923 l 0,-5.79496 -1.178596,0 0,-0.99914 1.178596,0 0,-2.09818 1.372337,0 0,2.09818 1.420774,0"
       style="font-size:19.79953003px;font-style:normal;font-variant:normal;font-weight:normal;font-stretch:normal;line-height:125%;letter-spacing:0px;word-spacing:0px;fill:#000000;fill-opacity:1;stroke:none;font-family:Denemo;-inkscape-font-specification:Denemo"
       id="path3312"
       inkscape:connector-curvature="0" />
    <path
       d="m 92.04652,261.89129 0,0.99914 -1.420773,0 0,5.25258 c -4e-6,0.27595 0.04843,0.46151 0.145306,0.55666 0.107632,0.0856 0.312136,0.12847 0.613516,0.12847 0.279845,0 0.500495,-0.019 0.661951,-0.0571 l 0,1.01341 c -0.430541,0.0666 -0.807261,0.10468 -1.130161,0.11419 -0.538174,0 -0.952566,-0.10467 -1.243177,-0.31401 -0.279851,-0.20935 -0.419775,-0.50908 -0.419774,-0.89923 l 0,-5.79496 -1.178596,0 0,-0.99914 1.178596,0 0,-2.09818 1.372339,0 0,2.09818 1.420773,0"
       style="font-size:19.79953003px;font-style:normal;font-variant:normal;font-weight:normal;font-stretch:normal;line-height:125%;letter-spacing:0px;word-spacing:0px;fill:#000000;fill-opacity:1;stroke:none;font-family:Denemo;-inkscape-font-specification:Denemo"
       id="path3314"
       inkscape:connector-curvature="0" />
    <path
       d="m 97.584306,262.9618 c -0.925659,0.019 -1.619899,0.20934 -2.082724,0.57093 -0.462831,0.36159 -0.694244,1.04196 -0.694241,2.04109 l 0,3.98226 -1.388483,0 0,-7.66479 1.275466,0 0,1.39879 c 0.398245,-0.57093 0.780347,-0.98009 1.146306,-1.2275 0.365953,-0.25692 0.769582,-0.38538 1.210887,-0.38539 0.118395,1e-5 0.295991,0.0143 0.532789,0.0428 l 0,1.24178"
       style="font-size:19.79953003px;font-style:normal;font-variant:normal;font-weight:normal;font-stretch:normal;line-height:125%;letter-spacing:0px;word-spacing:0px;fill:#000000;fill-opacity:1;stroke:none;font-family:Denemo;-inkscape-font-specification:Denemo"
       id="path3316"
       inkscape:connector-curvature="0" />
    <path
       d="m 100.24825,261.99121 0,7.6505 -1.37233,0 0,-7.6505 1.37233,0 m 0,-3.08304 0,1.52725 -1.388479,0 0,-1.52725 1.388479,0"
       style="font-size:19.79953003px;font-style:normal;font-variant:normal;font-weight:normal;font-stretch:normal;line-height:125%;letter-spacing:0px;word-spacing:0px;fill:#000000;fill-opacity:1;stroke:none;font-family:Denemo;-inkscape-font-specification:Denemo"
       id="path3318"
       inkscape:connector-curvature="0" />
    <path
       d="m 108.99894,264.47477 -1.38849,0 c -0.0861,-0.53286 -0.30677,-0.94204 -0.66195,-1.22751 -0.34444,-0.29498 -0.80727,-0.44247 -1.38848,-0.44247 -0.75345,0 -1.34006,0.2712 -1.75983,0.81358 -0.41977,0.54239 -0.62966,1.28936 -0.62966,2.24091 0,0.90398 0.21527,1.61764 0.64581,2.141 0.43054,0.51384 1.02252,0.77076 1.77596,0.77076 1.18398,0 1.88898,-0.61375 2.11502,-1.84126 l 1.38848,0 c -0.0861,0.93252 -0.43593,1.66046 -1.04943,2.18382 -0.61352,0.52335 -1.44231,0.78503 -2.48635,0.78503 -1.18399,0 -2.12041,-0.36159 -2.80926,-1.08477 -0.6781,-0.7327 -1.01715,-1.71756 -1.01715,-2.95458 0,-1.26556 0.34982,-2.27897 1.04944,-3.04022 0.69962,-0.76124 1.63066,-1.14186 2.79311,-1.14187 1.001,1e-5 1.80287,0.24266 2.40563,0.72794 0.60274,0.47579 0.94179,1.16566 1.01715,2.06964"
       style="font-size:19.79953003px;font-style:normal;font-variant:normal;font-weight:normal;font-stretch:normal;line-height:125%;letter-spacing:0px;word-spacing:0px;fill:#000000;fill-opacity:1;stroke:none;font-family:Denemo;-inkscape-font-specification:Denemo"
       id="path3320"
       inkscape:connector-curvature="0" />
    <path
       d="m 109.98379,264.16076 c 0.0645,-1.6557 1.22165,-2.48356 3.47121,-2.48357 1.06557,1e-5 1.87282,0.18081 2.42177,0.54239 0.54893,0.35208 0.82339,0.86593 0.8234,1.54152 l 0,4.51037 c -1e-5,0.39966 0.24755,0.59948 0.74268,0.59948 0.0969,0 0.19911,-0.01 0.30675,-0.0286 l 0,0.91349 c -0.38749,0.0856 -0.70501,0.13323 -0.95256,0.14274 -0.44131,0 -0.77497,-0.0904 -1.001,-0.2712 -0.21527,-0.18079 -0.3552,-0.46625 -0.41977,-0.8564 -0.92567,0.75174 -1.90513,1.1276 -2.93842,1.1276 -0.87184,0 -1.56608,-0.20458 -2.08273,-0.61375 -0.50588,-0.40917 -0.75882,-0.96107 -0.75882,-1.65571 0,-0.22837 0.0216,-0.43295 0.0645,-0.61375 0.0539,-0.19031 0.10763,-0.35208 0.16145,-0.4853 0.0645,-0.14273 0.17222,-0.27594 0.3229,-0.39965 0.16146,-0.1237 0.29599,-0.22361 0.40363,-0.29974 0.10763,-0.0761 0.28523,-0.15224 0.53279,-0.22837 0.24756,-0.0761 0.43592,-0.12846 0.56508,-0.15701 0.12916,-0.0381 0.36057,-0.0809 0.69425,-0.12846 0.33365,-0.0476 0.57584,-0.0809 0.72652,-0.0999 0.15069,-0.019 0.42516,-0.0523 0.82341,-0.0999 0.53816,-0.0571 0.9095,-0.14748 1.11401,-0.27119 0.21527,-0.13321 0.3229,-0.32828 0.32291,-0.58521 l 0,-0.31401 c -1e-5,-0.3711 -0.16685,-0.65181 -0.5005,-0.84212 -0.33367,-0.19983 -0.80727,-0.29974 -1.42078,-0.29975 -0.63504,1e-5 -1.1194,0.10944 -1.45306,0.32829 -0.33367,0.21887 -0.52741,0.56143 -0.58122,1.02769 l -1.38849,0 m 2.76083,4.66737 c 0.76419,0 1.38309,-0.17603 1.85669,-0.52812 0.48434,-0.36158 0.72652,-0.74696 0.72653,-1.15613 l 0,-1.37024 c -0.27985,0.11419 -0.69963,0.20935 -1.25933,0.28546 -0.54894,0.0761 -1.02791,0.1475 -1.43691,0.21411 -0.39825,0.0571 -0.76421,0.19507 -1.09788,0.41392 -0.33366,0.21886 -0.5005,0.52336 -0.5005,0.9135 0,0.39013 0.1507,0.69463 0.45207,0.91349 0.30137,0.20934 0.72115,0.31401 1.25933,0.31401"
       style="font-size:19.79953003px;font-style:normal;font-variant:normal;font-weight:normal;font-stretch:normal;line-height:125%;letter-spacing:0px;word-spacing:0px;fill:#000000;fill-opacity:1;stroke:none;font-family:Denemo;-inkscape-font-specification:Denemo"
       id="path3322"
       inkscape:connector-curvature="0" />
    <path
       d="m 139.33667,258.79182 0,10.6479 -1.38692,0 0,-10.6479 1.38692,0"
       style="font-size:19.78834343px;font-style:normal;font-variant:normal;font-weight:normal;font-stretch:normal;line-height:125%;letter-spacing:0px;word-spacing:0px;fill:#000000;fill-opacity:1;stroke:none;font-family:Denemo;-inkscape-font-specification:Denemo"
       id="path3325"
       inkscape:connector-curvature="0" />
    <path
       d="m 148.6419,266.01412 -6.37013,0 c 0.0108,0.70416 0.16664,1.2513 0.46768,1.64143 0.47305,0.6661 1.1665,0.99914 2.08037,0.99914 1.11812,0 1.87071,-0.51384 2.25776,-1.54152 l 1.38692,0 c -0.17203,0.83737 -0.58595,1.49394 -1.24178,1.96972 -0.64508,0.46626 -1.46218,0.69939 -2.45129,0.69939 -1.21489,0 -2.17713,-0.36159 -2.88671,-1.08477 -0.69884,-0.7327 -1.04825,-1.72707 -1.04825,-2.98313 0,-1.25605 0.36016,-2.25994 1.0805,-3.01167 0.72034,-0.76124 1.68258,-1.14186 2.88672,-1.14187 0.81709,1e-5 1.53205,0.18081 2.14488,0.54239 0.62356,0.3616 1.07512,0.85165 1.35466,1.47015 0.22577,0.53288 0.33866,1.34646 0.33867,2.44074 m -6.33788,-0.98485 4.8542,0 c 0.0108,-0.0191 0.0161,-0.0476 0.0161,-0.0856 -1e-5,-0.63754 -0.23116,-1.17041 -0.69345,-1.59861 -0.46232,-0.43771 -1.02676,-0.65656 -1.69333,-0.65657 -0.69885,10e-6 -1.27404,0.21411 -1.72558,0.64229 -0.45156,0.4187 -0.70421,0.98487 -0.75797,1.69854"
       style="font-size:19.78834343px;font-style:normal;font-variant:normal;font-weight:normal;font-stretch:normal;line-height:125%;letter-spacing:0px;word-spacing:0px;fill:#000000;fill-opacity:1;stroke:none;font-family:Denemo;-inkscape-font-specification:Denemo"
       id="path3327"
       inkscape:connector-curvature="0" />
    <path
       d="m 153.04454,261.77495 0,0.99913 -1.41916,0 0,5.25258 c -1e-5,0.27595 0.0484,0.46151 0.14514,0.55666 0.10751,0.0856 0.31178,0.12846 0.61282,0.12846 0.27953,0 0.49993,-0.0191 0.6612,-0.0571 l 0,1.01341 c -0.43005,0.0666 -0.80634,0.10467 -1.12888,0.11418 -0.53756,0 -0.95149,-0.10467 -1.24177,-0.31401 -0.27954,-0.20934 -0.4193,-0.50908 -0.4193,-0.89922 l 0,-5.79497 -1.17727,0 0,-0.99913 1.17727,0 0,-2.09818 1.37079,0 0,2.09818 1.41916,0"
       style="font-size:19.78834343px;font-style:normal;font-variant:normal;font-weight:normal;font-stretch:normal;line-height:125%;letter-spacing:0px;word-spacing:0px;fill:#000000;fill-opacity:1;stroke:none;font-family:Denemo;-inkscape-font-specification:Denemo"
       id="path3329"
       inkscape:connector-curvature="0" />
    <path
       d="m 157.23754,261.77495 0,0.99913 -1.41917,0 0,5.25258 c 0,0.27595 0.0484,0.46151 0.14514,0.55666 0.10751,0.0856 0.31179,0.12846 0.61283,0.12846 0.27953,0 0.49993,-0.0191 0.6612,-0.0571 l 0,1.01341 c -0.43005,0.0666 -0.80635,0.10467 -1.12889,0.11418 -0.53756,0 -0.95149,-0.10467 -1.24177,-0.31401 -0.27953,-0.20934 -0.4193,-0.50908 -0.41929,-0.89922 l 0,-5.79497 -1.17727,0 0,-0.99913 1.17727,0 0,-2.09818 1.37078,0 0,2.09818 1.41917,0"
       style="font-size:19.78834343px;font-style:normal;font-variant:normal;font-weight:normal;font-stretch:normal;line-height:125%;letter-spacing:0px;word-spacing:0px;fill:#000000;fill-opacity:1;stroke:none;font-family:Denemo;-inkscape-font-specification:Denemo"
       id="path3331"
       inkscape:connector-curvature="0" />
    <path
       d="m 162.76908,262.84544 c -0.92462,0.0191 -1.61808,0.20935 -2.08038,0.57094 -0.46231,0.36159 -0.69346,1.04195 -0.69346,2.04108 l 0,3.98226 -1.38691,0 0,-7.66477 1.27403,0 0,1.39878 c 0.39779,-0.57093 0.77946,-0.9801 1.145,-1.22751 0.36554,-0.25691 0.76872,-0.38537 1.20952,-0.38538 0.11826,1e-5 0.29566,0.0143 0.5322,0.0428 l 0,1.24179"
       style="font-size:19.78834343px;font-style:normal;font-variant:normal;font-weight:normal;font-stretch:normal;line-height:125%;letter-spacing:0px;word-spacing:0px;fill:#000000;fill-opacity:1;stroke:none;font-family:Denemo;-inkscape-font-specification:Denemo"
       id="path3333"
       inkscape:connector-curvature="0" />
    <path
       d="m 167.05884,261.56084 c 1.24713,1e-5 2.20937,0.36636 2.88671,1.09905 0.68808,0.72319 1.03211,1.74611 1.03212,3.06877 -1e-5,1.25605 -0.34943,2.24567 -1.04824,2.96885 -0.69885,0.72318 -1.65034,1.08477 -2.85447,1.08477 -1.2364,0 -2.19864,-0.36159 -2.88672,-1.08477 -0.68808,-0.7327 -1.03212,-1.74135 -1.03212,-3.02595 0,-1.28459 0.34404,-2.28848 1.03212,-3.01167 0.69883,-0.73269 1.6557,-1.09904 2.8706,-1.09905 m 0.0161,1.1276 c -0.77409,10e-6 -1.38154,0.26644 -1.82234,0.7993 -0.4408,0.53288 -0.6612,1.26082 -0.6612,2.18382 0,0.92301 0.2204,1.65095 0.6612,2.18382 0.4408,0.53287 1.04825,0.79931 1.82234,0.79931 0.76334,0 1.36541,-0.26644 1.80622,-0.79931 0.4408,-0.53287 0.66119,-1.24654 0.6612,-2.141 -1e-5,-0.94203 -0.21503,-1.67948 -0.64508,-2.21236 -0.43005,-0.54239 -1.0375,-0.81357 -1.82234,-0.81358"
       style="font-size:19.78834343px;font-style:normal;font-variant:normal;font-weight:normal;font-stretch:normal;line-height:125%;letter-spacing:0px;word-spacing:0px;fill:#000000;fill-opacity:1;stroke:none;font-family:Denemo;-inkscape-font-specification:Denemo"
       id="path3335"
       inkscape:connector-curvature="0" />
    <path
       d="m 172.4936,261.77495 1.27403,0 0,1.29887 c 0.38705,-0.53287 0.80096,-0.91825 1.24177,-1.15615 0.4408,-0.23787 0.98374,-0.35682 1.62882,-0.35683 0.83859,1e-5 1.50517,0.19032 1.99974,0.57094 0.49455,0.38062 0.74183,0.88495 0.74184,1.51297 l 0,5.79497 -1.37079,0 0,-5.30968 c -1e-5,-0.45674 -0.16128,-0.81833 -0.48381,-1.08477 -0.32255,-0.27595 -0.75797,-0.41392 -1.30628,-0.41393 -0.70959,10e-6 -1.2794,0.2379 -1.70945,0.71367 -0.4193,0.46627 -0.62895,1.08953 -0.62895,1.86981 l 0,4.2249 -1.38692,0 0,-7.66477"
       style="font-size:19.78834343px;font-style:normal;font-variant:normal;font-weight:normal;font-stretch:normal;line-height:125%;letter-spacing:0px;word-spacing:0px;fill:#000000;fill-opacity:1;stroke:none;font-family:Denemo;-inkscape-font-specification:Denemo"
       id="path3337"
       inkscape:connector-curvature="0" />
    <path
       d="m 182.84708,261.87486 0,7.6505 -1.37078,0 0,-7.6505 1.37078,0 m 0,-3.08304 0,1.52724 -1.38691,0 0,-1.52724 1.38691,0"
       style="font-size:19.78834343px;font-style:normal;font-variant:normal;font-weight:normal;font-stretch:normal;line-height:125%;letter-spacing:0px;word-spacing:0px;fill:#000000;fill-opacity:1;stroke:none;font-family:Denemo;-inkscape-font-specification:Denemo"
       id="path3339"
       inkscape:connector-curvature="0" />
    <path
       d="m 191.58787,264.35841 -1.38692,0 c -0.086,-0.53286 -0.30641,-0.94203 -0.66119,-1.2275 -0.34405,-0.29497 -0.80636,-0.44246 -1.38692,-0.44247 -0.75259,10e-6 -1.33854,0.27119 -1.75783,0.81358 -0.4193,0.54239 -0.62895,1.28936 -0.62895,2.24091 0,0.90398 0.21502,1.61764 0.64507,2.141 0.43005,0.51384 1.02137,0.77076 1.77396,0.77076 1.18264,0 1.88685,-0.61375 2.11263,-1.84126 l 1.38691,0 c -0.086,0.93253 -0.43543,1.66047 -1.04824,2.18382 -0.61283,0.52335 -1.44068,0.78503 -2.48355,0.78503 -1.18264,0 -2.11801,-0.36159 -2.80609,-1.08477 -0.67733,-0.7327 -1.01599,-1.71756 -1.01599,-2.95458 0,-1.26556 0.34941,-2.27897 1.04825,-3.04022 0.69883,-0.76124 1.62882,-1.14186 2.78996,-1.14187 0.99986,1e-5 1.80083,0.24266 2.40291,0.72794 0.60206,0.47579 0.94072,1.16566 1.01599,2.06963"
       style="font-size:19.78834343px;font-style:normal;font-variant:normal;font-weight:normal;font-stretch:normal;line-height:125%;letter-spacing:0px;word-spacing:0px;fill:#000000;fill-opacity:1;stroke:none;font-family:Denemo;-inkscape-font-specification:Denemo"
       id="path3341"
       inkscape:connector-curvature="0" />
    <path
       d="m 192.57161,264.0444 c 0.0645,-1.6557 1.22027,-2.48355 3.46729,-2.48356 1.06437,1e-5 1.87071,0.18081 2.41903,0.54239 0.54832,0.35208 0.82247,0.86592 0.82248,1.54152 l 0,4.51037 c -1e-5,0.39965 0.24727,0.59949 0.74183,0.59948 0.0968,1e-5 0.1989,-0.01 0.30642,-0.0285 l 0,0.91349 c -0.38706,0.0856 -0.70422,0.13322 -0.95149,0.14273 -0.44081,0 -0.77409,-0.0904 -0.99987,-0.27119 -0.21503,-0.1808 -0.3548,-0.46626 -0.4193,-0.8564 -0.92462,0.75172 -1.90298,1.12759 -2.9351,1.12759 -0.87086,0 -1.56431,-0.20458 -2.08036,-0.61375 -0.50532,-0.40917 -0.75797,-0.96107 -0.75797,-1.65571 0,-0.22837 0.0215,-0.43296 0.0645,-0.61375 0.0538,-0.19031 0.10752,-0.35208 0.16128,-0.48529 0.0645,-0.14273 0.17201,-0.27596 0.32253,-0.39966 0.16127,-0.12369 0.29566,-0.22361 0.40317,-0.29974 0.10752,-0.0761 0.28491,-0.15224 0.53219,-0.22837 0.24728,-0.0761 0.43543,-0.12845 0.56444,-0.15701 0.12901,-0.038 0.36017,-0.0809 0.69347,-0.12846 0.33328,-0.0476 0.57518,-0.0809 0.7257,-0.0999 0.15052,-0.0191 0.42468,-0.0523 0.82247,-0.0999 0.53757,-0.0571 0.90848,-0.14749 1.11277,-0.2712 0.21501,-0.13321 0.32252,-0.32828 0.32253,-0.58521 l 0,-0.31401 c -1e-5,-0.3711 -0.16665,-0.65181 -0.49993,-0.84213 -0.33329,-0.19981 -0.80636,-0.29973 -1.41917,-0.29973 -0.63433,0 -1.11813,0.10943 -1.45142,0.32828 -0.3333,0.21887 -0.52682,0.56143 -0.58057,1.02768 l -1.38692,0 m 2.75771,4.66738 c 0.76333,0 1.38153,-0.17603 1.85459,-0.52811 0.4838,-0.36159 0.7257,-0.74697 0.72571,-1.15614 l 0,-1.37024 c -0.27954,0.11419 -0.69884,0.20935 -1.2579,0.28547 -0.54832,0.0761 -1.02675,0.14749 -1.43529,0.2141 -0.39781,0.0571 -0.76335,0.19507 -1.09663,0.41392 -0.3333,0.21886 -0.49994,0.52336 -0.49994,0.9135 0,0.39014 0.15052,0.69463 0.45155,0.91349 0.30104,0.20934 0.72033,0.31401 1.25791,0.31401"
       style="font-size:19.78834343px;font-style:normal;font-variant:normal;font-weight:normal;font-stretch:normal;line-height:125%;letter-spacing:0px;word-spacing:0px;fill:#000000;fill-opacity:1;stroke:none;font-family:Denemo;-inkscape-font-specification:Denemo"
       id="path3343"
       inkscape:connector-curvature="0" />
    <path
       d="m 223.53484,261.77492 1.26101,0 0,1.29887 c 0.38309,-0.53286 0.79279,-0.91824 1.22909,-1.15614 0.43629,-0.23788 0.97369,-0.35682 1.61217,-0.35683 0.83004,1e-5 1.48981,0.19032 1.97932,0.57093 0.48949,0.38063 0.73425,0.88496 0.73426,1.51298 l 0,5.79497 -1.35679,0 0,-5.30968 c -1e-5,-0.45675 -0.15962,-0.81833 -0.47887,-1.08477 -0.31925,-0.27595 -0.75022,-0.41392 -1.29293,-0.41393 -0.70234,10e-6 -1.26634,0.23789 -1.69199,0.71367 -0.41502,0.46626 -0.62252,1.08953 -0.62252,1.8698 l 0,4.22491 -1.37275,0 0,-7.66478"
       style="font-size:19.687006px;font-style:normal;font-variant:normal;font-weight:normal;font-stretch:normal;line-height:125%;letter-spacing:0px;word-spacing:0px;fill:#000000;fill-opacity:1;stroke:none;font-family:Denemo;-inkscape-font-specification:Denemo"
       id="path3346"
       inkscape:connector-curvature="0" />
    <path
       d="m 235.53839,261.77492 0,0.99913 -1.42063,0 0,6.66565 -1.35679,0 0,-6.66565 -1.14927,0 0,-0.99913 1.14927,0 0,-1.29888 c 0,-0.54237 0.17559,-0.96581 0.52675,-1.27032 0.36181,-0.314 0.85663,-0.47101 1.48448,-0.47102 0.2554,1e-5 0.51079,0.0286 0.76619,0.0856 l 0,0.99914 c -0.2022,-0.01 -0.36181,-0.0143 -0.47886,-0.0143 -0.62786,10e-6 -0.94178,0.25693 -0.94177,0.77076 l 0,1.19896 1.42063,0"
       style="font-size:19.687006px;font-style:normal;font-variant:normal;font-weight:normal;font-stretch:normal;line-height:125%;letter-spacing:0px;word-spacing:0px;fill:#000000;fill-opacity:1;stroke:none;font-family:Denemo;-inkscape-font-specification:Denemo"
       id="path3348"
       inkscape:connector-curvature="0" />
    <path
       d="m 239.83221,261.56082 c 1.2344,1e-5 2.18681,0.36636 2.85723,1.09905 0.68104,0.72318 1.02157,1.74611 1.02158,3.06876 -1e-5,1.25606 -0.34586,2.24567 -1.03755,2.96885 -0.69169,0.72318 -1.63346,1.08478 -2.8253,1.08478 -1.22376,0 -2.17617,-0.3616 -2.85723,-1.08478 -0.68105,-0.7327 -1.02158,-1.74134 -1.02158,-3.02594 0,-1.2846 0.34053,-2.28849 1.02158,-3.01167 0.6917,-0.73269 1.63878,-1.09904 2.84127,-1.09905 m 0.0159,1.12759 c -0.76618,1e-5 -1.36742,0.26645 -1.80372,0.79931 -0.4363,0.53288 -0.65445,1.26081 -0.65445,2.18382 0,0.92301 0.21815,1.65095 0.65445,2.18381 0.4363,0.53288 1.03754,0.79931 1.80372,0.79931 0.75555,0 1.35146,-0.26643 1.78777,-0.79931 0.43629,-0.53286 0.65444,-1.24653 0.65445,-2.14099 -1e-5,-0.94204 -0.21284,-1.67949 -0.63849,-2.21237 -0.42567,-0.54237 -1.0269,-0.81357 -1.80373,-0.81358"
       style="font-size:19.687006px;font-style:normal;font-variant:normal;font-weight:normal;font-stretch:normal;line-height:125%;letter-spacing:0px;word-spacing:0px;fill:#000000;fill-opacity:1;stroke:none;font-family:Denemo;-inkscape-font-specification:Denemo"
       id="path3350"
       inkscape:connector-curvature="0" />
    <path
       d="m 249.37759,262.84542 c -0.91517,0.019 -1.60154,0.20935 -2.05912,0.57094 -0.45759,0.36159 -0.68638,1.04195 -0.68638,2.04108 l 0,3.98226 -1.37274,0 0,-7.66478 1.26101,0 0,1.39879 c 0.39373,-0.57093 0.7715,-0.9801 1.13331,-1.22751 0.36181,-0.25691 0.76086,-0.38537 1.19717,-0.38538 0.11705,1e-5 0.29263,0.0143 0.52675,0.0428 l 0,1.24177"
       style="font-size:19.687006px;font-style:normal;font-variant:normal;font-weight:normal;font-stretch:normal;line-height:125%;letter-spacing:0px;word-spacing:0px;fill:#000000;fill-opacity:1;stroke:none;font-family:Denemo;-inkscape-font-specification:Denemo"
       id="path3352"
       inkscape:connector-curvature="0" />
    <path
       d="m 250.54282,261.77492 1.26101,0 0,1.08477 c 0.37245,-0.45674 0.76087,-0.78502 1.16524,-0.98486 0.40437,-0.20933 0.88856,-0.314 1.45256,-0.31401 1.0535,1e-5 1.825,0.39015 2.31452,1.17041 0.40436,-0.42819 0.7981,-0.72793 1.18119,-0.89921 0.39373,-0.1808 0.87792,-0.27119 1.45256,-0.2712 0.7981,1e-5 1.40998,0.18556 1.83565,0.55666 0.42564,0.36159 0.63847,0.88971 0.63849,1.58434 l 0,5.73788 -1.37275,0 0,-5.28113 c -1e-5,-0.4853 -0.13835,-0.86116 -0.41502,-1.1276 -0.27668,-0.26642 -0.6651,-0.39964 -1.16524,-0.39965 -0.55335,10e-6 -1.0269,0.19508 -1.42062,0.58521 -0.39374,0.39014 -0.59061,0.86116 -0.59061,1.41305 l 0,4.81012 -1.37274,0 0,-5.28113 c -1e-5,-0.4853 -0.13835,-0.86116 -0.41502,-1.1276 -0.27668,-0.26642 -0.66509,-0.39964 -1.16524,-0.39965 -0.55336,10e-6 -1.0269,0.19508 -1.42063,0.58521 -0.39374,0.39014 -0.5906,0.86116 -0.5906,1.41305 l 0,4.81012 -1.37275,0 0,-7.66478"
       style="font-size:19.687006px;font-style:normal;font-variant:normal;font-weight:normal;font-stretch:normal;line-height:125%;letter-spacing:0px;word-spacing:0px;fill:#000000;fill-opacity:1;stroke:none;font-family:Denemo;-inkscape-font-specification:Denemo"
       id="path3354"
       inkscape:connector-curvature="0" />
    <path
       d="m 263.74353,264.04438 c 0.0639,-1.6557 1.20781,-2.48355 3.43187,-2.48356 1.0535,1e-5 1.85161,0.1808 2.39433,0.54239 0.5427,0.35208 0.81406,0.86592 0.81407,1.54152 l 0,4.51037 c -1e-5,0.39965 0.24474,0.59948 0.73426,0.59948 0.0958,0 0.19685,-0.01 0.30327,-0.0286 l 0,0.91348 c -0.38309,0.0856 -0.69701,0.13322 -0.94176,0.14274 -0.4363,0 -0.76619,-0.0904 -0.98965,-0.2712 -0.21284,-0.18079 -0.35118,-0.46625 -0.41502,-0.85639 -0.91517,0.75173 -1.88354,1.12759 -2.90512,1.12759 -0.86195,0 -1.54833,-0.20459 -2.05912,-0.61375 -0.50014,-0.40917 -0.75022,-0.96107 -0.75022,-1.65571 0,-0.22837 0.0213,-0.43295 0.0639,-0.61375 0.0532,-0.19031 0.10641,-0.35208 0.15962,-0.4853 0.0639,-0.14273 0.17027,-0.27594 0.31925,-0.39965 0.15961,-0.1237 0.29264,-0.22361 0.39905,-0.29974 0.10641,-0.0761 0.282,-0.15224 0.52675,-0.22837 0.24475,-0.0761 0.43098,-0.12846 0.55868,-0.15701 0.12769,-0.0381 0.35648,-0.0809 0.68637,-0.12846 0.32988,-0.0476 0.56932,-0.0809 0.7183,-0.0999 0.14898,-0.019 0.42033,-0.0523 0.81407,-0.0999 0.53206,-0.0571 0.89919,-0.14749 1.10139,-0.2712 0.21282,-0.13321 0.31924,-0.32828 0.31925,-0.58521 l 0,-0.31401 c -10e-6,-0.3711 -0.16496,-0.65181 -0.49484,-0.84212 -0.32988,-0.19982 -0.79811,-0.29974 -1.40467,-0.29974 -0.62784,0 -1.10671,0.10943 -1.43659,0.32828 -0.32989,0.21887 -0.52143,0.56142 -0.57463,1.02768 l -1.37276,0 m 2.72953,4.66738 c 0.75555,0 1.36743,-0.17603 1.83565,-0.52812 0.47886,-0.36158 0.7183,-0.74696 0.71831,-1.15613 l 0,-1.37025 c -0.2767,0.1142 -0.69171,0.20935 -1.24506,0.28548 -0.54272,0.0761 -1.01626,0.14749 -1.42063,0.21409 -0.39373,0.0571 -0.75554,0.19507 -1.08543,0.41393 -0.32988,0.21886 -0.49482,0.52336 -0.49482,0.91349 0,0.39014 0.14897,0.69464 0.44693,0.9135 0.29797,0.20934 0.71298,0.31401 1.24505,0.31401"
       style="font-size:19.687006px;font-style:normal;font-variant:normal;font-weight:normal;font-stretch:normal;line-height:125%;letter-spacing:0px;word-spacing:0px;fill:#000000;fill-opacity:1;stroke:none;font-family:Denemo;-inkscape-font-specification:Denemo"
       id="path3356"
       inkscape:connector-curvature="0" />
    <path
       d="m 275.5715,261.77492 0,0.99913 -1.40467,0 0,5.25259 c -1e-5,0.27595 0.0479,0.4615 0.14366,0.55666 0.10641,0.0856 0.3086,0.12846 0.60656,0.12846 0.27668,0 0.49483,-0.019 0.65445,-0.0571 l 0,1.01341 c -0.42566,0.0666 -0.79811,0.10467 -1.11735,0.11419 -0.53208,0 -0.94178,-0.10468 -1.22909,-0.31401 -0.27668,-0.20935 -0.41502,-0.50909 -0.41502,-0.89923 l 0,-5.79497 -1.16524,0 0,-0.99913 1.16524,0 0,-2.09818 1.35679,0 0,2.09818 1.40467,0"
       style="font-size:19.687006px;font-style:normal;font-variant:normal;font-weight:normal;font-stretch:normal;line-height:125%;letter-spacing:0px;word-spacing:0px;fill:#000000;fill-opacity:1;stroke:none;font-family:Denemo;-inkscape-font-specification:Denemo"
       id="path3358"
       inkscape:connector-curvature="0" />
    <path
       d="m 278.25314,261.87483 0,7.65051 -1.35678,0 0,-7.65051 1.35678,0 m 0,-3.08304 0,1.52725 -1.37275,0 0,-1.52725 1.37275,0"
       style="font-size:19.687006px;font-style:normal;font-variant:normal;font-weight:normal;font-stretch:normal;line-height:125%;letter-spacing:0px;word-spacing:0px;fill:#000000;fill-opacity:1;stroke:none;font-family:Denemo;-inkscape-font-specification:Denemo"
       id="path3360"
       inkscape:connector-curvature="0" />
    <path
       d="m 286.90464,264.35839 -1.37275,0 c -0.0851,-0.53286 -0.30329,-0.94203 -0.65445,-1.22751 -0.34053,-0.29497 -0.79811,-0.44246 -1.37274,-0.44247 -0.74491,1e-5 -1.32487,0.27121 -1.73988,0.81358 -0.41502,0.54239 -0.62252,1.28937 -0.62252,2.24092 0,0.90397 0.21282,1.61764 0.63848,2.141 0.42565,0.51384 1.01094,0.77075 1.75584,0.77075 1.17055,0 1.86756,-0.61375 2.09104,-1.84125 l 1.37275,0 c -0.0851,0.93252 -0.43099,1.66046 -1.03754,2.18381 -0.60657,0.52336 -1.42596,0.78504 -2.45817,0.78504 -1.17056,0 -2.09637,-0.3616 -2.77742,-1.08478 -0.67041,-0.7327 -1.00562,-1.71755 -1.00562,-2.95457 0,-1.26557 0.34585,-2.27897 1.03755,-3.04022 0.69168,-0.76124 1.61217,-1.14186 2.76145,-1.14187 0.98964,1e-5 1.78243,0.24265 2.37836,0.72794 0.59591,0.47579 0.93112,1.16566 1.00562,2.06963"
       style="font-size:19.687006px;font-style:normal;font-variant:normal;font-weight:normal;font-stretch:normal;line-height:125%;letter-spacing:0px;word-spacing:0px;fill:#000000;fill-opacity:1;stroke:none;font-family:Denemo;-inkscape-font-specification:Denemo"
       id="path3362"
       inkscape:connector-curvature="0" />
    <path
       d="m 287.87833,264.04438 c 0.0639,-1.6557 1.2078,-2.48355 3.43186,-2.48356 1.0535,1e-5 1.85161,0.1808 2.39433,0.54239 0.5427,0.35208 0.81406,0.86592 0.81407,1.54152 l 0,4.51037 c -1e-5,0.39965 0.24475,0.59948 0.73426,0.59948 0.0958,0 0.19686,-0.01 0.30328,-0.0286 l 0,0.91348 c -0.3831,0.0856 -0.69702,0.13322 -0.94177,0.14274 -0.4363,0 -0.76619,-0.0904 -0.98965,-0.2712 -0.21284,-0.18079 -0.35118,-0.46625 -0.41502,-0.85639 -0.91517,0.75173 -1.88354,1.12759 -2.90511,1.12759 -0.86197,0 -1.54834,-0.20459 -2.05912,-0.61375 -0.50015,-0.40917 -0.75023,-0.96107 -0.75022,-1.65571 -1e-5,-0.22837 0.0213,-0.43295 0.0639,-0.61375 0.0532,-0.19031 0.10641,-0.35208 0.15961,-0.4853 0.0639,-0.14273 0.17027,-0.27594 0.31925,-0.39965 0.15962,-0.1237 0.29264,-0.22361 0.39906,-0.29974 0.1064,-0.0761 0.282,-0.15224 0.52675,-0.22837 0.24475,-0.0761 0.43097,-0.12846 0.55868,-0.15701 0.12769,-0.0381 0.35647,-0.0809 0.68637,-0.12846 0.32988,-0.0476 0.5693,-0.0809 0.71829,-0.0999 0.14898,-0.019 0.42034,-0.0523 0.81407,-0.0999 0.53207,-0.0571 0.8992,-0.14749 1.10139,-0.2712 0.21282,-0.13321 0.31924,-0.32828 0.31925,-0.58521 l 0,-0.31401 c -10e-6,-0.3711 -0.16495,-0.65181 -0.49483,-0.84212 -0.32989,-0.19982 -0.79812,-0.29974 -1.40467,-0.29974 -0.62785,0 -1.10671,0.10943 -1.4366,0.32828 -0.32988,0.21887 -0.52143,0.56142 -0.57464,1.02768 l -1.37274,0 m 2.72953,4.66738 c 0.75554,0 1.36742,-0.17603 1.83565,-0.52812 0.47886,-0.36158 0.71829,-0.74696 0.7183,-1.15613 l 0,-1.37025 c -0.27669,0.1142 -0.69171,0.20935 -1.24506,0.28548 -0.54271,0.0761 -1.01626,0.14749 -1.42062,0.21409 -0.39374,0.0571 -0.75555,0.19507 -1.08543,0.41393 -0.32989,0.21886 -0.49483,0.52336 -0.49483,0.91349 0,0.39014 0.14898,0.69464 0.44694,0.9135 0.29795,0.20934 0.71297,0.31401 1.24505,0.31401"
       style="font-size:19.687006px;font-style:normal;font-variant:normal;font-weight:normal;font-stretch:normal;line-height:125%;letter-spacing:0px;word-spacing:0px;fill:#000000;fill-opacity:1;stroke:none;font-family:Denemo;-inkscape-font-specification:Denemo"
       id="path3364"
       inkscape:connector-curvature="0" />
    <path
       d="m 221.34138,258.79181 0,10.6479 -1.51717,0 0,-10.6479 1.51717,0"
       style="font-size:19.48786354px;font-style:normal;font-variant:normal;font-weight:normal;font-stretch:normal;line-height:125%;letter-spacing:0px;word-spacing:0px;fill:#ff0000;fill-opacity:1;stroke:none;font-family:Denemo;-inkscape-font-specification:Denemo"
       id="path3367"
       inkscape:connector-curvature="0" />
    <path
       d="m 130.38606,264.58677 0,3.65397 6.08199,0 0,1.19896 -7.39216,0 0,-10.6479 7.13012,0 0,1.18468 -5.81995,0 0,3.41133 5.61308,0 0,1.19896 -5.61308,0"
       style="font-size:18.29940796px;font-style:normal;font-variant:normal;font-weight:normal;font-stretch:normal;line-height:125%;letter-spacing:0px;word-spacing:0px;fill:#ff0000;fill-opacity:1;stroke:none;font-family:Denemo;-inkscape-font-specification:Denemo"
       id="path3370"
       inkscape:connector-curvature="0" />
    <path
       d="m 65.145306,264.58677 0,3.65397 6.081981,0 0,1.19896 -7.392158,0 0,-10.6479 7.130123,0 0,1.18468 -5.819946,0 0,3.41133 5.613075,0 0,1.19896 -5.613075,0"
       style="font-size:18.29940796px;font-style:normal;font-variant:normal;font-weight:normal;font-stretch:normal;line-height:125%;letter-spacing:0px;word-spacing:0px;fill:#ff0000;fill-opacity:1;stroke:none;font-family:Denemo;-inkscape-font-specification:Denemo"
       id="path3373"
       inkscape:connector-curvature="0" />
    <path
       d="m 213.39812,266.01412 -6.37013,0 c 0.0108,0.70416 0.16664,1.2513 0.46768,1.64143 0.47305,0.6661 1.16651,0.99914 2.08037,0.99914 1.11813,0 1.87072,-0.51384 2.25777,-1.54152 l 1.38691,0 c -0.17203,0.83737 -0.58595,1.49394 -1.24177,1.96972 -0.64508,0.46626 -1.46218,0.69939 -2.4513,0.69939 -1.21489,0 -2.17713,-0.36159 -2.88671,-1.08477 -0.69883,-0.7327 -1.04825,-1.72707 -1.04825,-2.98313 0,-1.25605 0.36016,-2.25994 1.08051,-3.01167 0.72033,-0.76124 1.68257,-1.14186 2.88671,-1.14187 0.8171,1e-5 1.53205,0.18081 2.14488,0.54239 0.62357,0.3616 1.07512,0.85165 1.35466,1.47015 0.22577,0.53288 0.33866,1.34646 0.33867,2.44074 m -6.33788,-0.98485 4.8542,0 c 0.0108,-0.0191 0.0161,-0.0476 0.0161,-0.0856 0,-0.63754 -0.23116,-1.17041 -0.69345,-1.59861 -0.46232,-0.43771 -1.02676,-0.65656 -1.69333,-0.65657 -0.69884,10e-6 -1.27403,0.21411 -1.72558,0.64229 -0.45156,0.4187 -0.70421,0.98487 -0.75796,1.69854"
       style="font-size:19.78834343px;font-style:normal;font-variant:normal;font-weight:normal;font-stretch:normal;line-height:125%;letter-spacing:0px;word-spacing:0px;fill:#000000;fill-opacity:1;stroke:none;font-family:Denemo;-inkscape-font-specification:Denemo"
       id="path3376"
       inkscape:connector-curvature="0" />
    <path
       d="m 118.77797,268.0431 1.7417,0 0,1.74135 c 0,1.27508 -0.58057,1.91738 -1.7417,1.9269 l 0,-0.55666 c 0.38704,-0.01 0.65045,-0.10943 0.79021,-0.29974 0.13977,-0.1808 0.20966,-0.52812 0.20966,-1.04195 l 0,-0.25692 -0.99987,0 0,-1.51298"
       style="font-size:19.78834343px;font-style:normal;font-variant:normal;font-weight:normal;font-stretch:normal;line-height:125%;letter-spacing:0px;word-spacing:0px;fill:#000000;fill-opacity:1;stroke:none;font-family:Denemo;-inkscape-font-specification:Denemo"
       id="path3379"
       inkscape:connector-curvature="0" />
  </g>
</svg>
