<?xml version="1.0" encoding="UTF-8" standalone="no"?>
<!-- Created with Inkscape (http://www.inkscape.org/) -->

<svg
   xmlns:dc="http://purl.org/dc/elements/1.1/"
   xmlns:cc="http://creativecommons.org/ns#"
   xmlns:rdf="http://www.w3.org/1999/02/22-rdf-syntax-ns#"
   xmlns:svg="http://www.w3.org/2000/svg"
   xmlns="http://www.w3.org/2000/svg"
   xmlns:sodipodi="http://sodipodi.sourceforge.net/DTD/sodipodi-0.dtd"
   xmlns:inkscape="http://www.inkscape.org/namespaces/inkscape"
   width="596.88098"
   height="59.327232"
   id="svg2"
   version="1.1"
   inkscape:version="0.48.4 r9939"
   sodipodi:docname="dieei_logo.svg"
   inkscape:export-filename="/home/origama/temp/zenconf_2014/artworks/locandina/logos/dieei_logo_new.png"
   inkscape:export-xdpi="300"
   inkscape:export-ydpi="300">
  <defs
     id="defs4">
    <filter
       id="filter4506"
       inkscape:label="Desaturate"
       x="0"
       y="0"
       width="1"
       height="1"
       inkscape:menu="Color"
       inkscape:menu-tooltip="Render in shades of gray by reducing saturation to zero"
       color-interpolation-filters="sRGB">
      <feColorMatrix
         id="feColorMatrix4508"
         type="saturate"
         values="0" />
    </filter>
  </defs>
  <sodipodi:namedview
     id="base"
     pagecolor="#ffffff"
     bordercolor="#666666"
     borderopacity="1.0"
     inkscape:pageopacity="0.0"
     inkscape:pageshadow="2"
     inkscape:zoom="1.979899"
     inkscape:cx="314.34204"
     inkscape:cy="18.43201"
     inkscape:document-units="px"
     inkscape:current-layer="layer1"
     showgrid="false"
     inkscape:window-width="1680"
     inkscape:window-height="992"
     inkscape:window-x="0"
     inkscape:window-y="26"
     inkscape:window-maximized="1"
     fit-margin-top="0"
     fit-margin-left="0"
     fit-margin-right="0"
     fit-margin-bottom="0" />
  <metadata
     id="metadata7">
    <rdf:RDF>
      <cc:Work
         rdf:about="">
        <dc:format>image/svg+xml</dc:format>
        <dc:type
           rdf:resource="http://purl.org/dc/dcmitype/StillImage" />
        <dc:title></dc:title>
      </cc:Work>
    </rdf:RDF>
  </metadata>
  <g
     inkscape:label="Livello 1"
     inkscape:groupmode="layer"
     id="layer1"
     transform="translate(-63.835129,-172.6337)">
    <g
       id="g3510"
       transform="translate(18.182746,83.842661)" />
    <path
       style="opacity:0.803;fill:none;stroke:#205b9f;stroke-width:2;stroke-miterlimit:4;stroke-opacity:0.72156863"
       d="m 64.835129,173.6337 14.769449,0 0,15.27452 -14.769449,0 z"
       id="rect5520-38" />
    <path
       style="opacity:0.803;fill:none;stroke:#e48700;stroke-width:2;stroke-miterlimit:4;stroke-opacity:0.76862745"
       d="m 84.722511,173.6337 14.76945,0 0,15.27452 -14.76945,0 z"
       id="rect5520-8-9" />
    <path
       style="opacity:0.803;fill:none;stroke:#e40005;stroke-width:2;stroke-miterlimit:4;stroke-opacity:0.79215686"
       d="m 104.894,173.6337 14.76945,0 0,15.27452 -14.76945,0 z"
       id="rect5520-1-9" />
    <path
       style="opacity:0.803;fill:none;stroke:#a75025;stroke-width:2;stroke-miterlimit:4;stroke-opacity:0.74901961"
       d="m 64.835129,193.77361 14.769449,0 0,15.27452 -14.769449,0 z"
       id="rect5520-5-1" />
    <path
       style="opacity:0.803;fill:none;stroke:#09b617;stroke-width:2;stroke-miterlimit:4;stroke-opacity:0.78431373"
       d="m 64.835129,213.34531 14.769449,0 0,15.27452 -14.769449,0 z"
       id="rect5520-0-1" />
    <path
       style="opacity:0.803;fill:none;stroke:#22edc4;stroke-width:2;stroke-miterlimit:4;stroke-opacity:0.79607843"
       d="m 84.722511,193.77361 14.76945,0 0,15.27452 -14.76945,0 z"
       id="rect5520-3-3" />
    <path
       style="opacity:0.803;fill:none;stroke:#1d0005;stroke-width:2;stroke-miterlimit:4;stroke-opacity:0.8745098"
       d="m 104.894,193.77361 14.76945,0 0,15.27452 -14.76945,0 z"
       id="rect5520-9-5" />
    <path
       style="opacity:0.803;fill:none;stroke:#e5e102;stroke-width:2;stroke-miterlimit:4;stroke-opacity:0.83137255"
       d="m 104.894,213.34531 14.76945,0 0,15.27452 -14.76945,0 z"
       id="rect5520-4-7" />
    <path
       style="opacity:0.803;fill:none;stroke:#e486f5;stroke-width:2;stroke-miterlimit:4;stroke-opacity:0.8745098"
       d="m 84.722511,213.34531 14.76945,0 0,15.27452 -14.76945,0 z"
       id="rect5520-43-6" />
    <g
       transform="scale(0.99203239,1.0080316)"
       style="font-size:40.48460388px;font-style:normal;font-variant:normal;font-weight:normal;font-stretch:normal;line-height:125%;letter-spacing:0px;word-spacing:0px;fill:#000000;fill-opacity:0.9372549;stroke:#205c9e;stroke-width:2;stroke-linecap:round;stroke-linejoin:round;stroke-miterlimit:0;stroke-opacity:0.9372549;font-family:Sans;-inkscape-font-specification:Unibit"
       id="text5589-4">
      <path
         d="m 129.52943,205.04121 0,-26.7655 10.33307,0 c 3.3965,2e-5 6.06348,1.18402 8.00095,3.55199 1.93742,2.36801 2.90615,5.63297 2.90617,9.79488 -2e-5,4.16194 -0.98071,7.43886 -2.94205,9.83076 -1.93747,2.39192 -4.59249,3.58787 -7.96507,3.58787 l -10.33307,0 m 3.40848,-3.01381 6.31465,0 c 2.65501,1e-5 4.66421,-0.87304 6.02762,-2.61914 1.38729,-1.77001 2.08094,-4.35327 2.08097,-7.7498 -3e-5,-3.3965 -0.69368,-5.97976 -2.08097,-7.7498 -1.36341,-1.76999 -3.37261,-2.655 -6.02762,-2.65502 l -6.31465,0 0,20.77376"
         style="font-size:36.73978424px;fill:#000000;stroke:#205c9e;font-family:Denemo;-inkscape-font-specification:Denemo"
         id="path3150" />
      <path
         d="m 158.80645,178.27571 0,26.7655 -3.48023,0 0,-26.7655 3.48023,0"
         style="font-size:36.73978424px;fill:#000000;stroke:#205c9e;font-family:Denemo;-inkscape-font-specification:Denemo"
         id="path3152" />
      <path
         d="m 168.63721,192.84246 0,9.18494 15.82251,0 0,3.01381 -19.23099,0 0,-26.7655 18.54929,0 0,2.97793 -15.14081,0 0,8.57501 14.60263,0 0,3.01381 -14.60263,0"
         style="font-size:36.73978424px;fill:#000000;stroke:#205c9e;font-family:Denemo;-inkscape-font-specification:Denemo"
         id="path3154" />
      <path
         d="m 192.10188,192.84246 0,9.18494 15.8225,0 0,3.01381 -19.23098,0 0,-26.7655 18.54929,0 0,2.97793 -15.14081,0 0,8.57501 14.60263,0 0,3.01381 -14.60263,0"
         style="font-size:36.73978424px;fill:#000000;stroke:#205c9e;font-family:Denemo;-inkscape-font-specification:Denemo"
         id="path3156" />
      <path
         d="m 215.99709,178.27571 0,26.7655 -3.48023,0 0,-26.7655 3.48023,0"
         style="font-size:36.73978424px;fill:#000000;stroke:#205c9e;font-family:Denemo;-inkscape-font-specification:Denemo"
         id="path3158" />
    </g>
    <g
       transform="scale(1.0468099,0.95528328)"
       style="font-size:43.30635834px;font-style:normal;font-weight:normal;line-height:125%;letter-spacing:0px;word-spacing:0px;fill:#000000;fill-opacity:1;stroke:none;font-family:Sans"
       id="text5758-5">
      <path
         d="m 136.00182,228.48857 0,10.20067 -1.61764,0 0,-10.20067 1.61764,0 m 0,-4.11073 0,2.03633 -1.63667,0 0,-2.03633 1.63667,0"
         style="font-size:19.48786354px;font-variant:normal;font-stretch:normal;font-family:Denemo;-inkscape-font-specification:Denemo"
         id="path3127" />
      <path
         d="m 137.96203,242.819 0,-14.46365 1.50345,0 0,1.54152 c 0.76125,-1.21798 1.84602,-1.82698 3.25433,-1.82699 1.34485,10e-6 2.4106,0.50116 3.19722,1.50346 0.7993,1.00231 1.19895,2.35986 1.19896,4.07266 -1e-5,1.62399 -0.39966,2.93079 -1.19896,3.92041 -0.79931,0.97693 -1.85871,1.46539 -3.17819,1.46539 -1.25606,0 -2.30277,-0.50749 -3.14014,-1.52248 l 0,5.30968 -1.63667,0 m 4.49134,-13.22663 c -0.86275,1e-5 -1.55421,0.3616 -2.07439,1.08477 -0.52019,0.72319 -0.78028,1.68109 -0.78028,2.8737 0,1.19262 0.26009,2.15052 0.78028,2.8737 0.52018,0.72319 1.21164,1.08478 2.07439,1.08478 0.88811,0 1.59861,-0.36159 2.13149,-1.08478 0.54555,-0.72318 0.81832,-1.66205 0.81833,-2.8166 -1e-5,-1.21799 -0.26644,-2.18857 -0.7993,-2.91176 -0.53288,-0.73587 -1.24972,-1.1038 -2.15052,-1.10381"
         style="font-size:19.48786354px;font-variant:normal;font-stretch:normal;font-family:Denemo;-inkscape-font-specification:Denemo"
         id="path3129" />
      <path
         d="m 148.73364,231.3813 c 0.0761,-2.2076 1.44002,-3.31141 4.09169,-3.31142 1.25605,10e-6 2.2076,0.24107 2.85467,0.72318 0.64704,0.46945 0.97057,1.15457 0.97058,2.05536 l 0,6.01384 c -1e-5,0.53287 0.2918,0.79931 0.87543,0.7993 0.11418,1e-5 0.23471,-0.0127 0.3616,-0.0381 l 0,1.21799 c -0.45676,0.11419 -0.83104,0.17763 -1.12284,0.19031 -0.52019,0 -0.9135,-0.12053 -1.17993,-0.36159 -0.25376,-0.24106 -0.41869,-0.62168 -0.49481,-1.14186 -1.09112,1.0023 -2.24568,1.50345 -3.46366,1.50345 -1.02769,0 -1.84602,-0.27277 -2.45502,-0.81833 -0.59631,-0.54556 -0.89446,-1.28143 -0.89446,-2.20761 0,-0.3045 0.0254,-0.57728 0.0761,-0.81834 0.0634,-0.25375 0.12687,-0.46943 0.19031,-0.64706 0.0761,-0.19031 0.20299,-0.36793 0.38062,-0.53287 0.19031,-0.16493 0.3489,-0.29815 0.47578,-0.39965 0.12687,-0.1015 0.33621,-0.203 0.62802,-0.3045 0.29181,-0.1015 0.51384,-0.17128 0.66609,-0.20934 0.15225,-0.0507 0.42503,-0.10784 0.81834,-0.17128 0.39331,-0.0634 0.67877,-0.10784 0.8564,-0.13322 0.17762,-0.0254 0.50115,-0.0698 0.97059,-0.13322 0.63436,-0.0761 1.07208,-0.19665 1.31315,-0.36159 0.25374,-0.17762 0.38061,-0.43771 0.38062,-0.78028 l 0,-0.41868 c -1e-5,-0.4948 -0.19666,-0.86908 -0.58997,-1.12284 -0.39331,-0.26642 -0.95156,-0.39964 -1.67474,-0.39965 -0.74856,1e-5 -1.31949,0.14591 -1.7128,0.43772 -0.39331,0.29181 -0.62168,0.74856 -0.68512,1.37024 l -1.63667,0 m 3.25432,6.22317 c 0.9008,0 1.63033,-0.23471 2.18858,-0.70415 0.57092,-0.48212 0.85639,-0.99596 0.8564,-1.54152 l 0,-1.82699 c -0.32988,0.15226 -0.82469,0.27913 -1.48443,0.38062 -0.64706,0.10151 -1.21165,0.19666 -1.69377,0.28547 -0.46944,0.0761 -0.90081,0.2601 -1.29411,0.5519 -0.39332,0.29182 -0.58997,0.69781 -0.58997,1.21799 0,0.52019 0.17762,0.92619 0.53287,1.218 0.35525,0.27912 0.85005,0.41868 1.48443,0.41868"
         style="font-size:19.48786354px;font-variant:normal;font-stretch:normal;font-family:Denemo;-inkscape-font-specification:Denemo"
         id="path3131" />
      <path
         d="m 164.33915,229.78268 c -1.09112,0.0254 -1.90946,0.27913 -2.45501,0.76125 -0.54556,0.48213 -0.81834,1.38927 -0.81834,2.72145 l 0,5.30968 -1.63667,0 0,-10.21971 1.50345,0 0,1.86505 c 0.46944,-0.76124 0.91984,-1.3068 1.35121,-1.63668 0.43137,-0.34255 0.90715,-0.51383 1.42734,-0.51384 0.13955,10e-6 0.3489,0.019 0.62802,0.0571 l 0,1.65571"
         style="font-size:19.48786354px;font-variant:normal;font-stretch:normal;font-family:Denemo;-inkscape-font-specification:Denemo"
         id="path3133" />
      <path
         d="m 169.49659,228.35535 0,1.33218 -1.67474,0 0,7.00345 c 0,0.36793 0.0571,0.61534 0.17128,0.74221 0.12687,0.11419 0.36793,0.17128 0.72318,0.17128 0.32987,0 0.58996,-0.0254 0.78028,-0.0761 l 0,1.35121 c -0.5075,0.0888 -0.95156,0.13956 -1.33218,0.15224 -0.63438,0 -1.12284,-0.13956 -1.4654,-0.41868 -0.32987,-0.27912 -0.49481,-0.67878 -0.49481,-1.19896 l 0,-7.72663 -1.38927,0 0,-1.33218 1.38927,0 0,-2.79758 1.61765,0 0,2.79758 1.67474,0"
         style="font-size:19.48786354px;font-variant:normal;font-stretch:normal;font-family:Denemo;-inkscape-font-specification:Denemo"
         id="path3135" />
      <path
         d="m 172.69382,228.48857 0,10.20067 -1.61765,0 0,-10.20067 1.61765,0 m 0,-4.11073 0,2.03633 -1.63668,0 0,-2.03633 1.63668,0"
         style="font-size:19.48786354px;font-variant:normal;font-stretch:normal;font-family:Denemo;-inkscape-font-specification:Denemo"
         id="path3137" />
      <path
         d="m 174.97755,228.35535 1.50346,0 0,1.44636 c 0.44405,-0.60898 0.90714,-1.0467 1.38927,-1.31314 0.48211,-0.27912 1.05939,-0.41868 1.73183,-0.41869 1.25605,10e-6 2.17588,0.5202 2.75951,1.56055 0.48211,-0.57092 0.95155,-0.97057 1.4083,-1.19896 0.46943,-0.24105 1.0467,-0.36158 1.73184,-0.36159 0.95154,10e-6 1.68106,0.24742 2.18857,0.74222 0.50749,0.48213 0.76123,1.18628 0.76125,2.11245 l 0,7.65051 -1.63668,0 0,-7.04152 c -1e-5,-0.64705 -0.16495,-1.1482 -0.49481,-1.50345 -0.32988,-0.35524 -0.79297,-0.53287 -1.38927,-0.53287 -0.65975,0 -1.22434,0.2601 -1.69377,0.78027 -0.46944,0.52019 -0.70416,1.14822 -0.70415,1.88408 l 0,6.41349 -1.63667,0 0,-7.04152 c -1e-5,-0.64705 -0.16495,-1.1482 -0.49481,-1.50345 -0.32988,-0.35524 -0.79297,-0.53287 -1.38928,-0.53287 -0.65975,0 -1.22433,0.2601 -1.69376,0.78027 -0.46944,0.52019 -0.70416,1.14822 -0.70416,1.88408 l 0,6.41349 -1.63667,0 0,-10.21971"
         style="font-size:19.48786354px;font-variant:normal;font-stretch:normal;font-family:Denemo;-inkscape-font-specification:Denemo"
         id="path3139" />
      <path
         d="m 199.54672,234.00759 -7.51729,0 c 0.0127,0.93887 0.19665,1.6684 0.5519,2.18858 0.55825,0.88812 1.37658,1.33218 2.45502,1.33218 1.31948,0 2.2076,-0.68512 2.66435,-2.05536 l 1.63668,0 c -0.20301,1.11649 -0.69147,1.99192 -1.4654,2.62629 -0.76125,0.62168 -1.72549,0.93252 -2.89273,0.93252 -1.43368,0 -2.5692,-0.48212 -3.40657,-1.44636 -0.82468,-0.97693 -1.23702,-2.30276 -1.23702,-3.9775 0,-1.67474 0.42503,-3.01326 1.27509,-4.01557 0.85005,-1.01498 1.98557,-1.52248 3.40657,-1.52249 0.96423,10e-6 1.80794,0.24107 2.53113,0.72318 0.73587,0.48213 1.26874,1.13554 1.59862,1.96021 0.26642,0.7105 0.39964,1.79527 0.39965,3.25432 m -7.47923,-1.31315 5.72837,0 c 0.0127,-0.0254 0.019,-0.0634 0.019,-0.11418 -1e-5,-0.85005 -0.27279,-1.56055 -0.81834,-2.13149 -0.54556,-0.58361 -1.21165,-0.87542 -1.99827,-0.87543 -0.82468,1e-5 -1.50346,0.28548 -2.03632,0.8564 -0.53288,0.55825 -0.83103,1.31315 -0.89447,2.2647"
         style="font-size:19.48786354px;font-variant:normal;font-stretch:normal;font-family:Denemo;-inkscape-font-specification:Denemo"
         id="path3141" />
      <path
         d="m 201.05018,228.35535 1.50346,0 0,1.73183 c 0.45674,-0.71049 0.94521,-1.22433 1.46539,-1.54152 0.52018,-0.31718 1.1609,-0.47577 1.92215,-0.47578 0.98961,10e-6 1.77623,0.25376 2.35986,0.76125 0.58361,0.5075 0.87542,1.17993 0.87543,2.01729 l 0,7.72664 -1.61765,0 0,-7.07958 c -1e-5,-0.60899 -0.19032,-1.09111 -0.57093,-1.44636 -0.38063,-0.36793 -0.89447,-0.5519 -1.54152,-0.5519 -0.83738,0 -1.50981,0.31719 -2.0173,0.95155 -0.49481,0.62169 -0.74222,1.45272 -0.74221,2.49308 l 0,5.63321 -1.63668,0 0,-10.21971"
         style="font-size:19.48786354px;font-variant:normal;font-stretch:normal;font-family:Denemo;-inkscape-font-specification:Denemo"
         id="path3143" />
      <path
         d="m 215.47576,228.35535 0,1.33218 -1.67474,0 0,7.00345 c 0,0.36793 0.0571,0.61534 0.17128,0.74221 0.12687,0.11419 0.36794,0.17128 0.72319,0.17128 0.32986,0 0.58996,-0.0254 0.78027,-0.0761 l 0,1.35121 c -0.5075,0.0888 -0.95156,0.13956 -1.33218,0.15224 -0.63437,0 -1.12283,-0.13956 -1.46539,-0.41868 -0.32988,-0.27912 -0.49481,-0.67878 -0.49481,-1.19896 l 0,-7.72663 -1.38927,0 0,-1.33218 1.38927,0 0,-2.79758 1.61764,0 0,2.79758 1.67474,0"
         style="font-size:19.48786354px;font-variant:normal;font-stretch:normal;font-family:Denemo;-inkscape-font-specification:Denemo"
         id="path3145" />
      <path
         d="m 220.86157,228.06988 c 1.47173,10e-6 2.60725,0.48848 3.40657,1.4654 0.81198,0.96425 1.21798,2.32814 1.21799,4.09169 -1e-5,1.67474 -0.41235,2.99423 -1.23702,3.95847 -0.82469,0.96424 -1.94753,1.44636 -3.36851,1.44636 -1.45906,0 -2.59458,-0.48212 -3.40657,-1.44636 -0.812,-0.97693 -1.21799,-2.32179 -1.21799,-4.0346 0,-1.71279 0.40599,-3.05131 1.21799,-4.01556 0.82468,-0.97692 1.95386,-1.46539 3.38754,-1.4654 m 0.019,1.50346 c -0.9135,1e-5 -1.63034,0.35526 -2.15052,1.06574 -0.52018,0.7105 -0.78027,1.68109 -0.78027,2.91176 0,1.23069 0.26009,2.20127 0.78027,2.91176 0.52018,0.7105 1.23702,1.06575 2.15052,1.06575 0.9008,0 1.61129,-0.35525 2.13149,-1.06575 0.52017,-0.71049 0.78026,-1.66204 0.78027,-2.85466 -1e-5,-1.25605 -0.25376,-2.23932 -0.76124,-2.94983 -0.50751,-0.72317 -1.22435,-1.08476 -2.15052,-1.08477"
         style="font-size:19.48786354px;font-variant:normal;font-stretch:normal;font-family:Denemo;-inkscape-font-specification:Denemo"
         id="path3147" />
    </g>
    <g
       transform="scale(1.0468099,0.95528328)"
       style="font-size:43.30635834px;font-style:normal;font-weight:normal;line-height:125%;letter-spacing:0px;word-spacing:0px;fill:#ff0000;fill-opacity:1;stroke:none;font-family:Sans"
       id="text5758-7-9">
      <path
         d="m 121.46177,238.57506 0,-14.19722 5.48097,0 c 1.8016,2e-5 3.21624,0.62805 4.24393,1.88409 1.02767,1.25606 1.54151,2.98789 1.54153,5.19549 -2e-5,2.20761 -0.5202,3.94579 -1.56056,5.21453 -1.02769,1.26874 -2.43599,1.90311 -4.2249,1.90311 l -5.48097,0 m 1.80796,-1.59862 3.34948,0 c 1.40829,1e-5 2.47403,-0.46308 3.19722,-1.38927 0.73586,-0.93886 1.1038,-2.3091 1.10381,-4.11072 -1e-5,-1.8016 -0.36795,-3.17184 -1.10381,-4.11072 -0.72319,-0.93886 -1.78893,-1.40829 -3.19722,-1.4083 l -3.34948,0 0,11.01901"
         style="font-size:19.48786354px;font-variant:normal;font-stretch:normal;fill:#ff0000;font-family:Denemo;-inkscape-font-specification:Denemo"
         id="path3124" />
    </g>
    <g
       transform="scale(1.0553214,0.94757863)"
       style="font-size:43.65847778px;font-style:normal;font-weight:normal;line-height:125%;letter-spacing:0px;word-spacing:0px;fill:#000000;fill-opacity:1;stroke:none;font-family:Sans"
       id="text5758-70-9">
      <path
         d="m 257.49936,230.21206 1.51569,0 0,1.74591 c 0.46045,-0.71626 0.95289,-1.23428 1.47731,-1.55405 0.5244,-0.31976 1.17033,-0.47964 1.93777,-0.47965 0.99765,1e-5 1.79067,0.25582 2.37904,0.76743 0.58836,0.51164 0.88254,1.18954 0.88255,2.0337 l 0,7.78946 -1.63079,0 0,-7.13714 c -10e-6,-0.61394 -0.19187,-1.09998 -0.57558,-1.45812 -0.38372,-0.37092 -0.90174,-0.55638 -1.55405,-0.55639 -0.84419,1e-5 -1.52209,0.31977 -2.03371,0.95929 -0.49883,0.62675 -0.74825,1.46453 -0.74824,2.51335 l 0,5.67901 -1.64999,0 0,-10.3028"
         style="font-size:19.64631653px;font-variant:normal;font-stretch:normal;font-family:Denemo;-inkscape-font-specification:Denemo"
         id="path3105" />
      <path
         d="m 271.29399,240.97532 c -1.20231,0 -2.21277,-0.49243 -3.03136,-1.47731 -0.80581,-0.99766 -1.20871,-2.31509 -1.20871,-3.95228 0,-1.67556 0.4029,-3.03136 1.20871,-4.06741 0.8058,-1.03602 1.86102,-1.55404 3.16566,-1.55405 1.27905,1e-5 2.32788,0.59477 3.14648,1.78428 l 0,-1.49649 1.51569,0 0,8.61445 c -1e-5,0.98487 -0.064,1.80347 -0.19186,2.45579 -0.11513,0.6651 -0.33257,1.27905 -0.65232,1.84184 -0.30698,0.56278 -0.77384,0.97847 -1.40057,1.24708 -0.61395,0.28139 -1.40057,0.42208 -2.35986,0.42209 -1.20232,-1e-5 -2.168,-0.275 -2.89706,-0.82499 -0.71628,-0.55 -1.11918,-1.31104 -1.20871,-2.28312 l 1.66917,0 c 0.17906,1.15115 1.01045,1.73312 2.49416,1.74591 1.09998,0 1.85462,-0.31337 2.26393,-0.9401 0.40929,-0.62674 0.61394,-1.57325 0.61395,-2.83951 l 0,-0.53721 c -0.46047,0.65232 -0.94012,1.12558 -1.43894,1.41976 -0.48605,0.29418 -1.04883,0.44127 -1.68836,0.44127 m 0.30698,-9.53537 c -0.88256,1e-5 -1.57964,0.36454 -2.09126,1.0936 -0.49884,0.71628 -0.74825,1.68836 -0.74825,2.91625 0,1.24069 0.25581,2.21916 0.76743,2.93543 0.51162,0.71628 1.20871,1.07441 2.09126,1.07441 0.86976,0 1.55405,-0.35174 2.05289,-1.05522 0.49882,-0.70348 0.74824,-1.66917 0.74825,-2.89707 -10e-6,-1.27905 -0.24943,-2.27671 -0.74825,-2.99299 -0.48605,-0.71626 -1.17674,-1.0744 -2.07207,-1.07441"
         style="font-size:19.64631653px;font-variant:normal;font-stretch:normal;font-family:Denemo;-inkscape-font-specification:Denemo"
         id="path3107" />
      <path
         d="m 286.98802,235.91026 -7.57841,0 c 0.0128,0.9465 0.19825,1.68196 0.55639,2.20637 0.56278,0.89534 1.38777,1.34301 2.47497,1.34301 1.33022,0 2.22556,-0.69069 2.68602,-2.07207 l 1.64999,0 c -0.20466,1.12557 -0.6971,2.00812 -1.47731,2.64765 -0.76745,0.62673 -1.73953,0.9401 -2.91625,0.9401 -1.44534,0 -2.5901,-0.48604 -3.43427,-1.45812 -0.83139,-0.98487 -1.24708,-2.32149 -1.24708,-4.00985 0,-1.68834 0.42848,-3.03775 1.28545,-4.04821 0.85696,-1.02324 2.00172,-1.53486 3.43427,-1.53487 0.97207,1e-5 1.82265,0.24303 2.55172,0.72906 0.74184,0.48605 1.27904,1.14477 1.61161,1.97615 0.26859,0.71627 0.40289,1.80987 0.4029,3.28078 m -7.54004,-1.32383 5.77494,0 c 0.0128,-0.0256 0.0192,-0.0639 0.0192,-0.11511 -1e-5,-0.85696 -0.27501,-1.57324 -0.82499,-2.14882 -0.55,-0.58836 -1.22151,-0.88254 -2.01452,-0.88255 -0.83139,1e-5 -1.51568,0.2878 -2.05288,0.86337 -0.53721,0.56279 -0.83779,1.32383 -0.90174,2.28311"
         style="font-size:19.64631653px;font-variant:normal;font-stretch:normal;font-family:Denemo;-inkscape-font-specification:Denemo"
         id="path3109" />
      <path
         d="m 291.86123,240.97532 c -1.20232,0 -2.21277,-0.49243 -3.03137,-1.47731 -0.8058,-0.99766 -1.2087,-2.31509 -1.2087,-3.95228 0,-1.67556 0.4029,-3.03136 1.2087,-4.06741 0.80581,-1.03602 1.86103,-1.55404 3.16567,-1.55405 1.27905,1e-5 2.32788,0.59477 3.14648,1.78428 l 0,-1.49649 1.51568,0 0,8.61445 c -10e-6,0.98487 -0.064,1.80347 -0.19185,2.45579 -0.11513,0.6651 -0.33257,1.27905 -0.65232,1.84184 -0.30699,0.56278 -0.77384,0.97847 -1.40057,1.24708 -0.61396,0.28139 -1.40057,0.42208 -2.35986,0.42209 -1.20232,-1e-5 -2.16801,-0.275 -2.89707,-0.82499 -0.71627,-0.55 -1.11917,-1.31104 -1.2087,-2.28312 l 1.66916,0 c 0.17907,1.15115 1.01046,1.73312 2.49417,1.74591 1.09998,0 1.85462,-0.31337 2.26393,-0.9401 0.40929,-0.62674 0.61394,-1.57325 0.61394,-2.83951 l 0,-0.53721 c -0.46046,0.65232 -0.94011,1.12558 -1.43893,1.41976 -0.48605,0.29418 -1.04884,0.44127 -1.68836,0.44127 m 0.30697,-9.53537 c -0.88255,1e-5 -1.57964,0.36454 -2.09125,1.0936 -0.49884,0.71628 -0.74826,1.68836 -0.74825,2.91625 -1e-5,1.24069 0.25581,2.21916 0.76743,2.93543 0.51162,0.71628 1.20871,1.07441 2.09126,1.07441 0.86975,0 1.55405,-0.35174 2.05289,-1.05522 0.49882,-0.70348 0.74824,-1.66917 0.74824,-2.89707 0,-1.27905 -0.24942,-2.27671 -0.74824,-2.99299 -0.48605,-0.71626 -1.17674,-1.0744 -2.07208,-1.07441"
         style="font-size:19.64631653px;font-variant:normal;font-stretch:normal;font-family:Denemo;-inkscape-font-specification:Denemo"
         id="path3111" />
      <path
         d="m 298.97918,230.21206 1.51569,0 0,1.74591 c 0.46045,-0.71626 0.95289,-1.23428 1.47731,-1.55405 0.5244,-0.31976 1.17033,-0.47964 1.93777,-0.47965 0.99766,1e-5 1.79067,0.25582 2.37904,0.76743 0.58836,0.51164 0.88254,1.18954 0.88255,2.0337 l 0,7.78946 -1.63079,0 0,-7.13714 c -10e-6,-0.61394 -0.19187,-1.09998 -0.57558,-1.45812 -0.38372,-0.37092 -0.90174,-0.55638 -1.55405,-0.55639 -0.84419,1e-5 -1.52209,0.31977 -2.03371,0.95929 -0.49883,0.62675 -0.74825,1.46453 -0.74824,2.51335 l 0,5.67901 -1.64999,0 0,-10.3028"
         style="font-size:19.64631653px;font-variant:normal;font-stretch:normal;font-family:Denemo;-inkscape-font-specification:Denemo"
         id="path3113" />
      <path
         d="m 318.33771,235.91026 -7.57841,0 c 0.0128,0.9465 0.19825,1.68196 0.55639,2.20637 0.56278,0.89534 1.38777,1.34301 2.47497,1.34301 1.33022,0 2.22555,-0.69069 2.68602,-2.07207 l 1.64999,0 c -0.20466,1.12557 -0.6971,2.00812 -1.47731,2.64765 -0.76745,0.62673 -1.73953,0.9401 -2.91625,0.9401 -1.44534,0 -2.5901,-0.48604 -3.43427,-1.45812 -0.83139,-0.98487 -1.24708,-2.32149 -1.24708,-4.00985 0,-1.68834 0.42848,-3.03775 1.28545,-4.04821 0.85696,-1.02324 2.00172,-1.53486 3.43427,-1.53487 0.97207,1e-5 1.82265,0.24303 2.55172,0.72906 0.74184,0.48605 1.27904,1.14477 1.61161,1.97615 0.26859,0.71627 0.40289,1.80987 0.4029,3.28078 m -7.54004,-1.32383 5.77494,0 c 0.0128,-0.0256 0.0192,-0.0639 0.0192,-0.11511 -10e-6,-0.85696 -0.27501,-1.57324 -0.82499,-2.14882 -0.55001,-0.58836 -1.22151,-0.88254 -2.01452,-0.88255 -0.83139,1e-5 -1.51569,0.2878 -2.05289,0.86337 -0.5372,0.56279 -0.83778,1.32383 -0.90173,2.28311"
         style="font-size:19.64631653px;font-variant:normal;font-stretch:normal;font-family:Denemo;-inkscape-font-specification:Denemo"
         id="path3115" />
      <path
         d="m 324.89927,231.651 c -1.09999,0.0256 -1.92498,0.2814 -2.47497,0.76743 -0.55,0.48605 -0.825,1.40058 -0.82499,2.74358 l 0,5.35285 -1.64999,0 0,-10.3028 1.51569,0 0,1.88021 c 0.47324,-0.76742 0.92731,-1.31742 1.36219,-1.64998 0.43488,-0.34534 0.91452,-0.51801 1.43894,-0.51802 0.14069,1e-5 0.35174,0.0192 0.63313,0.0576 l 0,1.66917"
         style="font-size:19.64631653px;font-variant:normal;font-stretch:normal;font-family:Denemo;-inkscape-font-specification:Denemo"
         id="path3117" />
      <path
         d="m 328.06494,230.34636 0,10.28362 -1.63079,0 0,-10.28362 1.63079,0 m 0,-4.14415 0,2.05289 -1.64998,0 0,-2.05289 1.64998,0"
         style="font-size:19.64631653px;font-variant:normal;font-stretch:normal;font-family:Denemo;-inkscape-font-specification:Denemo"
         id="path3119" />
      <path
         d="m 330.19457,233.26261 c 0.0767,-2.22555 1.45173,-3.33833 4.12496,-3.33834 1.26626,1e-5 2.22555,0.24303 2.87788,0.72906 0.65231,0.47326 0.97847,1.16395 0.97848,2.07207 l 0,6.06274 c -10e-6,0.5372 0.29417,0.8058 0.88255,0.8058 0.1151,0 0.23661,-0.0128 0.36453,-0.0384 l 0,1.22789 c -0.46047,0.11512 -0.83779,0.17907 -1.13197,0.19186 -0.52442,0 -0.92093,-0.12151 -1.18952,-0.36453 -0.25582,-0.24302 -0.4221,-0.62674 -0.49883,-1.15115 -1.1,1.01046 -2.26394,1.51568 -3.49183,1.51568 -1.03604,0 -1.86103,-0.27499 -2.47497,-0.82499 -0.60116,-0.54999 -0.90174,-1.29185 -0.90174,-2.22556 0,-0.30697 0.0256,-0.58197 0.0767,-0.82499 0.064,-0.25581 0.12791,-0.47325 0.19186,-0.65232 0.0767,-0.19185 0.20465,-0.37092 0.38372,-0.5372 0.19186,-0.16628 0.35174,-0.30058 0.47965,-0.40291 0.1279,-0.10232 0.33894,-0.20464 0.63313,-0.30697 0.29418,-0.10232 0.51801,-0.17267 0.6715,-0.21104 0.15349,-0.0512 0.42848,-0.10872 0.825,-0.17268 0.3965,-0.0639 0.68429,-0.10871 0.86336,-0.1343 0.17906,-0.0256 0.50522,-0.0703 0.97848,-0.1343 0.63952,-0.0767 1.08079,-0.19825 1.32382,-0.36453 0.25581,-0.17906 0.38371,-0.44127 0.38372,-0.78662 l 0,-0.42209 c -1e-5,-0.49882 -0.19826,-0.87615 -0.59476,-1.13196 -0.39652,-0.2686 -0.9593,-0.4029 -1.68836,-0.40291 -0.75465,1e-5 -1.33022,0.1471 -1.72672,0.44128 -0.39652,0.29419 -0.62675,0.75465 -0.6907,1.38138 l -1.64998,0 m 3.28078,6.27377 c 0.90813,0 1.64358,-0.23662 2.20638,-0.70987 0.57556,-0.48604 0.86335,-1.00406 0.86336,-1.55406 l 0,-1.84184 c -0.33256,0.15349 -0.83139,0.2814 -1.4965,0.38372 -0.65232,0.10233 -1.2215,0.19826 -1.70754,0.28779 -0.47325,0.0767 -0.90813,0.26221 -1.30464,0.55639 -0.39651,0.29418 -0.59476,0.70348 -0.59476,1.22789 0,0.52442 0.17907,0.93371 0.53721,1.22789 0.35813,0.2814 0.85696,0.42209 1.49649,0.42209"
         style="font-size:19.64631653px;font-variant:normal;font-stretch:normal;font-family:Denemo;-inkscape-font-specification:Denemo"
         id="path3121" />
    </g>
    <g
       transform="scale(1.0468099,0.95528328)"
       style="font-size:43.30635834px;font-style:normal;font-weight:normal;line-height:125%;letter-spacing:0px;word-spacing:0px;fill:#ff0000;fill-opacity:1;stroke:none;font-family:Sans"
       id="text5758-7-7-3">
      <path
         d="m 256.96912,224.37784 0,14.19722 -1.84602,0 0,-14.19722 1.84602,0"
         style="font-size:19.48786354px;font-variant:normal;font-stretch:normal;fill:#ff0000;font-family:Denemo;-inkscape-font-specification:Denemo"
         id="path3102" />
    </g>
    <g
       transform="scale(1.0635514,0.94024604)"
       style="font-size:43.99895096px;font-style:normal;font-weight:normal;line-height:125%;letter-spacing:0px;word-spacing:0px;fill:#000000;fill-opacity:1;stroke:none;font-family:Sans"
       id="text5758-70-4-0">
      <path
         d="m 356.04969,228.12391 0,14.42426 -1.66285,0 0,-14.42426 1.66285,0"
         style="font-size:19.79953003px;font-variant:normal;font-stretch:normal;font-family:Denemo;-inkscape-font-specification:Denemo"
         id="path3085" />
      <path
         d="m 367.20626,237.90766 -7.63751,0 c 0.0129,0.95388 0.19979,1.69508 0.56073,2.22358 0.56717,0.90232 1.39859,1.35348 2.49427,1.35348 1.34059,0 2.24291,-0.69607 2.70697,-2.08823 l 1.66285,0 c -0.20625,1.13435 -0.70253,2.02378 -1.48883,2.6683 -0.77343,0.63162 -1.75309,0.94743 -2.93899,0.94743 -1.45661,0 -2.6103,-0.48983 -3.46105,-1.46949 -0.83788,-0.99256 -1.25681,-2.33959 -1.25681,-4.04112 0,-1.70151 0.43182,-3.06144 1.29548,-4.07978 0.86365,-1.03122 2.01733,-1.54683 3.46105,-1.54684 0.97966,1e-5 1.83686,0.24492 2.57162,0.73475 0.74763,0.48984 1.28902,1.15369 1.62418,1.99155 0.27068,0.72187 0.40603,1.82399 0.40604,3.30637 m -7.59884,-1.33415 5.81998,0 c 0.0129,-0.0258 0.0193,-0.0644 0.0193,-0.11601 -10e-6,-0.86365 -0.27715,-1.58551 -0.83142,-2.16558 -0.55429,-0.59294 -1.23103,-0.88942 -2.03023,-0.88943 -0.83787,1e-5 -1.5275,0.29004 -2.06889,0.8701 -0.5414,0.56718 -0.84432,1.33415 -0.90877,2.30092"
         style="font-size:19.79953003px;font-variant:normal;font-stretch:normal;font-family:Denemo;-inkscape-font-specification:Denemo"
         id="path3087" />
      <path
         d="m 372.48485,232.16502 0,1.35348 -1.70153,0 0,7.11546 c 0,0.37382 0.058,0.62518 0.17402,0.75408 0.1289,0.11602 0.37382,0.17402 0.73475,0.17402 0.33515,0 0.5994,-0.0258 0.79276,-0.0773 l 0,1.37282 c -0.51562,0.0902 -0.96678,0.14179 -1.35349,0.15468 -0.64452,0 -1.14079,-0.14179 -1.48883,-0.42538 -0.33515,-0.28358 -0.50272,-0.68963 -0.50272,-1.21813 l 0,-7.85021 -1.41149,0 0,-1.35348 1.41149,0 0,-2.84232 1.64351,0 0,2.84232 1.70153,0"
         style="font-size:19.79953003px;font-variant:normal;font-stretch:normal;font-family:Denemo;-inkscape-font-specification:Denemo"
         id="path3089" />
      <path
         d="m 377.51207,232.16502 0,1.35348 -1.70152,0 0,7.11546 c 0,0.37382 0.058,0.62518 0.17402,0.75408 0.1289,0.11602 0.37382,0.17402 0.73475,0.17402 0.33514,0 0.59939,-0.0258 0.79275,-0.0773 l 0,1.37282 c -0.51561,0.0902 -0.96678,0.14179 -1.35348,0.15468 -0.64452,0 -1.1408,-0.14179 -1.48883,-0.42538 -0.33515,-0.28358 -0.50273,-0.68963 -0.50273,-1.21813 l 0,-7.85021 -1.41149,0 0,-1.35348 1.41149,0 0,-2.84232 1.64352,0 0,2.84232 1.70152,0"
         style="font-size:19.79953003px;font-variant:normal;font-stretch:normal;font-family:Denemo;-inkscape-font-specification:Denemo"
         id="path3091" />
      <path
         d="m 384.14414,233.61518 c -1.10857,0.0258 -1.94,0.2836 -2.49428,0.77342 -0.55428,0.48984 -0.83142,1.4115 -0.83142,2.76497 l 0,5.3946 -1.66285,0 0,-10.38315 1.5275,0 0,1.89488 c 0.47694,-0.77341 0.93454,-1.3277 1.37282,-1.66285 0.43827,-0.34803 0.92165,-0.52205 1.45016,-0.52206 0.14179,1e-5 0.35448,0.0193 0.63807,0.058 l 0,1.68219"
         style="font-size:19.79953003px;font-variant:normal;font-stretch:normal;font-family:Denemo;-inkscape-font-specification:Denemo"
         id="path3093" />
      <path
         d="m 387.33449,232.30037 0,10.36381 -1.64351,0 0,-10.36381 1.64351,0 m 0,-4.17646 0,2.06889 -1.66285,0 0,-2.06889 1.66285,0"
         style="font-size:19.79953003px;font-variant:normal;font-stretch:normal;font-family:Denemo;-inkscape-font-specification:Denemo"
         id="path3095" />
      <path
         d="m 397.81433,235.66474 -1.66286,0 c -0.10313,-0.72185 -0.36738,-1.27613 -0.79275,-1.66285 -0.4125,-0.39959 -0.96678,-0.59939 -1.66285,-0.5994 -0.90233,1e-5 -1.60485,0.36738 -2.10757,1.10212 -0.50272,0.73476 -0.75408,1.74665 -0.75408,3.03567 0,1.22459 0.2578,2.19136 0.77342,2.90032 0.51561,0.69608 1.22457,1.04412 2.1269,1.04412 1.41793,0 2.26224,-0.83142 2.53295,-2.49428 l 1.66285,0 c -0.10313,1.26326 -0.52207,2.24937 -1.25681,2.95833 -0.73475,0.70897 -1.72731,1.06345 -2.97766,1.06345 -1.41794,0 -2.5394,-0.48983 -3.36437,-1.46949 -0.8121,-0.99256 -1.21814,-2.3267 -1.21814,-4.00245 0,-1.7144 0.41893,-3.08722 1.25681,-4.11845 0.83786,-1.03122 1.95288,-1.54683 3.34503,-1.54684 1.1988,1e-5 2.15913,0.32871 2.88099,0.98611 0.72185,0.64452 1.12789,1.57907 1.21814,2.80364"
         style="font-size:19.79953003px;font-variant:normal;font-stretch:normal;font-family:Denemo;-inkscape-font-specification:Denemo"
         id="path3097" />
      <path
         d="m 398.99379,235.23936 c 0.0773,-2.2429 1.46305,-3.36436 4.15713,-3.36437 1.27613,1e-5 2.2429,0.24492 2.90032,0.73475 0.65739,0.47695 0.9861,1.17302 0.98611,2.08823 l 0,6.11001 c -1e-5,0.54139 0.29646,0.81209 0.88943,0.81209 0.116,0 0.23846,-0.0129 0.36737,-0.0387 l 0,1.23747 c -0.46406,0.11601 -0.84432,0.18046 -1.14079,0.19335 -0.52851,0 -0.92811,-0.12245 -1.1988,-0.36737 -0.25781,-0.24492 -0.42539,-0.63163 -0.50272,-1.16013 -1.10858,1.01834 -2.28159,1.5275 -3.51906,1.5275 -1.04412,0 -1.87554,-0.27714 -2.49428,-0.83142 -0.60584,-0.55428 -0.90876,-1.30192 -0.90876,-2.24292 0,-0.30936 0.0258,-0.5865 0.0773,-0.83142 0.0645,-0.25781 0.1289,-0.47694 0.19335,-0.65741 0.0773,-0.19335 0.20625,-0.37381 0.38671,-0.54139 0.19336,-0.16757 0.35448,-0.30292 0.48339,-0.40605 0.1289,-0.10312 0.34159,-0.20624 0.63807,-0.30937 0.29647,-0.10311 0.52206,-0.17401 0.67674,-0.21269 0.15468,-0.0515 0.43182,-0.10956 0.83143,-0.17402 0.39959,-0.0644 0.68963,-0.10956 0.87009,-0.13534 0.18046,-0.0258 0.50917,-0.0709 0.98611,-0.13535 0.64451,-0.0773 1.08923,-0.1998 1.33415,-0.36738 0.2578,-0.18045 0.3867,-0.44471 0.38671,-0.79275 l 0,-0.42538 c -10e-6,-0.50272 -0.19981,-0.88298 -0.5994,-1.14079 -0.39961,-0.27069 -0.96678,-0.40604 -1.70152,-0.40605 -0.76053,1e-5 -1.3406,0.14825 -1.74019,0.44472 -0.39961,0.29648 -0.63163,0.76053 -0.69608,1.39215 l -1.66285,0 m 3.30636,6.3227 c 0.91521,0 1.6564,-0.23847 2.22358,-0.71541 0.58006,-0.48983 0.87009,-1.01189 0.8701,-1.56617 l 0,-1.85621 c -0.33515,0.15469 -0.83788,0.28359 -1.50817,0.38671 -0.65741,0.10313 -1.23103,0.1998 -1.72085,0.29003 -0.47695,0.0773 -0.91522,0.26426 -1.31482,0.56073 -0.3996,0.29648 -0.5994,0.70897 -0.5994,1.23747 0,0.52851 0.18047,0.941 0.5414,1.23747 0.36092,0.28359 0.86364,0.42538 1.50816,0.42538"
         style="font-size:19.79953003px;font-variant:normal;font-stretch:normal;font-family:Denemo;-inkscape-font-specification:Denemo"
         id="path3099" />
    </g>
    <g
       transform="scale(1.0629505,0.94077758)"
       style="font-size:43.97409439px;font-style:normal;font-weight:normal;line-height:125%;letter-spacing:0px;word-spacing:0px;fill:#000000;fill-opacity:1;stroke:none;font-family:Sans"
       id="text5758-70-0-3">
      <path
         d="m 434.39229,227.83748 0,14.41612 -1.66192,0 0,-14.41612 1.66192,0"
         style="font-size:19.78834343px;font-variant:normal;font-stretch:normal;font-family:Denemo;-inkscape-font-specification:Denemo"
         id="path3064" />
      <path
         d="m 445.54255,237.61571 -7.6332,0 c 0.0129,0.95335 0.19969,1.69412 0.56042,2.22232 0.56685,0.90182 1.3978,1.35272 2.49286,1.35272 1.33983,0 2.24164,-0.69568 2.70544,-2.08705 l 1.66191,0 c -0.20614,1.13371 -0.70213,2.02264 -1.48799,2.66679 -0.77299,0.63127 -1.7521,0.9469 -2.93733,0.9469 -1.45579,0 -2.60882,-0.48955 -3.45909,-1.46867 -0.8374,-0.99199 -1.2561,-2.33826 -1.2561,-4.03883 0,-1.70055 0.43158,-3.05971 1.29474,-4.07748 0.86316,-1.03063 2.0162,-1.54595 3.4591,-1.54596 0.9791,10e-6 1.83582,0.24479 2.57017,0.73433 0.7472,0.48957 1.28829,1.15304 1.62326,1.99043 0.27053,0.72146 0.4058,1.82296 0.40581,3.3045 m -7.59455,-1.3334 5.81669,0 c 0.0129,-0.0258 0.0193,-0.0644 0.0193,-0.11594 -10e-6,-0.86316 -0.27699,-1.58461 -0.83096,-2.16435 -0.55397,-0.59261 -1.23033,-0.88892 -2.02908,-0.88893 -0.8374,1e-5 -1.52664,0.28987 -2.06772,0.8696 -0.54109,0.56686 -0.84384,1.3334 -0.90826,2.29962"
         style="font-size:19.78834343px;font-variant:normal;font-stretch:normal;font-family:Denemo;-inkscape-font-specification:Denemo"
         id="path3066" />
      <path
         d="m 450.81816,231.87632 0,1.35271 -1.70056,0 0,7.11144 c -10e-6,0.37361 0.058,0.62483 0.17392,0.75366 0.12882,0.11595 0.3736,0.17392 0.73433,0.17392 0.33495,0 0.59906,-0.0258 0.79231,-0.0773 l 0,1.37204 c -0.51533,0.0902 -0.96623,0.14172 -1.35272,0.1546 -0.64416,0 -1.14015,-0.14171 -1.48799,-0.42514 -0.33496,-0.28343 -0.50244,-0.68924 -0.50244,-1.21745 l 0,-7.84577 -1.41069,0 0,-1.35271 1.41069,0 0,-2.84071 1.64259,0 0,2.84071 1.70056,0"
         style="font-size:19.78834343px;font-variant:normal;font-stretch:normal;font-family:Denemo;-inkscape-font-specification:Denemo"
         id="path3068" />
      <path
         d="m 455.84254,231.87632 0,1.35271 -1.70056,0 0,7.11144 c 0,0.37361 0.058,0.62483 0.17392,0.75366 0.12883,0.11595 0.37361,0.17392 0.73433,0.17392 0.33496,0 0.59906,-0.0258 0.79231,-0.0773 l 0,1.37204 c -0.51532,0.0902 -0.96623,0.14172 -1.35272,0.1546 -0.64415,0 -1.14015,-0.14171 -1.48799,-0.42514 -0.33496,-0.28343 -0.50244,-0.68924 -0.50244,-1.21745 l 0,-7.84577 -1.41069,0 0,-1.35271 1.41069,0 0,-2.84071 1.64259,0 0,2.84071 1.70056,0"
         style="font-size:19.78834343px;font-variant:normal;font-stretch:normal;font-family:Denemo;-inkscape-font-specification:Denemo"
         id="path3070" />
      <path
         d="m 462.47086,233.32566 c -1.10794,0.0258 -1.9389,0.28343 -2.49286,0.77298 -0.55398,0.48956 -0.83096,1.4107 -0.83096,2.76341 l 0,5.39155 -1.66191,0 0,-10.37728 1.52664,0 0,1.8938 c 0.47667,-0.77297 0.93401,-1.32694 1.37204,-1.66191 0.43802,-0.34783 0.92113,-0.52175 1.44934,-0.52176 0.14171,10e-6 0.35428,0.0193 0.63771,0.058 l 0,1.68124"
         style="font-size:19.78834343px;font-variant:normal;font-stretch:normal;font-family:Denemo;-inkscape-font-specification:Denemo"
         id="path3072" />
      <path
         d="m 467.61119,231.58645 c 1.49443,10e-6 2.64746,0.496 3.4591,1.48799 0.8245,0.97912 1.23676,2.36404 1.23677,4.15478 -10e-6,1.70056 -0.41871,3.0404 -1.2561,4.0195 -0.8374,0.97912 -1.97755,1.46867 -3.42044,1.46867 -1.48156,0 -2.63459,-0.48955 -3.4591,-1.46867 -0.82451,-0.99199 -1.23677,-2.35759 -1.23677,-4.0968 0,-1.7392 0.41226,-3.09836 1.23677,-4.07748 0.8374,-0.99199 1.98399,-1.48798 3.43977,-1.48799 m 0.0193,1.52664 c -0.92759,1e-5 -1.65548,0.36073 -2.18368,1.08217 -0.5282,0.72146 -0.79231,1.70701 -0.7923,2.95666 -10e-6,1.24966 0.2641,2.23521 0.7923,2.95666 0.5282,0.72145 1.25609,1.08217 2.18368,1.08217 0.91469,0 1.63614,-0.36072 2.16435,-1.08217 0.52819,-0.72145 0.7923,-1.68768 0.7923,-2.89869 0,-1.27541 -0.25766,-2.27385 -0.77298,-2.9953 -0.51533,-0.73433 -1.24322,-1.10149 -2.18367,-1.1015"
         style="font-size:19.78834343px;font-variant:normal;font-stretch:normal;font-family:Denemo;-inkscape-font-specification:Denemo"
         id="path3074" />
      <path
         d="m 474.12357,231.87632 1.52664,0 0,1.75853 c 0.46378,-0.72144 0.95978,-1.2432 1.48799,-1.56529 0.5282,-0.32206 1.17879,-0.4831 1.95178,-0.48311 1.00487,10e-6 1.80362,0.25767 2.39624,0.77298 0.59261,0.51533 0.88892,1.19813 0.88893,2.0484 l 0,7.84577 -1.64258,0 0,-7.18873 c -1e-5,-0.61838 -0.19326,-1.10794 -0.57974,-1.46867 -0.3865,-0.3736 -0.90826,-0.5604 -1.56529,-0.56041 -0.85028,1e-5 -1.53309,0.32208 -2.0484,0.96623 -0.50244,0.63127 -0.75366,1.47511 -0.75366,2.53151 l 0,5.72007 -1.66191,0 0,-10.37728"
         style="font-size:19.78834343px;font-variant:normal;font-stretch:normal;font-family:Denemo;-inkscape-font-specification:Denemo"
         id="path3076" />
      <path
         d="m 486.52993,232.01159 0,10.35796 -1.64258,0 0,-10.35796 1.64258,0 m 0,-4.17411 0,2.06773 -1.66191,0 0,-2.06773 1.66191,0"
         style="font-size:19.78834343px;font-variant:normal;font-stretch:normal;font-family:Denemo;-inkscape-font-specification:Denemo"
         id="path3078" />
      <path
         d="m 497.00384,235.37406 -1.66191,0 c -0.10307,-0.72144 -0.36717,-1.27541 -0.79231,-1.66191 -0.41226,-0.39937 -0.96623,-0.59905 -1.66191,-0.59906 -0.90181,1e-5 -1.60394,0.36717 -2.10637,1.1015 -0.50244,0.73434 -0.75366,1.74565 -0.75366,3.03395 0,1.22389 0.25766,2.19012 0.77298,2.89868 0.51532,0.69569 1.22388,1.04353 2.1257,1.04353 1.41713,0 2.26097,-0.83095 2.53152,-2.49287 l 1.66191,0 c -0.10307,1.26254 -0.52177,2.24809 -1.2561,2.95666 -0.73434,0.70857 -1.72633,1.06285 -2.97598,1.06285 -1.41714,0 -2.53796,-0.48955 -3.36247,-1.46867 -0.81163,-0.99199 -1.21745,-2.32538 -1.21745,-4.00018 0,-1.71344 0.4187,-3.08548 1.2561,-4.11613 0.83739,-1.03063 1.95178,-1.54595 3.34315,-1.54596 1.19811,10e-6 2.1579,0.32852 2.87936,0.98555 0.72144,0.64416 1.12725,1.57818 1.21744,2.80206"
         style="font-size:19.78834343px;font-variant:normal;font-stretch:normal;font-family:Denemo;-inkscape-font-specification:Denemo"
         id="path3080" />
      <path
         d="m 498.18264,234.94892 c 0.0773,-2.24164 1.46222,-3.36246 4.15478,-3.36247 1.27541,10e-6 2.24164,0.24479 2.89868,0.73433 0.65703,0.47668 0.98554,1.17237 0.98555,2.08705 l 0,6.10656 c -1e-5,0.54109 0.2963,0.81163 0.88893,0.81163 0.11594,0 0.23833,-0.0129 0.36717,-0.0386 l 0,1.23677 c -0.4638,0.11595 -0.84385,0.18037 -1.14015,0.19325 -0.52821,0 -0.92759,-0.12239 -1.19812,-0.36717 -0.25767,-0.24477 -0.42515,-0.63126 -0.50244,-1.15947 -1.10795,1.01776 -2.2803,1.52664 -3.51707,1.52664 -1.04353,0 -1.87448,-0.27699 -2.49287,-0.83096 -0.6055,-0.55397 -0.90825,-1.30118 -0.90825,-2.24164 0,-0.30919 0.0258,-0.58618 0.0773,-0.83096 0.0644,-0.25766 0.12883,-0.47667 0.19324,-0.65703 0.0773,-0.19325 0.20613,-0.37361 0.38649,-0.54109 0.19325,-0.16748 0.35429,-0.30275 0.48312,-0.40582 0.12883,-0.10306 0.3414,-0.20612 0.63771,-0.30919 0.29631,-0.10306 0.52176,-0.17392 0.67636,-0.21257 0.15459,-0.0515 0.43158,-0.1095 0.83095,-0.17392 0.39937,-0.0644 0.68924,-0.1095 0.86961,-0.13527 0.18036,-0.0258 0.50887,-0.0709 0.98555,-0.13528 0.64415,-0.0773 1.08861,-0.19968 1.3334,-0.36716 0.25765,-0.18036 0.38648,-0.44446 0.38649,-0.79231 l 0,-0.42514 c -10e-6,-0.50243 -0.1997,-0.88248 -0.59906,-1.14015 -0.39939,-0.27053 -0.96624,-0.4058 -1.70057,-0.40581 -0.7601,1e-5 -1.33984,0.14816 -1.73921,0.44446 -0.39937,0.29632 -0.63127,0.76011 -0.69568,1.39137 l -1.66191,0 m 3.3045,6.31913 c 0.91469,0 1.65546,-0.23834 2.22232,-0.71501 0.57973,-0.48955 0.8696,-1.01132 0.86961,-1.56529 l 0,-1.85516 c -0.33497,0.15461 -0.83741,0.28344 -1.50732,0.3865 -0.65704,0.10306 -1.23033,0.19969 -1.71988,0.28986 -0.47668,0.0773 -0.9147,0.26411 -1.31407,0.56042 -0.39938,0.29631 -0.59907,0.70857 -0.59907,1.23677 0,0.5282 0.18036,0.94046 0.54109,1.23677 0.36072,0.28343 0.86316,0.42514 1.50732,0.42514"
         style="font-size:19.78834343px;font-variant:normal;font-stretch:normal;font-family:Denemo;-inkscape-font-specification:Denemo"
         id="path3082" />
    </g>
    <g
       transform="scale(1.0575071,0.94562013)"
       style="font-size:43.74889755px;font-style:normal;font-weight:normal;line-height:125%;letter-spacing:0px;word-spacing:0px;fill:#000000;fill-opacity:1;stroke:none;font-family:Sans"
       id="text5758-70-3-2">
      <path
         d="m 538.04055,230.68887 1.51883,0 0,1.74953 c 0.46141,-0.71774 0.95486,-1.23683 1.48037,-1.55727 0.52549,-0.32042 1.17275,-0.48063 1.94178,-0.48064 0.99972,1e-5 1.79438,0.25635 2.38397,0.76902 0.58958,0.51269 0.88437,1.192 0.88438,2.03792 l 0,7.80559 -1.63417,0 0,-7.15192 c -1e-5,-0.61522 -0.19227,-1.10226 -0.57677,-1.46115 -0.38452,-0.37169 -0.90361,-0.55753 -1.55727,-0.55754 -0.84594,1e-5 -1.52524,0.32043 -2.03792,0.96128 -0.49987,0.62804 -0.7498,1.46756 -0.7498,2.51855 l 0,5.69078 -1.6534,0 0,-10.32415"
         style="font-size:19.687006px;font-variant:normal;font-stretch:normal;font-family:Denemo;-inkscape-font-specification:Denemo"
         id="path3043" />
      <path
         d="m 552.4982,230.68887 0,1.34579 -1.71108,0 0,8.97836 -1.63417,0 0,-8.97836 -1.38425,0 0,-1.34579 1.38425,0 0,-1.74953 c -1e-5,-0.73056 0.21148,-1.30091 0.63444,-1.71107 0.43578,-0.42295 1.03177,-0.63443 1.78798,-0.63445 0.30761,2e-5 0.61521,0.0385 0.92283,0.11536 l 0,1.34579 c -0.24353,-0.0128 -0.43579,-0.0192 -0.57677,-0.0192 -0.75621,1e-5 -1.13431,0.34607 -1.13431,1.03818 l 0,1.61495 1.71108,0"
         style="font-size:19.687006px;font-variant:normal;font-stretch:normal;font-family:Denemo;-inkscape-font-specification:Denemo"
         id="path3045" />
      <path
         d="m 557.66988,230.40049 c 1.48677,1e-5 2.6339,0.49347 3.44138,1.48037 0.82029,0.9741 1.23043,2.35194 1.23044,4.1335 -10e-6,1.69186 -0.41656,3.02483 -1.24966,3.99892 -0.83312,0.9741 -1.96743,1.46115 -3.40293,1.46115 -1.47397,0 -2.62109,-0.48705 -3.44138,-1.46115 -0.8203,-0.98691 -1.23044,-2.34551 -1.23044,-4.07582 0,-1.7303 0.41014,-3.0825 1.23044,-4.0566 0.8331,-0.9869 1.97382,-1.48036 3.42215,-1.48037 m 0.0192,1.51882 c -0.92283,1e-5 -1.647,0.35889 -2.17249,1.07663 -0.52551,0.71777 -0.78826,1.69827 -0.78825,2.94152 -1e-5,1.24326 0.26274,2.22376 0.78825,2.94152 0.52549,0.71775 1.24966,1.07663 2.17249,1.07663 0.91,0 1.62776,-0.35888 2.15326,-1.07663 0.5255,-0.71776 0.78825,-1.67904 0.78825,-2.88384 0,-1.26889 -0.25635,-2.26221 -0.76902,-2.97997 -0.51269,-0.73056 -1.23685,-1.09585 -2.17249,-1.09586"
         style="font-size:19.687006px;font-variant:normal;font-stretch:normal;font-family:Denemo;-inkscape-font-specification:Denemo"
         id="path3047" />
      <path
         d="m 569.16679,232.13079 c -1.10227,0.0257 -1.92897,0.28199 -2.4801,0.76903 -0.55114,0.48705 -0.82671,1.40347 -0.8267,2.74926 l 0,5.36394 -1.6534,0 0,-10.32415 1.51882,0 0,1.88411 c 0.47422,-0.76901 0.92923,-1.32015 1.36501,-1.6534 0.43578,-0.34605 0.91642,-0.51908 1.44192,-0.51909 0.14099,1e-5 0.35247,0.0192 0.63445,0.0577 l 0,1.67262"
         style="font-size:19.687006px;font-variant:normal;font-stretch:normal;font-family:Denemo;-inkscape-font-specification:Denemo"
         id="path3049" />
      <path
         d="m 570.57025,230.68887 1.51883,0 0,1.46115 c 0.44859,-0.61521 0.91641,-1.0574 1.40346,-1.32657 0.48705,-0.28196 1.07022,-0.42295 1.74953,-0.42296 1.26889,1e-5 2.19812,0.52551 2.78771,1.5765 0.48704,-0.57676 0.96127,-0.9805 1.4227,-1.21121 0.47422,-0.24352 1.05739,-0.36528 1.74953,-0.36529 0.96126,1e-5 1.69824,0.24994 2.21094,0.7498 0.51267,0.48705 0.76901,1.1984 0.76902,2.13404 l 0,7.72869 -1.6534,0 0,-7.11347 c -10e-6,-0.65367 -0.16663,-1.15994 -0.49986,-1.51882 -0.33326,-0.35887 -0.80108,-0.53831 -1.40347,-0.53832 -0.6665,1e-5 -1.23686,0.26276 -1.71108,0.78825 -0.47424,0.52551 -0.71135,1.15995 -0.71135,1.90333 l 0,6.47903 -1.6534,0 0,-7.11347 c 0,-0.65367 -0.16663,-1.15994 -0.49986,-1.51882 -0.33325,-0.35887 -0.80107,-0.53831 -1.40347,-0.53832 -0.66649,1e-5 -1.23685,0.26276 -1.71108,0.78825 -0.47423,0.52551 -0.71135,1.15995 -0.71134,1.90333 l 0,6.47903 -1.65341,0 0,-10.32415"
         style="font-size:19.687006px;font-variant:normal;font-stretch:normal;font-family:Denemo;-inkscape-font-specification:Denemo"
         id="path3051" />
      <path
         d="m 586.46982,233.74574 c 0.0769,-2.23016 1.45473,-3.34524 4.1335,-3.34525 1.26888,1e-5 2.23016,0.24353 2.88384,0.73057 0.65366,0.47424 0.9805,1.16636 0.98051,2.07637 l 0,6.07528 c -10e-6,0.53832 0.29478,0.80748 0.88437,0.80748 0.11535,0 0.23711,-0.0128 0.36529,-0.0385 l 0,1.23043 c -0.46142,0.11536 -0.83953,0.17944 -1.13431,0.19226 -0.52551,0 -0.92284,-0.12176 -1.19199,-0.36529 -0.25635,-0.24352 -0.42297,-0.62803 -0.49986,-1.15353 -1.10228,1.01255 -2.26863,1.51882 -3.49906,1.51882 -1.03819,0 -1.86488,-0.27557 -2.4801,-0.8267 -0.6024,-0.55113 -0.9036,-1.29452 -0.9036,-2.23017 0,-0.30761 0.0256,-0.58317 0.0769,-0.8267 0.0641,-0.25634 0.12817,-0.47423 0.19225,-0.65367 0.0769,-0.19225 0.20508,-0.37169 0.38452,-0.53832 0.19225,-0.16661 0.35246,-0.30119 0.48064,-0.40373 0.12816,-0.10254 0.33965,-0.20507 0.63444,-0.30761 0.29479,-0.10253 0.51909,-0.17303 0.6729,-0.21148 0.1538,-0.0513 0.42936,-0.10894 0.8267,-0.17304 0.39732,-0.0641 0.6857,-0.10893 0.86515,-0.13457 0.17943,-0.0256 0.50627,-0.0705 0.9805,-0.13458 0.64085,-0.0769 1.08304,-0.19866 1.32657,-0.36529 0.25633,-0.17943 0.3845,-0.44218 0.38451,-0.78825 l 0,-0.42296 c -10e-6,-0.49986 -0.19867,-0.87796 -0.59599,-1.13431 -0.39734,-0.26915 -0.96129,-0.40373 -1.69185,-0.40374 -0.75622,1e-5 -1.33298,0.14741 -1.73031,0.44219 -0.39733,0.2948 -0.62804,0.75621 -0.69212,1.38424 l -1.6534,0 m 3.28758,6.28677 c 0.91,0 1.64698,-0.23711 2.21094,-0.71135 0.57676,-0.48704 0.86514,-1.00613 0.86515,-1.55727 l 0,-1.84566 c -0.33325,0.15381 -0.83311,0.28198 -1.4996,0.38452 -0.65367,0.10254 -1.22403,0.19866 -1.71107,0.28838 -0.47424,0.0769 -0.91002,0.26275 -1.30734,0.55754 -0.39733,0.2948 -0.596,0.70494 -0.596,1.23044 0,0.5255 0.17944,0.93565 0.53832,1.23044 0.35887,0.28197 0.85874,0.42296 1.4996,0.42296"
         style="font-size:19.687006px;font-variant:normal;font-stretch:normal;font-family:Denemo;-inkscape-font-specification:Denemo"
         id="path3053" />
      <path
         d="m 600.71598,230.68887 0,1.34579 -1.69185,0 0,7.07502 c 0,0.3717 0.0577,0.62163 0.17303,0.7498 0.12817,0.11535 0.37169,0.17303 0.73058,0.17303 0.33323,0 0.59598,-0.0256 0.78824,-0.0769 l 0,1.36502 c -0.51268,0.0897 -0.96128,0.14098 -1.34579,0.1538 -0.64085,0 -1.13431,-0.14099 -1.48037,-0.42296 -0.33324,-0.28198 -0.49986,-0.68572 -0.49986,-1.21122 l 0,-7.80559 -1.40347,0 0,-1.34579 1.40347,0 0,-2.82616 1.63417,0 0,2.82616 1.69185,0"
         style="font-size:19.687006px;font-variant:normal;font-stretch:normal;font-family:Denemo;-inkscape-font-specification:Denemo"
         id="path3055" />
      <path
         d="m 603.94588,230.82345 0,10.30492 -1.63418,0 0,-10.30492 1.63418,0 m 0,-4.15273 0,2.05714 -1.6534,0 0,-2.05714 1.6534,0"
         style="font-size:19.687006px;font-variant:normal;font-stretch:normal;font-family:Denemo;-inkscape-font-specification:Denemo"
         id="path3057" />
      <path
         d="m 614.36615,234.16871 -1.6534,0 c -0.10254,-0.71775 -0.36529,-1.26889 -0.78825,-1.65341 -0.41015,-0.39732 -0.96128,-0.59598 -1.6534,-0.59599 -0.8972,1e-5 -1.59572,0.3653 -2.09559,1.09586 -0.49986,0.73058 -0.7498,1.73672 -0.74979,3.01842 -10e-6,1.21762 0.25633,2.1789 0.76902,2.88384 0.51268,0.69212 1.21762,1.03818 2.11481,1.03818 1.40987,0 2.24939,-0.8267 2.51856,-2.4801 l 1.6534,0 c -0.10255,1.25607 -0.5191,2.23658 -1.24967,2.94151 -0.73058,0.70494 -1.71749,1.05741 -2.96074,1.05741 -1.40988,0 -2.52496,-0.48705 -3.34525,-1.46115 -0.80748,-0.98691 -1.21121,-2.31347 -1.21121,-3.97969 0,-1.70466 0.41655,-3.06968 1.24966,-4.09505 0.83311,-1.02536 1.94178,-1.53804 3.32603,-1.53805 1.19198,1e-5 2.14685,0.32684 2.86461,0.9805 0.71775,0.64087 1.12149,1.5701 1.21121,2.78772"
         style="font-size:19.687006px;font-variant:normal;font-stretch:normal;font-family:Denemo;-inkscape-font-specification:Denemo"
         id="path3059" />
      <path
         d="m 615.53892,233.74574 c 0.0769,-2.23016 1.45473,-3.34524 4.1335,-3.34525 1.26888,1e-5 2.23016,0.24353 2.88384,0.73057 0.65366,0.47424 0.98049,1.16636 0.9805,2.07637 l 0,6.07528 c -10e-6,0.53832 0.29478,0.80748 0.88438,0.80748 0.11534,0 0.2371,-0.0128 0.36529,-0.0385 l 0,1.23043 c -0.46143,0.11536 -0.83953,0.17944 -1.13431,0.19226 -0.52551,0 -0.92284,-0.12176 -1.19199,-0.36529 -0.25635,-0.24352 -0.42297,-0.62803 -0.49987,-1.15353 -1.10227,1.01255 -2.26862,1.51882 -3.49905,1.51882 -1.03819,0 -1.86489,-0.27557 -2.48011,-0.8267 -0.6024,-0.55113 -0.9036,-1.29452 -0.9036,-2.23017 0,-0.30761 0.0256,-0.58317 0.0769,-0.8267 0.0641,-0.25634 0.12817,-0.47423 0.19226,-0.65367 0.0769,-0.19225 0.20507,-0.37169 0.38451,-0.53832 0.19226,-0.16661 0.35247,-0.30119 0.48064,-0.40373 0.12817,-0.10254 0.33965,-0.20507 0.63445,-0.30761 0.29479,-0.10253 0.51908,-0.17303 0.67289,-0.21148 0.1538,-0.0513 0.42937,-0.10894 0.8267,-0.17304 0.39733,-0.0641 0.68571,-0.10893 0.86515,-0.13457 0.17944,-0.0256 0.50627,-0.0705 0.98051,-0.13458 0.64085,-0.0769 1.08303,-0.19866 1.32656,-0.36529 0.25634,-0.17943 0.38451,-0.44218 0.38452,-0.78825 l 0,-0.42296 c -1e-5,-0.49986 -0.19868,-0.87796 -0.596,-1.13431 -0.39733,-0.26915 -0.96128,-0.40373 -1.69185,-0.40374 -0.75621,1e-5 -1.33298,0.14741 -1.7303,0.44219 -0.39733,0.2948 -0.62804,0.75621 -0.69212,1.38424 l -1.6534,0 m 3.28757,6.28677 c 0.91001,0 1.64699,-0.23711 2.21094,-0.71135 0.57677,-0.48704 0.86515,-1.00613 0.86516,-1.55727 l 0,-1.84566 c -0.33325,0.15381 -0.83312,0.28198 -1.4996,0.38452 -0.65368,0.10254 -1.22403,0.19866 -1.71108,0.28838 -0.47423,0.0769 -0.91001,0.26275 -1.30734,0.55754 -0.39733,0.2948 -0.59599,0.70494 -0.59599,1.23044 0,0.5255 0.17944,0.93565 0.53832,1.23044 0.35887,0.28197 0.85873,0.42296 1.49959,0.42296"
         style="font-size:19.687006px;font-variant:normal;font-stretch:normal;font-family:Denemo;-inkscape-font-specification:Denemo"
         id="path3061" />
    </g>
    <g
       transform="scale(1.0468099,0.95528328)"
       style="font-size:43.30635834px;font-style:normal;font-weight:normal;line-height:125%;letter-spacing:0px;word-spacing:0px;fill:#ff0000;fill-opacity:1;stroke:none;font-family:Sans"
       id="text5758-7-7-5-5">
      <path
         d="m 540.86983,224.37784 0,14.19722 -1.84601,0 0,-14.19722 1.84601,0"
         style="font-size:19.48786354px;font-variant:normal;font-stretch:normal;fill:#ff0000;font-family:Denemo;-inkscape-font-specification:Denemo"
         id="path3040" />
    </g>
    <g
       transform="scale(0.98297082,1.0173242)"
       style="font-size:40.66534424px;font-style:normal;font-weight:normal;line-height:125%;letter-spacing:0px;word-spacing:0px;fill:#ff0000;fill-opacity:1;stroke:none;font-family:Sans"
       id="text5758-7-7-8-9">
      <path
         d="m 458.13872,217.94971 0,4.57485 7.8809,0 0,1.50112 -9.5786,0 0,-13.3314 9.23906,0 0,1.48325 -7.54136,0 0,4.27105 7.2733,0 0,1.50113 -7.2733,0"
         style="font-size:18.29940796px;font-variant:normal;font-stretch:normal;fill:#ff0000;font-family:Denemo;-inkscape-font-specification:Denemo"
         id="path3037" />
    </g>
    <g
       transform="scale(0.98297082,1.0173242)"
       style="font-size:40.66534424px;font-style:normal;font-weight:normal;line-height:125%;letter-spacing:0px;word-spacing:0px;fill:#ff0000;fill-opacity:1;stroke:none;font-family:Sans"
       id="text5758-7-7-8-5-5">
      <path
         d="m 373.60119,217.94971 0,4.57485 7.88089,0 0,1.50112 -9.57859,0 0,-13.3314 9.23905,0 0,1.48325 -7.54135,0 0,4.27105 7.2733,0 0,1.50113 -7.2733,0"
         style="font-size:18.29940796px;font-variant:normal;font-stretch:normal;fill:#ff0000;font-family:Denemo;-inkscape-font-specification:Denemo"
         id="path3034" />
    </g>
    <g
       transform="scale(1.0468099,0.95528328)"
       style="font-size:43.30635834px;font-style:normal;font-weight:normal;line-height:125%;letter-spacing:0px;word-spacing:0px;fill:#000000;fill-opacity:1;stroke:none;font-family:Sans"
       id="text5758-6-9">
      <path
         d="m 242.28499,224.37784 0,14.19722 -1.44636,0 0,-1.35121 c -0.44407,0.63437 -0.92619,1.09112 -1.44637,1.37024 -0.5075,0.29181 -1.11015,0.43771 -1.80795,0.43771 -1.38294,0 -2.46771,-0.4948 -3.25433,-1.48442 -0.78662,-1.00231 -1.17993,-2.3662 -1.17992,-4.09169 -1e-5,-1.62398 0.39965,-2.92444 1.19896,-3.90138 0.7993,-0.98961 1.8587,-1.48442 3.17819,-1.48443 1.4083,10e-6 2.45501,0.52654 3.14014,1.57958 l 0,-5.27162 1.61764,0 m -4.49134,5.21453 c -0.88813,1e-5 -1.60496,0.36794 -2.15052,1.10381 -0.53287,0.72319 -0.79931,1.67474 -0.79931,2.85466 0,1.19262 0.27278,2.15052 0.81834,2.8737 0.54556,0.72319 1.2624,1.08478 2.15052,1.08478 0.86274,0 1.5542,-0.35525 2.07439,-1.06575 0.52018,-0.72318 0.78027,-1.67473 0.78028,-2.85466 -1e-5,-1.21799 -0.2601,-2.18858 -0.78028,-2.91177 -0.52019,-0.72317 -1.218,-1.08476 -2.09342,-1.08477"
         style="font-size:19.48786354px;font-variant:normal;font-stretch:normal;font-family:Denemo;-inkscape-font-specification:Denemo"
         id="path3029" />
      <path
         d="m 246.18637,228.48857 0,10.20067 -1.61764,0 0,-10.20067 1.61764,0 m 0,-4.11073 0,2.03633 -1.63668,0 0,-2.03633 1.63668,0"
         style="font-size:19.48786354px;font-variant:normal;font-stretch:normal;font-family:Denemo;-inkscape-font-specification:Denemo"
         id="path3031" />
    </g>
    <g
       transform="scale(1.0629505,0.94077758)"
       style="font-size:43.97409439px;font-style:normal;font-weight:normal;line-height:125%;letter-spacing:0px;word-spacing:0px;fill:#000000;fill-opacity:1;stroke:none;font-family:Sans"
       id="text5758-70-0-1-3">
      <path
         d="m 523.13862,237.61571 -7.6332,0 c 0.0129,0.95335 0.19968,1.69412 0.56041,2.22232 0.56685,0.90182 1.3978,1.35272 2.49287,1.35272 1.33983,0 2.24164,-0.69568 2.70543,-2.08705 l 1.66192,0 c -0.20614,1.13371 -0.70214,2.02264 -1.48799,2.66679 -0.77299,0.63127 -1.7521,0.9469 -2.93734,0.9469 -1.45578,0 -2.60881,-0.48955 -3.45909,-1.46867 -0.8374,-0.99199 -1.2561,-2.33826 -1.2561,-4.03883 0,-1.70055 0.43158,-3.05971 1.29475,-4.07748 0.86316,-1.03063 2.01619,-1.54595 3.45909,-1.54596 0.97911,10e-6 1.83583,0.24479 2.57017,0.73433 0.74721,0.48957 1.28829,1.15304 1.62326,1.99043 0.27053,0.72146 0.40581,1.82296 0.40582,3.3045 m -7.59455,-1.3334 5.81669,0 c 0.0129,-0.0258 0.0193,-0.0644 0.0193,-0.11594 -10e-6,-0.86316 -0.27699,-1.58461 -0.83095,-2.16435 -0.55398,-0.59261 -1.23034,-0.88892 -2.02908,-0.88893 -0.8374,1e-5 -1.52665,0.28987 -2.06773,0.8696 -0.54109,0.56686 -0.84384,1.3334 -0.90825,2.29962"
         style="font-size:19.78834343px;font-variant:normal;font-stretch:normal;font-family:Denemo;-inkscape-font-specification:Denemo"
         id="path3026" />
    </g>
    <g
       transform="scale(1.0629505,0.94077758)"
       style="font-size:43.97409439px;font-style:normal;font-weight:normal;line-height:125%;letter-spacing:0px;word-spacing:0px;fill:#000000;fill-opacity:1;stroke:none;font-family:Sans"
       id="text5758-70-0-1-4-8">
      <path
         d="m 409.75721,240.36273 2.08705,0 0,2.3576 c 0,1.72632 -0.69569,2.59592 -2.08705,2.60881 l 0,-0.75366 c 0.46379,-0.0129 0.77942,-0.14815 0.9469,-0.40581 0.16748,-0.24478 0.25122,-0.71501 0.25122,-1.4107 l 0,-0.34784 -1.19812,0 0,-2.0484"
         style="font-size:19.78834343px;font-variant:normal;font-stretch:normal;font-family:Denemo;-inkscape-font-specification:Denemo"
         id="path3023" />
    </g>
  </g>
</svg>
