<?xml version="1.0" encoding="UTF-8" standalone="no"?>
<!-- Created with Inkscape (http://www.inkscape.org/) -->

<svg
   xmlns:dc="http://purl.org/dc/elements/1.1/"
   xmlns:cc="http://creativecommons.org/ns#"
   xmlns:rdf="http://www.w3.org/1999/02/22-rdf-syntax-ns#"
   xmlns:svg="http://www.w3.org/2000/svg"
   xmlns="http://www.w3.org/2000/svg"
   xmlns:xlink="http://www.w3.org/1999/xlink"
   xmlns:sodipodi="http://sodipodi.sourceforge.net/DTD/sodipodi-0.dtd"
   xmlns:inkscape="http://www.inkscape.org/namespaces/inkscape"
   width="787.93195"
   height="229.37416"
   id="svg2"
   version="1.1"
   inkscape:version="0.48.4 r9939"
   sodipodi:docname="logo_def.svg">
  <defs
     id="defs4">
    <linearGradient
       id="linearGradient3096">
      <stop
         style="stop-color:#c8b7b7;stop-opacity:1;"
         offset="0"
         id="stop3098" />
      <stop
         style="stop-color:#c8b7b7;stop-opacity:0;"
         offset="1"
         id="stop3100" />
    </linearGradient>
    <radialGradient
       inkscape:collect="always"
       xlink:href="#linearGradient3096"
       id="radialGradient3872"
       cx="667.30652"
       cy="270.46509"
       fx="667.30652"
       fy="270.46509"
       r="391.40417"
       gradientTransform="matrix(1.8515544,-1.3237356e-8,0,0.08652824,-89.247116,497.91831)"
       gradientUnits="userSpaceOnUse" />
    <filter
       id="filter3999"
       inkscape:label="Glow"
       inkscape:menu="Shadows and Glows"
       inkscape:menu-tooltip="Glow of object's own color at the edges"
       color-interpolation-filters="sRGB">
      <feGaussianBlur
         id="feGaussianBlur4001"
         stdDeviation="5"
         result="result91" />
      <feComposite
         id="feComposite4003"
         in2="result91"
         in="SourceGraphic"
         operator="over" />
    </filter>
    <filter
       id="filter3999-0"
       inkscape:label="Glow"
       inkscape:menu="Shadows and Glows"
       inkscape:menu-tooltip="Glow of object's own color at the edges"
       color-interpolation-filters="sRGB">
      <feGaussianBlur
         id="feGaussianBlur4001-0"
         stdDeviation="5"
         result="result91" />
      <feComposite
         id="feComposite4003-3"
         in2="result91"
         in="SourceGraphic"
         operator="over" />
    </filter>
    <filter
       id="filter4891"
       inkscape:label="Glow"
       inkscape:menu="Shadows and Glows"
       inkscape:menu-tooltip="Glow of object's own color at the edges"
       color-interpolation-filters="sRGB">
      <feGaussianBlur
         id="feGaussianBlur4893"
         stdDeviation="5"
         result="result91" />
      <feComposite
         id="feComposite4895"
         in2="result91"
         in="SourceGraphic"
         operator="over" />
    </filter>
    <filter
       id="filter3999-1"
       inkscape:label="Glow"
       inkscape:menu="Shadows and Glows"
       inkscape:menu-tooltip="Glow of object's own color at the edges"
       color-interpolation-filters="sRGB">
      <feGaussianBlur
         id="feGaussianBlur4001-3"
         stdDeviation="5"
         result="result91" />
      <feComposite
         id="feComposite4003-34"
         in2="result91"
         in="SourceGraphic"
         operator="over" />
    </filter>
    <filter
       id="filter4891-2"
       inkscape:label="Glow"
       inkscape:menu="Shadows and Glows"
       inkscape:menu-tooltip="Glow of object's own color at the edges"
       color-interpolation-filters="sRGB">
      <feGaussianBlur
         id="feGaussianBlur4893-9"
         stdDeviation="5"
         result="result91" />
      <feComposite
         id="feComposite4895-3"
         in2="result91"
         in="SourceGraphic"
         operator="over" />
    </filter>
    <filter
       id="filter4126"
       inkscape:label="Invert"
       x="0"
       y="0"
       width="1"
       height="1"
       inkscape:menu="Color"
       inkscape:menu-tooltip="Invert colors"
       color-interpolation-filters="sRGB">
      <feColorMatrix
         id="feColorMatrix4128"
         type="saturate"
         values="1"
         result="fbSourceGraphic" />
      <feColorMatrix
         id="feColorMatrix4130"
         in="fbSourceGraphic"
         values="-1 0 0 0 1 0 -1 0 0 1 0 0 -1 0 1 0 0 0 1 0 " />
    </filter>
  </defs>
  <sodipodi:namedview
     id="base"
     pagecolor="#ffffff"
     bordercolor="#666666"
     borderopacity="1.0"
     inkscape:pageopacity="0.0"
     inkscape:pageshadow="2"
     inkscape:zoom="5.6"
     inkscape:cx="506.14993"
     inkscape:cy="149.92913"
     inkscape:document-units="px"
     inkscape:current-layer="layer1"
     showgrid="false"
     inkscape:window-width="1680"
     inkscape:window-height="992"
     inkscape:window-x="0"
     inkscape:window-y="26"
     inkscape:window-maximized="1"
     showguides="true"
     inkscape:guide-bbox="true"
     fit-margin-top="0"
     fit-margin-left="0"
     fit-margin-right="0"
     fit-margin-bottom="0">
    <sodipodi:guide
       orientation="0,1"
       position="535.19492,-867.39255"
       id="guide3255" />
    <sodipodi:guide
       orientation="0,1"
       position="581.15687,-1310.8495"
       id="guide3469" />
    <sodipodi:guide
       orientation="0,1"
       position="658.49089,-1228.4297"
       id="guide3471" />
    <sodipodi:guide
       orientation="1,0"
       position="75.633754,-1141.2869"
       id="guide3563" />
    <sodipodi:guide
       orientation="0,1"
       position="223.05779,-1426.512"
       id="guide3628" />
    <sodipodi:guide
       orientation="0,1"
       position="86.182124,-1344.1846"
       id="guide3651" />
    <sodipodi:guide
       orientation="1,0"
       position="56.382624,-1273.979"
       id="guide3653" />
    <sodipodi:guide
       orientation="0,1"
       position="414.20518,-1697.7154"
       id="guide3874" />
    <sodipodi:guide
       orientation="0,1"
       position="250.63375,-1710.9297"
       id="guide3876" />
    <sodipodi:guide
       orientation="0,1"
       position="91.785714,197.14286"
       id="guide3339" />
    <sodipodi:guide
       orientation="0,1"
       position="105.89286,119.64286"
       id="guide3341" />
  </sodipodi:namedview>
  <metadata
     id="metadata7">
    <rdf:RDF>
      <cc:Work
         rdf:about="">
        <dc:format>image/svg+xml</dc:format>
        <dc:type
           rdf:resource="http://purl.org/dc/dcmitype/StillImage" />
        <dc:title />
      </cc:Work>
    </rdf:RDF>
  </metadata>
  <g
     inkscape:label="Livello 1"
     inkscape:groupmode="layer"
     id="layer1"
     transform="translate(934.20518,716.15597)">
    <path
       sodipodi:type="arc"
       style="fill:#ffffff"
       id="path3993-6-0-4-2"
       sodipodi:cx="112.14286"
       sodipodi:cy="633.07648"
       sodipodi:rx="57.857143"
       sodipodi:ry="57.857143"
       d="m 170,633.07648 c 0,31.95362 -25.90352,57.85714 -57.85714,57.85714 -31.953618,0 -57.857143,-25.90352 -57.857143,-57.85714 0,-31.95362 25.903525,-57.85715 57.857143,-57.85715 31.95362,0 57.85714,25.90353 57.85714,57.85715 z"
       transform="matrix(0.69301916,0,0,0.71226969,-469.93387,-1096.2159)" />
    <text
       xml:space="preserve"
       style="font-size:1.55446959px;font-style:normal;font-weight:normal;line-height:125%;letter-spacing:0px;word-spacing:0px;fill:#000000;fill-opacity:1;stroke:none;font-family:Sans"
       x="-395.32227"
       y="-682.89374"
       id="text3014-4-1-5-3"
       sodipodi:linespacing="125%"><tspan
         sodipodi:role="line"
         id="tspan3016-7-2-1-7"
         x="-394.85623"
         y="-682.89374"
         style="font-style:normal;font-variant:normal;font-weight:normal;font-stretch:normal;text-align:center;text-anchor:middle;fill:#000000;stroke:none;font-family:Monospace;-inkscape-font-specification:Monospace">                                       with open('ZenCodes.                                  </tspan><tspan
         sodipodi:role="line"
         x="-394.85623"
         y="-680.95062"
         id="tspan3018-9-8-7-7"
         style="font-style:normal;font-variant:normal;font-weight:normal;font-stretch:normal;text-align:center;text-anchor:middle;fill:#000000;stroke:none;font-family:Monospace;-inkscape-font-specification:Monospace">                                 `num` in numbers    synchronized                            </tspan><tspan
         sodipodi:role="line"
         x="-394.85623"
         y="-679.00757"
         id="tspan3020-9-0-1-7"
         style="font-style:normal;font-variant:normal;font-weight:normal;font-stretch:normal;text-align:center;text-anchor:middle;fill:#000000;stroke:none;font-family:Monospace;-inkscape-font-specification:Monospace">                             datetime d      glob.      sys.argv[2] .                        </tspan><tspan
         sodipodi:role="line"
         x="-394.85623"
         y="-677.06445"
         id="tspan3022-0-0-6-0"
         style="font-style:normal;font-variant:normal;font-weight:normal;font-stretch:normal;text-align:center;text-anchor:middle;fill:#000000;stroke:none;font-family:Monospace;-inkscape-font-specification:Monospace">                          def myclass   `..` @@oscla   org.    .  class {                    </tspan><tspan
         sodipodi:role="line"
         x="-394.85623"
         y="-675.1214"
         id="tspan3024-5-5-4-1"
         style="font-style:normal;font-variant:normal;font-weight:normal;font-stretch:normal;text-align:center;text-anchor:middle;fill:#000000;stroke:none;font-family:Monospace;-inkscape-font-specification:Monospace">                       displ  hooks(   public static void   ma     functor:                  </tspan><tspan
         sodipodi:role="line"
         x="-394.85623"
         y="-673.17828"
         id="tspan3026-2-7-7-0"
         style="font-style:normal;font-variant:normal;font-weight:normal;font-stretch:normal;text-align:center;text-anchor:middle;fill:#000000;stroke:none;font-family:Monospace;-inkscape-font-specification:Monospace">                     $myclass-&gt;method(  impport sys, os.pipe `    @param name`               </tspan><tspan
         sodipodi:role="line"
         x="-394.85623"
         y="-671.23523"
         id="tspan3028-9-4-5-9"
         style="font-style:normal;font-variant:normal;font-weight:normal;font-stretch:normal;text-align:center;text-anchor:middle;fill:#000000;stroke:none;font-family:Monospace;-inkscape-font-specification:Monospace">                   fcl   if(system(cmd) myc.  /de   `  $card(  array(&quot;a&quot;   srand             </tspan><tspan
         sodipodi:role="line"
         x="-394.85623"
         y="-669.29211"
         id="tspan3030-6-2-0-3"
         style="font-style:normal;font-variant:normal;font-weight:normal;font-stretch:normal;text-align:center;text-anchor:middle;fill:#000000;stroke:none;font-family:Monospace;-inkscape-font-specification:Monospace">                 format  lists:  ++:   conc    ++ &quot;my  an    WHERE  for(   == myi            </tspan><tspan
         sodipodi:role="line"
         x="-394.85623"
         y="-667.34906"
         id="tspan3032-3-6-6-7"
         style="font-style:normal;font-variant:normal;font-weight:normal;font-stretch:normal;text-align:center;text-anchor:middle;fill:#000000;stroke:none;font-family:Monospace;-inkscape-font-specification:Monospace">               `sys:  myvalue(myvalue) sys.t    Console.W   try{    rais     using           </tspan><tspan
         sodipodi:role="line"
         x="-394.85623"
         y="-665.40594"
         id="tspan3034-9-2-6-2"
         style="font-style:normal;font-variant:normal;font-weight:normal;font-stretch:normal;text-align:center;text-anchor:middle;fill:#000000;stroke:none;font-family:Monospace;-inkscape-font-specification:Monospace">              connec  SELECT * FROM table mycnf  acco desc and or selector::clas  at         </tspan><tspan
         sodipodi:role="line"
         x="-394.85623"
         y="-663.46289"
         id="tspan3036-8-0-7-6"
         style="font-style:normal;font-variant:normal;font-weight:normal;font-stretch:normal;text-align:center;text-anchor:middle;fill:#000000;stroke:none;font-family:Monospace;-inkscape-font-specification:Monospace">             openldap string  sys.   print &quot;zenc der &quot; { 'a':   `ls -l` &gt;  appe &amp;firs        </tspan><tspan
         sodipodi:role="line"
         x="-394.85623"
         y="-661.51978"
         id="tspan3038-5-1-8-3"
         style="font-style:normal;font-variant:normal;font-weight:normal;font-stretch:normal;text-align:center;text-anchor:middle;fill:#000000;stroke:none;font-family:Monospace;-inkscape-font-specification:Monospace">            import Tkinter    paste( $obh  &amp;a or it myval  bro roll:   :: [] require a       </tspan><tspan
         sodipodi:role="line"
         x="-394.85623"
         y="-659.57672"
         id="tspan3040-6-4-4-0"
         style="font-style:normal;font-variant:normal;font-weight:normal;font-stretch:normal;text-align:center;text-anchor:middle;fill:#000000;stroke:none;font-family:Monospace;-inkscape-font-specification:Monospace">           case `` super. +y  &lt;svg x=&quot;100&quot;&gt;   expr    say &quot; %rooms 1  --account fb-  yy      </tspan><tspan
         sodipodi:role="line"
         x="-394.85623"
         y="-657.63361"
         id="tspan3042-9-5-0-7"
         style="font-style:normal;font-variant:normal;font-weight:normal;font-stretch:normal;text-align:center;text-anchor:middle;fill:#000000;stroke:none;font-family:Monospace;-inkscape-font-specification:Monospace">          proc     meth Animate =&gt; send(D, open)     putd    EndIf 10  whi    myc`  cont     </tspan><tspan
         sodipodi:role="line"
         x="-394.85623"
         y="-655.69049"
         id="tspan3044-2-3-1-0"
         style="font-style:normal;font-variant:normal;font-weight:normal;font-stretch:normal;text-align:center;text-anchor:middle;fill:#000000;stroke:none;font-family:Monospace;-inkscape-font-specification:Monospace">         and     main (--) import loop $$ or  end onload   UNION WITH tab    timer 150 *2    </tspan><tspan
         sodipodi:role="line"
         x="-394.85623"
         y="-653.74744"
         id="tspan3046-2-6-9-9"
         style="font-style:normal;font-variant:normal;font-weight:normal;font-stretch:normal;text-align:center;text-anchor:middle;fill:#000000;stroke:none;font-family:Monospace;-inkscape-font-specification:Monospace">         end. begin True  GtkLabel *label    doto partition te    let auto  i&lt;- (i + d ) ;   </tspan><tspan
         sodipodi:role="line"
         x="-394.85623"
         y="-651.80432"
         id="tspan3048-2-4-2-2"
         style="font-style:normal;font-variant:normal;font-weight:normal;font-stretch:normal;text-align:center;text-anchor:middle;fill:#000000;stroke:none;font-family:Monospace;-inkscape-font-specification:Monospace">        .mushup ``/.   ^/zenc/    myclass-&gt;her flv    op             &lt;&gt; element &gt;&gt; 71   or   </tspan><tspan
         sodipodi:role="line"
         x="-394.85623"
         y="-649.86127"
         id="tspan3050-0-1-8-9"
         style="font-style:normal;font-variant:normal;font-weight:normal;font-stretch:normal;text-align:center;text-anchor:middle;fill:#000000;stroke:none;font-family:Monospace;-inkscape-font-specification:Monospace">        QFileDi   :   and  ..    with myc   toA  channel::bo    myc isEmpty a  not   bodt;  </tspan><tspan
         sodipodi:role="line"
         x="-394.85623"
         y="-647.91815"
         id="tspan3052-9-7-1-8"
         style="font-style:normal;font-variant:normal;font-weight:normal;font-stretch:normal;text-align:center;text-anchor:middle;fill:#000000;stroke:none;font-family:Monospace;-inkscape-font-specification:Monospace">        class T   public pol    str    mycalc d   pt &amp;&amp;a     *i fc  add                ^ac  </tspan><tspan
         sodipodi:role="line"
         x="-394.85623"
         y="-645.9751"
         id="tspan3054-6-5-6-0"
         style="font-style:normal;font-variant:normal;font-weight:normal;font-stretch:normal;text-align:center;text-anchor:middle;fill:#000000;stroke:none;font-family:Monospace;-inkscape-font-specification:Monospace">        ::ZenCoders::core::namespac   boost::function st  f = std:   ;;      int     assert </tspan><tspan
         sodipodi:role="line"
         x="-394.85623"
         y="-644.03198"
         id="tspan3056-4-1-6-2"
         style="font-style:normal;font-variant:normal;font-weight:normal;font-stretch:normal;text-align:center;text-anchor:middle;fill:#000000;stroke:none;font-family:Monospace;-inkscape-font-specification:Monospace">        cou   &lt;&lt; endl   public genera    #include &quot;b ost   ::ac myna  const cast&lt;char*&gt; mys </tspan><tspan
         sodipodi:role="line"
         x="-394.85623"
         y="-642.08893"
         id="tspan3058-3-5-3-7"
         style="font-style:normal;font-variant:normal;font-weight:normal;font-stretch:normal;text-align:center;text-anchor:middle;fill:#000000;stroke:none;font-family:Monospace;-inkscape-font-specification:Monospace">        &amp;ac   size_t   return ran  int (*getNextValue)(void) ff   double  sa_family_t famil </tspan><tspan
         sodipodi:role="line"
         x="-394.85623"
         y="-640.14581"
         id="tspan3060-3-9-2-4"
         style="font-style:normal;font-variant:normal;font-weight:normal;font-stretch:normal;text-align:center;text-anchor:middle;fill:#000000;stroke:none;font-family:Monospace;-inkscape-font-specification:Monospace">        pu         a   do puts(&quot;       ac    int main(int argc, char*    &quot;%5d    struct nam </tspan><tspan
         sodipodi:role="line"
         x="-394.85623"
         y="-638.20276"
         id="tspan3062-2-5-3-7"
         style="font-style:normal;font-variant:normal;font-weight:normal;font-stretch:normal;text-align:center;text-anchor:middle;fill:#000000;stroke:none;font-family:Monospace;-inkscape-font-specification:Monospace">        cs                float       for     typedef     enum  puts             getchar()   </tspan><tspan
         sodipodi:role="line"
         x="-394.85623"
         y="-636.25964"
         id="tspan3064-3-6-2-3"
         style="font-style:normal;font-variant:normal;font-weight:normal;font-stretch:normal;text-align:center;text-anchor:middle;fill:#000000;stroke:none;font-family:Monospace;-inkscape-font-specification:Monospace">        if(                         else      #define      fp    FILE* f           char* s   </tspan><tspan
         sodipodi:role="line"
         x="-394.85623"
         y="-634.31659"
         id="tspan3066-4-4-5-6"
         style="font-style:normal;font-variant:normal;font-weight:normal;font-stretch:normal;text-align:center;text-anchor:middle;fill:#000000;stroke:none;font-family:Monospace;-inkscape-font-specification:Monospace">         i++                                  strcat(            %s                    int   </tspan><tspan
         sodipodi:role="line"
         x="-394.85623"
         y="-632.37347"
         id="tspan3068-8-2-13-1"
         style="font-style:normal;font-variant:normal;font-weight:normal;font-stretch:normal;text-align:center;text-anchor:middle;fill:#000000;stroke:none;font-family:Monospace;-inkscape-font-specification:Monospace">         31]                                  total+=                                  do    </tspan><tspan
         sodipodi:role="line"
         x="-394.85623"
         y="-630.43036"
         id="tspan3070-6-3-8-5"
         style="font-style:normal;font-variant:normal;font-weight:normal;font-stretch:normal;text-align:center;text-anchor:middle;fill:#000000;stroke:none;font-family:Monospace;-inkscape-font-specification:Monospace">          }do                                 while(1)                                sle    </tspan><tspan
         sodipodi:role="line"
         x="-394.85623"
         y="-628.4873"
         id="tspan3072-3-7-6-1"
         style="font-style:normal;font-variant:normal;font-weight:normal;font-stretch:normal;text-align:center;text-anchor:middle;fill:#000000;stroke:none;font-family:Monospace;-inkscape-font-specification:Monospace">          getc                               strcpy( a                               for     </tspan><tspan
         sodipodi:role="line"
         x="-394.85623"
         y="-626.54419"
         id="tspan3074-4-2-9-5"
         style="font-style:normal;font-variant:normal;font-weight:normal;font-stretch:normal;text-align:center;text-anchor:middle;fill:#000000;stroke:none;font-family:Monospace;-inkscape-font-specification:Monospace">           prin                             scanf(%d, &amp;                             get      </tspan><tspan
         sodipodi:role="line"
         x="-394.85623"
         y="-624.60114"
         id="tspan3076-3-4-1-0"
         style="font-style:normal;font-variant:normal;font-weight:normal;font-stretch:normal;text-align:center;text-anchor:middle;fill:#000000;stroke:none;font-family:Monospace;-inkscape-font-specification:Monospace">             int                       void myfunc(int par                       retu        </tspan><tspan
         sodipodi:role="line"
         x="-394.85623"
         y="-622.65802"
         id="tspan3078-0-0-5-8"
         style="font-style:normal;font-variant:normal;font-weight:normal;font-stretch:normal;text-align:center;text-anchor:middle;fill:#000000;stroke:none;font-family:Monospace;-inkscape-font-specification:Monospace">               BEQ                 BGEZAL R1 10 ANDI R1 R2 1                    SYS          </tspan><tspan
         sodipodi:role="line"
         x="-394.85623"
         y="-620.71497"
         id="tspan3080-4-1-08-2"
         style="font-style:normal;font-variant:normal;font-weight:normal;font-stretch:normal;text-align:center;text-anchor:middle;fill:#000000;stroke:none;font-family:Monospace;-inkscape-font-specification:Monospace">                XOR               SYSCAL 5 SLTIU   MFLO 15 SW                 JAL            </tspan><tspan
         sodipodi:role="line"
         x="-394.85623"
         y="-618.77185"
         id="tspan3082-2-7-0-7"
         style="font-style:normal;font-variant:normal;font-weight:normal;font-stretch:normal;text-align:center;text-anchor:middle;fill:#000000;stroke:none;font-family:Monospace;-inkscape-font-specification:Monospace">                  BNE           BLTZAL R1 1 LUI   001 NOOP MULTU            SLLV             </tspan><tspan
         sodipodi:role="line"
         x="-394.85623"
         y="-616.8288"
         id="tspan3084-2-0-0-0"
         style="font-style:normal;font-variant:normal;font-weight:normal;font-stretch:normal;text-align:center;text-anchor:middle;fill:#000000;stroke:none;font-family:Monospace;-inkscape-font-specification:Monospace">                    MOV R1     ADD R1 R2  JUMP   10 1001 BEQ R1 R2 1      AND                </tspan><tspan
         sodipodi:role="line"
         x="-394.85623"
         y="-614.88568"
         id="tspan3086-9-8-5-5"
         style="font-style:normal;font-variant:normal;font-weight:normal;font-stretch:normal;text-align:center;text-anchor:middle;fill:#000000;stroke:none;font-family:Monospace;-inkscape-font-specification:Monospace">                       1101  1010001100  111 001 01  1010 101100 1001   100                  </tspan><tspan
         sodipodi:role="line"
         x="-394.85623"
         y="-612.94263"
         id="tspan3088-7-4-2-9"
         style="font-style:normal;font-variant:normal;font-weight:normal;font-stretch:normal;text-align:center;text-anchor:middle;fill:#000000;stroke:none;font-family:Monospace;-inkscape-font-specification:Monospace">                         110110 100   0  01  101 01100 100 100 1000100011                    </tspan><tspan
         sodipodi:role="line"
         x="-394.85623"
         y="-610.99951"
         id="tspan3090-3-6-63-9"
         style="font-style:normal;font-variant:normal;font-weight:normal;font-stretch:normal;text-align:center;text-anchor:middle;fill:#000000;stroke:none;font-family:Monospace;-inkscape-font-specification:Monospace">                            11101001001  00   11  100    11  10100010                        </tspan><tspan
         sodipodi:role="line"
         x="-394.85623"
         y="-609.05646"
         id="tspan3092-8-0-9-8"
         style="font-style:normal;font-variant:normal;font-weight:normal;font-stretch:normal;text-align:center;text-anchor:middle;fill:#000000;stroke:none;font-family:Monospace;-inkscape-font-specification:Monospace">                                000101001001 10  1001    101000101                           </tspan><tspan
         sodipodi:role="line"
         x="-394.85623"
         y="-607.11334"
         id="tspan3094-0-2-6-7"
         style="font-style:normal;font-variant:normal;font-weight:normal;font-stretch:normal;text-align:center;text-anchor:middle;fill:#000000;stroke:none;font-family:Monospace;-inkscape-font-specification:Monospace">                                     010010010010110101001010                              </tspan></text>
    <text
       xml:space="preserve"
       style="font-size:171.42919921999995836px;font-style:normal;font-weight:normal;line-height:125%;letter-spacing:0px;word-spacing:0px;fill:#ffffff;fill-opacity:1;stroke:none;font-family:Sans"
       x="-855.88306"
       y="-606.44128"
       id="text3995-1-5-0-4"
       sodipodi:linespacing="125%"><tspan
         sodipodi:role="line"
         id="tspan3997-7-1-2-7"
         x="-855.88306"
         y="-606.44128"
         style="font-style:normal;font-variant:normal;font-weight:normal;font-stretch:normal;fill:#ffffff;font-family:Courier 10 Pitch;-inkscape-font-specification:Courier 10 Pitch">zenc nf</tspan></text>
    <text
       xml:space="preserve"
       style="font-size:102.53664398px;font-style:normal;font-weight:normal;line-height:125%;letter-spacing:0px;word-spacing:0px;fill:#ffffff;fill-opacity:1;stroke:none;font-family:Sans"
       x="-666.36426"
       y="-488.42239"
       id="text4240-6-6-4-0"
       sodipodi:linespacing="125%"><tspan
         sodipodi:role="line"
         id="tspan4242-7-3-7-6"
         x="-666.36426"
         y="-488.42239"
         style="font-style:normal;font-variant:normal;font-weight:normal;font-stretch:normal;fill:#ffffff;font-family:Courier 10 Pitch;-inkscape-font-specification:Courier 10 Pitch">2014</tspan></text>
    <path
       style="fill:#ffffff"
       d="m -934.18601,-615.79092 0,-9.35169 9.35168,0 9.35169,0 0,9.35169 0,9.35168 -9.35169,0 -9.35168,0 0,-9.35168 z m 16.03146,0 0,-6.67978 -6.67978,0 -6.67977,0 0,6.67978 0,6.67978 6.67977,0 6.67978,0 0,-6.67978 z m -10.68765,0 0,-4.00787 4.00787,0 4.00787,0 0,4.00787 0,4.00786 -4.00787,0 -4.00787,0 0,-4.00786 z m 16.03147,4.00786 0,-5.34382 1.33596,0 1.33596,0 0,-2.67191 0,-2.67191 1.33596,0 1.33594,0 0,-2.67191 0,-2.67192 -1.33594,0 -1.33596,0 0,1.33596 0,1.33596 -1.33596,0 -1.33596,0 0,-1.33596 0,-1.33596 -4.00786,0 -4.00787,0 0,-1.33595 0,-1.33595 -1.33596,0 -1.33595,0 0,-4.00788 0,-4.00786 1.33595,0 1.33596,0 0,-1.33596 0,-1.33596 -4.00787,0 -4.00787,0 0,1.33596 0,1.33596 1.33596,0 1.33596,0 0,2.6719 0,2.67192 -1.33596,0 -1.33596,0 0,-2.67192 0,-2.6719 -1.33596,0 -1.33594,0 0,-2.67192 0,-2.6719 5.34382,0 5.34382,0 0,1.33595 0,1.33595 6.67977,0 6.67978,0 0,-1.33595 0,-1.33595 -1.33594,0 -1.33596,0 0,-2.67192 0,-2.6719 -4.00788,0 -4.00786,0 0,1.33596 0,1.33594 2.67191,0 2.67191,0 0,1.33596 0,1.33596 -2.67191,0 -2.67191,0 0,-1.33596 0,-1.33596 -2.67191,0 -2.67191,0 0,-2.6719 0,-2.67191 -1.33596,0 -1.33595,0 0,-1.33595 0,-1.33596 -1.33596,0 -1.33596,0 0,2.67191 0,2.67191 1.33596,0 1.33596,0 0,1.33596 0,1.33594 -1.33596,0 -1.33596,0 0,-1.33594 0,-1.33596 -1.33596,0 -1.33594,0 0,1.33596 0,1.33594 -1.33595,0 -1.33596,0 0,-1.33594 0,-1.33596 1.33596,0 1.33595,0 0,-1.33596 0,-1.33595 -1.33595,0 -1.33596,0 0,-5.34383 0,-5.34382 5.34381,0 5.34383,0 0,1.33596 0,1.33596 1.33595,0 1.33596,0 0,1.33596 0,1.33594 2.67191,0 2.67191,0 0,-1.33594 0,-1.33596 -1.33595,0 -1.33596,0 0,-1.33596 0,-1.33596 1.33596,0 1.33595,0 0,1.33596 0,1.33596 1.33595,0 1.33596,0 0,-1.33596 0,-1.33596 1.33596,0 1.33596,0 0,-1.33596 0,-1.33595 -1.33596,0 -1.33596,0 0,-1.33595 0,-1.33596 1.33596,0 1.33596,0 0,-1.33596 0,-1.33595 -1.33596,0 -1.33596,0 0,-4.00787 0,-4.00787 1.33596,0 1.33596,0 0,1.33596 0,1.33596 1.33596,0 1.33594,0 0,1.33595 0,1.33596 1.33596,0 1.33596,0 0,-2.67191 0,-2.67192 2.67191,0 2.67191,0 0,-1.33596 0,-1.33594 1.33596,0 1.33595,0 0,-1.33596 0,-1.33596 1.33596,0 1.33596,0 0,2.67192 0,2.6719 -1.33596,0 -1.33596,0 0,1.33596 0,1.33596 2.67192,0 2.6719,0 0,-4.00788 0,-4.00786 1.33596,0 1.33596,0 0,4.00786 0,4.00788 1.33596,0 1.33594,0 0,2.67191 0,2.67191 1.33596,0 1.33596,0 0,-2.67191 0,-2.67191 1.33596,0 1.33596,0 0,-1.33596 0,-1.33596 1.33595,0 1.33595,0 0,1.33596 0,1.33596 -1.33595,0 -1.33595,0 0,4.00786 0,4.00787 1.33595,0 1.33595,0 0,1.33596 0,1.33595 -1.33595,0 -1.33595,0 0,1.33595 0,1.33596 -2.67192,0 -2.67192,0 0,2.67192 0,2.6719 1.33596,0 1.33596,0 0,-1.33594 0,-1.33596 1.33596,0 1.33596,0 0,1.33596 0,1.33594 -1.33596,0 -1.33596,0 0,2.67192 0,2.67191 -1.33596,0 -1.33596,0 0,1.33595 0,1.33596 2.67192,0 2.67192,0 0,-1.33596 0,-1.33595 1.33595,0 1.33595,0 0,-5.34383 0,-5.34382 1.33596,0 1.33596,0 0,1.33596 0,1.33596 2.67191,0 2.67191,0 0,-1.33596 0,-1.33596 4.00787,0 4.00785,0 0,1.33596 0,1.33596 -2.67189,0 -2.67192,0 0,2.6719 0,2.67192 1.33596,0 1.33596,0 0,-1.33596 0,-1.33596 2.67189,0 2.67192,0 0,-2.6719 0,-2.67192 1.33596,0 1.33594,0 0,2.67192 0,2.6719 -1.33594,0 -1.33596,0 0,1.33596 0,1.33596 1.33596,0 1.33594,0 0,1.33596 0,1.33595 -1.33594,0 -1.33596,0 0,-1.33595 0,-1.33596 -2.67192,0 -2.67189,0 0,1.33596 0,1.33595 1.33594,0 1.33595,0 0,1.33595 0,1.33596 2.67192,0 2.6719,0 0,2.6719 0,2.67192 -1.33594,0 -1.33596,0 0,4.00786 0,4.00786 -1.33596,0 -1.33596,0 0,4.00788 0,4.00786 2.67192,0 2.6719,0 0,1.33596 0,1.33596 -1.33594,0 -1.33596,0 0,2.67191 0,2.67191 1.33596,0 1.33594,0 0,4.00787 0,4.00786 -1.33594,0 -1.33596,0 0,2.67192 0,2.6719 -1.33596,0 -1.33596,0 0,-2.6719 0,-2.67192 -1.33595,0 -1.33594,0 0,2.67192 0,2.6719 -1.33596,0 -1.33596,0 0,-2.6719 0,-2.67192 1.33596,0 1.33596,0 0,-1.33596 0,-1.33594 -2.67192,0 -2.67191,0 0,2.6719 0,2.67192 -1.33596,0 -1.33595,0 0,1.33596 0,1.33594 -6.67978,0 -6.67979,0 0,-1.33594 0,-1.33596 2.67192,0 2.67192,0 0,-1.33596 0,-1.33596 1.33595,0 1.33595,0 0,1.33596 0,1.33596 1.33596,0 1.33596,0 0,-1.33596 0,-1.33596 1.33595,0 1.33596,0 0,-1.33596 0,-1.33594 1.33595,0 1.33596,0 0,-1.33596 0,-1.33596 -2.67191,0 -2.67191,0 0,1.33596 0,1.33596 -2.67192,0 -2.6719,0 0,-4.00788 0,-4.00786 -2.67192,0 -2.67192,0 0,-2.67191 0,-2.67192 -1.33594,0 -1.33596,0 0,1.33596 0,1.33596 -1.33596,0 -1.33596,0 0,-4.00787 0,-4.00787 -2.6719,0 -2.67192,0 0,-1.33596 0,-1.33596 -2.67191,0 -2.67191,0 0,-1.33594 0,-1.33596 -1.33595,0 -1.33596,0 0,2.6719 0,2.67192 1.33596,0 1.33595,0 0,2.67192 0,2.6719 -1.33595,0 -1.33596,0 0,4.00787 0,4.00787 -1.33596,0 -1.33596,0 0,4.00787 0,4.00786 1.33596,0 1.33596,0 0,1.33596 0,1.33596 1.33596,0 1.33595,0 0,-1.33596 0,-1.33596 1.33595,0 1.33596,0 0,2.67192 0,2.6719 -4.00786,0 -4.00788,0 0,-2.6719 0,-2.67192 -1.33594,0 -1.33596,0 0,2.67192 0,2.6719 -1.33596,0 -1.33596,0 0,-5.34382 z m 53.43823,-2.6719 0,-2.67192 -1.33596,0 -1.33596,0 0,2.67192 0,2.6719 1.33596,0 1.33596,0 0,-2.6719 z m -10.68764,-9.3517 0,-4.00787 -4.00787,0 -4.00787,0 0,4.00787 0,4.00787 4.00787,0 4.00787,0 0,-4.00787 z m -5.34382,0 0,-1.33595 1.33595,0 1.33596,0 0,1.33595 0,1.33596 -1.33596,0 -1.33595,0 0,-1.33596 z m 13.35954,1.33596 0,-2.67191 -1.33595,0 -1.33594,0 0,1.33595 0,1.33596 -1.33596,0 -1.33596,0 0,1.33595 0,1.33596 2.67192,0 2.67189,0 0,-2.67191 z m -18.70336,-4.00787 0,-1.33596 -1.33596,0 -1.33596,0 0,1.33596 0,1.33596 1.33596,0 1.33596,0 0,-1.33596 z m -29.39103,-4.00786 0,-2.67192 1.33596,0 1.33594,0 0,-1.33596 0,-1.33596 -4.00786,0 -4.00787,0 0,-1.33594 0,-1.33596 -1.33595,0 -1.33596,0 0,1.33596 0,1.33594 1.33596,0 1.33595,0 0,1.33596 0,1.33596 -2.67191,0 -2.67191,0 0,1.33596 0,1.33596 4.00787,0 4.00786,0 0,1.33595 0,1.33595 1.33596,0 1.33596,0 0,-2.6719 z m 5.34382,1.33595 0,-1.33595 -1.33596,0 -1.33596,0 0,1.33595 0,1.33595 1.33596,0 1.33596,0 0,-1.33595 z m 26.71911,-2.67191 0,-1.33596 -1.33595,0 -1.33595,0 0,-2.67192 0,-2.6719 1.33595,0 1.33595,0 0,1.33596 0,1.33594 1.33596,0 1.33596,0 0,1.33596 0,1.33596 1.33595,0 1.33596,0 0,1.33596 0,1.33596 4.00786,0 4.00788,0 0,-1.33596 0,-1.33596 -1.33596,0 -1.33596,0 0,-1.33596 0,-1.33596 1.33596,0 1.33596,0 0,-1.33594 0,-1.33596 1.33594,0 1.33595,0 0,-2.67192 0,-2.6719 -4.00785,0 -4.00787,0 0,-1.33596 0,-1.33596 4.00787,0 4.00785,0 0,-1.33594 0,-1.33596 -2.67189,0 -2.67192,0 0,-1.33596 0,-1.33595 -1.33596,0 -1.33595,0 0,-1.33595 0,-1.33596 -1.33596,0 -1.33595,0 0,-1.33596 0,-1.33596 -1.33596,0 -1.33595,0 0,1.33596 0,1.33596 1.33595,0 1.33596,0 0,1.33596 0,1.33595 -2.67191,0 -2.67192,0 0,1.33595 0,1.33596 -1.33595,0 -1.33595,0 0,4.00786 0,4.00786 -1.33596,0 -1.33596,0 0,1.33596 0,1.33596 -1.33596,0 -1.33596,0 0,-2.67192 0,-2.6719 1.33596,0 1.33596,0 0,-1.33596 0,-1.33596 -1.33596,0 -1.33596,0 0,1.33596 0,1.33596 -2.6719,0 -2.67192,0 0,-1.33596 0,-1.33596 -1.33595,0 -1.33595,0 0,1.33596 0,1.33596 -2.67192,0 -2.67191,0 0,-1.33596 0,-1.33596 1.33596,0 1.33595,0 0,-1.33594 0,-1.33596 -2.67191,0 -2.67191,0 0,1.33596 0,1.33594 -2.67191,0 -2.67192,0 0,1.33596 0,1.33596 1.33596,0 1.33596,0 0,1.33595 0,1.33595 1.33596,0 1.33595,0 0,1.33596 0,1.33596 1.33595,0 1.33596,0 0,-1.33596 0,-1.33596 1.33596,0 1.33595,0 0,2.67192 0,2.6719 1.33596,0 1.33596,0 0,-1.33594 0,-1.33596 1.33595,0 1.33595,0 0,1.33596 0,1.33594 1.33596,0 1.33596,0 0,1.33596 0,1.33596 2.6719,0 2.67192,0 0,1.33596 0,1.33596 2.67192,0 2.6719,0 0,-1.33596 z m 5.34383,-2.67192 0,-1.33596 1.33595,0 1.33596,0 0,1.33596 0,1.33596 -1.33596,0 -1.33595,0 0,-1.33596 z m -18.70339,-5.34382 0,-1.33596 1.33596,0 1.33596,0 0,1.33596 0,1.33596 -1.33596,0 -1.33596,0 0,-1.33596 z m 13.35956,-2.67191 0,-4.00787 1.33596,0 1.33596,0 0,-1.33594 0,-1.33596 1.33595,0 1.33596,0 0,-1.33596 0,-1.33595 1.33595,0 1.33596,0 0,1.33595 0,1.33596 -1.33596,0 -1.33595,0 0,1.33596 0,1.33594 -1.33596,0 -1.33595,0 0,1.33596 0,1.33596 2.67191,0 2.67191,0 0,1.33595 0,1.33595 1.33595,0 1.33596,0 0,1.33596 0,1.33596 -2.67191,0 -2.67191,0 0,-1.33596 0,-1.33596 -1.33596,0 -1.33595,0 0,1.33596 0,1.33596 -1.33596,0 -1.33596,0 0,-4.00787 z m -24.0472,0 0,-1.33595 1.33595,0 1.33596,0 0,1.33595 0,1.33595 -1.33596,0 -1.33595,0 0,-1.33595 z m -2.67191,-9.35168 0,-2.67191 2.67191,0 2.67191,0 0,-2.67192 0,-2.6719 1.33596,0 1.33595,0 0,2.6719 0,2.67192 1.33596,0 1.33596,0 0,1.33596 0,1.33595 1.33595,0 1.33595,0 0,-2.67191 0,-2.67192 1.33596,0 1.33596,0 0,2.67192 0,2.67191 1.33596,0 1.33594,0 0,-2.67191 0,-2.67192 -1.33594,0 -1.33596,0 0,-2.6719 0,-2.67192 -1.33596,0 -1.33596,0 0,-2.67191 0,-2.67191 1.33596,0 1.33596,0 0,1.33596 0,1.33595 1.33596,0 1.33594,0 0,-1.33595 0,-1.33596 -1.33594,0 -1.33596,0 0,-1.33596 0,-1.33595 -4.00787,0 -4.00787,0 0,-1.33596 0,-1.33595 -1.33595,0 -1.33596,0 0,-1.33596 0,-1.33595 -1.33596,0 -1.33595,0 0,2.67191 0,2.67191 -2.67191,0 -2.67192,0 0,1.33595 0,1.33596 -1.33594,0 -1.33596,0 0,1.33596 0,1.33595 1.33596,0 1.33594,0 0,1.33595 0,1.33596 -1.33594,0 -1.33596,0 0,1.33596 0,1.33596 -1.33596,0 -1.33596,0 0,1.33596 0,1.33594 1.33596,0 1.33596,0 0,1.33596 0,1.33596 -1.33596,0 -1.33596,0 0,1.33596 0,1.33595 2.67192,0 2.6719,0 0,1.33595 0,1.33596 1.33596,0 1.33596,0 0,-2.67191 z m -5.34382,-6.67977 0,-1.33596 1.33596,0 1.33594,0 0,1.33596 0,1.33594 -1.33594,0 -1.33596,0 0,-1.33594 z m 13.35955,-2.67192 0,-1.33596 2.67192,0 2.6719,0 0,1.33596 0,1.33596 -2.6719,0 -2.67192,0 0,-1.33596 z m -8.01573,-2.67192 0,-1.33595 -1.33596,0 -1.33596,0 0,-1.33595 0,-1.33596 1.33596,0 1.33596,0 0,1.33596 0,1.33595 1.33596,0 1.33595,0 0,-2.67191 0,-2.67191 1.33595,0 1.33596,0 0,2.67191 0,2.67191 -1.33596,0 -1.33595,0 0,1.33595 0,1.33596 -1.33595,0 -1.33596,0 0,-1.33596 z m 8.01573,-2.6719 0,-1.33596 1.33596,0 1.33596,0 0,1.33596 0,1.33595 -1.33596,0 -1.33596,0 0,-1.33595 z m -18.70338,13.35956 0,-1.33596 -2.67191,0 -2.67191,0 0,-1.33596 0,-1.33596 -2.67191,0 -2.67191,0 0,1.33596 0,1.33596 2.67191,0 2.67191,0 0,1.33596 0,1.33595 2.67191,0 2.67191,0 0,-1.33595 z m 34.73486,-13.35956 0,-1.33596 -1.33596,0 -1.33596,0 0,1.33596 0,1.33595 1.33596,0 1.33596,0 0,-1.33595 z m -16.03148,57.44609 0,-2.67192 1.33596,0 1.33596,0 0,2.67192 0,2.6719 -1.33596,0 -1.33596,0 0,-2.6719 z m 5.34382,1.33596 0,-1.33596 1.33596,0 1.33596,0 0,1.33596 0,1.33594 -1.33596,0 -1.33596,0 0,-1.33594 z m 0,-5.34384 0,-1.33594 -2.6719,0 -2.67192,0 0,-1.33596 0,-1.33596 -1.33595,0 -1.33596,0 0,-5.34382 0,-5.34383 1.33596,0 1.33595,0 0,-1.33595 0,-1.33595 1.33596,0 1.33596,0 0,4.00786 0,4.00787 2.6719,0 2.67192,0 0,1.33595 0,1.33596 1.33596,0 1.33594,0 0,2.67191 0,2.67192 1.33596,0 1.33596,0 0,1.33594 0,1.33596 -1.33596,0 -1.33596,0 0,-1.33596 0,-1.33594 -1.33594,0 -1.33596,0 0,1.33594 0,1.33596 -1.33596,0 -1.33596,0 0,-1.33596 z m -2.6719,-8.01573 0,-1.33595 -1.33596,0 -1.33596,0 0,1.33595 0,1.33596 1.33596,0 1.33596,0 0,-1.33596 z m -10.68765,5.34383 0,-1.33596 1.33596,0 1.33595,0 0,1.33596 0,1.33596 -1.33595,0 -1.33596,0 0,-1.33596 z m -26.71911,-13.35956 0,-1.33595 2.6719,0 2.67192,0 0,1.33595 0,1.33595 -2.67192,0 -2.6719,0 0,-1.33595 z m -2.67191,-5.34383 0,-1.33596 1.33596,0 1.33595,0 0,1.33596 0,1.33596 -1.33595,0 -1.33596,0 0,-1.33596 z m 0,-40.07866 0,-9.35169 9.35168,0 9.35169,0 0,9.35169 0,9.35169 -9.35169,0 -9.35168,0 0,-9.35169 z m 16.03146,0 0,-6.67977 -6.67978,0 -6.67977,0 0,6.67977 0,6.67978 6.67977,0 6.67978,0 0,-6.67978 z m -10.68765,0 0,-4.00787 4.00787,0 4.00787,0 0,4.00787 0,4.00787 -4.00787,0 -4.00787,0 0,-4.00787 z m 53.43824,0 0,-9.35169 9.35169,0 9.35167,0 0,9.35169 0,9.35169 -9.35167,0 -9.35169,0 0,-9.35169 z m 16.03146,0 0,-6.67977 -6.67977,0 -6.67978,0 0,6.67977 0,6.67978 6.67978,0 6.67977,0 0,-6.67978 z m -10.68764,0 0,-4.00787 4.00787,0 4.00785,0 0,4.00787 0,4.00787 -4.00785,0 -4.00787,0 0,-4.00787 z m -42.75059,-8.01573 0,-1.33596 2.67192,0 2.6719,0 0,1.33596 0,1.33596 -2.6719,0 -2.67192,0 0,-1.33596 z m 29.39103,0 0,-1.33596 2.67192,0 2.6719,0 0,1.33596 0,1.33596 -2.6719,0 -2.67192,0 0,-1.33596 z"
       id="path3337"
       inkscape:connector-curvature="0" />
  </g>
</svg>
